<svg xmlns="http://www.w3.org/2000/svg" viewBox="0 0 400 300" width="406" height="306" class="illustration styles_illustrationTablet__1DWOa"><g id="_539_cocktail_outline" data-name="#539_cocktail_outline"><path d="M233.47,221.15l-24.54-16V158.82a2.94,2.94,0,0,0-5.88,0v46.37l-24.54,16Z" fill="#68e1fd"></path><path d="M233.47,222.15h-55a1,1,0,0,1-.54-1.84l24.08-15.66V158.82a3.94,3.94,0,0,1,7.88,0v45.83L234,220.31a1,1,0,0,1-.54,1.84Zm-51.58-2H230.1L208.38,206a1,1,0,0,1-.45-.84V158.82a1.94,1.94,0,0,0-3.88,0v46.37a1,1,0,0,1-.45.84Z" fill="#093f68"></path><circle cx="153.25" cy="100.2" r="18.19" fill="#ffbc0e"></circle><path d="M153.25,119.39a19.19,19.19,0,1,1,19.19-19.19A19.21,19.21,0,0,1,153.25,119.39Zm0-36.37a17.19,17.19,0,1,0,17.19,17.18A17.21,17.21,0,0,0,153.25,83Z" fill="#093f68"></path><polygon points="205.99 164.22 147.04 95.68 264.94 95.68 205.99 164.22" fill="#fff"></polygon><path d="M206,165.22h0a1,1,0,0,1-.76-.35L146.29,96.33a1,1,0,0,1-.15-1.07,1,1,0,0,1,.91-.58H264.94a1,1,0,0,1,.91.58,1,1,0,0,1-.15,1.07l-58.95,68.54A1,1,0,0,1,206,165.22ZM149.22,96.68l56.77,66,56.77-66Z" fill="#093f68"></path><polygon points="161.23 112.17 205.99 164.22 250.75 112.17 161.23 112.17" fill="#68e1fd"></polygon><path d="M206,165.22a1,1,0,0,1-.76-.35l-44.76-52.05a1,1,0,0,1-.15-1.07,1,1,0,0,1,.91-.58h89.52a1,1,0,0,1,.91.58,1,1,0,0,1-.15,1.07l-44.76,52.05A1,1,0,0,1,206,165.22Zm-42.58-52L206,162.68l42.59-49.51Z" fill="#093f68"></path><path d="M207.67,156.69a1,1,0,0,1-.53-.16,1,1,0,0,1-.31-1.38l53.9-85.65a1,1,0,0,1,1.7,1.07l-53.91,85.65A1,1,0,0,1,207.67,156.69Z" fill="#093f68"></path><circle cx="254.59" cy="82.02" r="10.35" fill="#f56132"></circle><path d="M254.59,93.37A11.36,11.36,0,1,1,265.94,82,11.37,11.37,0,0,1,254.59,93.37Zm0-20.71A9.36,9.36,0,1,0,263.94,82,9.37,9.37,0,0,0,254.59,72.66Z" fill="#093f68"></path><path d="M248.88,81.46a1,1,0,0,1-.3,0,1,1,0,0,1-.66-1.25,8.35,8.35,0,0,1,10.29-5.37,1,1,0,0,1-.46,2c-6.11-1.45-7.85,3.79-7.92,4A1,1,0,0,1,248.88,81.46Z" fill="#fff"></path><path d="M201.12,126.63a1.07,1.07,0,0,1-.43-.09l-17.26-8.29a.94.94,0,0,1-.51-.56,1,1,0,0,1,0-.77l8.28-17.26a1,1,0,0,1,1.33-.47l17.26,8.28a1,1,0,0,1,.47,1.33L202,126.07a1,1,0,0,1-.57.51A.91.91,0,0,1,201.12,126.63Zm-15.93-9.75,15.46,7.42,7.42-15.46-15.46-7.42Z" fill="#093f68"></path><path d="M198.29,148.46a1,1,0,0,1-.93-.63l-5.24-13.29a1,1,0,0,1,.56-1.3L206,128a1,1,0,0,1,1.3.56l5.25,13.29a1,1,0,0,1-.57,1.29l-13.28,5.25A1,1,0,0,1,198.29,148.46Zm-3.95-13.72,4.51,11.42,11.43-4.51-4.51-11.42Z" fill="#093f68"></path></g></svg>