<svg xmlns="http://www.w3.org/2000/svg" viewBox="0 0 400 300" width="406" height="306" class="illustration styles_illustrationTablet__1DWOa"><g id="_437_ramen_outline" data-name="#437_ramen_outline"><rect x="176.53" y="77.11" width="7.95" height="75.91" fill="#ffbc0e"></rect><path d="M184.48,154h-7.95a1,1,0,0,1-1-1V77.11a1,1,0,0,1,1-1h7.95a1,1,0,0,1,1,1V153A1,1,0,0,1,184.48,154Zm-6.95-2h5.95V78.11h-5.95Z" fill="#093f68"></path><path d="M295.8,85.79,159,83.86a2.5,2.5,0,0,1-2.48-2.5V79.62a2.51,2.51,0,0,1,2.51-2.51H295.84a2.51,2.51,0,0,1,2.51,2.51v3.67A2.51,2.51,0,0,1,295.8,85.79Z" fill="#68e1fd"></path><path d="M295.84,86.79h0L159,84.87a3.54,3.54,0,0,1-3.46-3.51V79.62a3.51,3.51,0,0,1,3.51-3.51H295.84a3.51,3.51,0,0,1,3.51,3.51v3.67a3.52,3.52,0,0,1-3.51,3.5Zm0-2a1.46,1.46,0,0,0,1.08-.43,1.51,1.51,0,0,0,.45-1.07V79.62a1.52,1.52,0,0,0-1.51-1.51H159.06a1.52,1.52,0,0,0-1.51,1.51v1.74A1.52,1.52,0,0,0,159,82.87Z" fill="#093f68"></path><path d="M295.9,65.75,159.12,64a2.51,2.51,0,0,0-2.54,2.44l-.05,1.73A2.51,2.51,0,0,0,159,70.72l136.72,3.71A2.51,2.51,0,0,0,298.27,72l.1-3.66A2.51,2.51,0,0,0,295.9,65.75Z" fill="#68e1fd"></path><path d="M295.76,75.43h-.1L158.94,71.72a3.49,3.49,0,0,1-2.45-1.1,3.44,3.44,0,0,1-1-2.51l.05-1.73A3.52,3.52,0,0,1,159.09,63h0l136.78,1.78h0a3.5,3.5,0,0,1,3.46,3.61l-.1,3.66A3.52,3.52,0,0,1,295.76,75.43ZM159.09,65a1.51,1.51,0,0,0-1.51,1.46l-.05,1.74a1.49,1.49,0,0,0,.41,1.08,1.51,1.51,0,0,0,1.06.47l136.72,3.71h0A1.52,1.52,0,0,0,297.27,72l.1-3.67a1.5,1.5,0,0,0-.42-1.09,1.48,1.48,0,0,0-1.07-.46L159.11,65Z" fill="#093f68"></path><rect x="184.48" y="77.11" width="7.95" height="75.91" fill="#ffbc0e"></rect><path d="M192.43,154h-8a1,1,0,0,1-1-1V77.11a1,1,0,0,1,1-1h8a1,1,0,0,1,1,1V153A1,1,0,0,1,192.43,154Zm-7-2h6V78.11h-6Z" fill="#093f68"></path><rect x="192.43" y="77.11" width="7.95" height="75.91" fill="#ffbc0e"></rect><path d="M200.39,154h-8a1,1,0,0,1-1-1V77.11a1,1,0,0,1,1-1h8a1,1,0,0,1,1,1V153A1,1,0,0,1,200.39,154Zm-7-2h6V78.11h-6Z" fill="#093f68"></path><rect x="200.39" y="77.11" width="7.95" height="75.91" fill="#ffbc0e"></rect><path d="M208.34,154h-8a1,1,0,0,1-1-1V77.11a1,1,0,0,1,1-1h8a1,1,0,0,1,1,1V153A1,1,0,0,1,208.34,154Zm-7-2h6V78.11h-6Z" fill="#093f68"></path><rect x="208.34" y="77.11" width="7.95" height="75.91" fill="#ffbc0e"></rect><path d="M216.3,154h-8a1,1,0,0,1-1-1V77.11a1,1,0,0,1,1-1h8a1,1,0,0,1,1,1V153A1,1,0,0,1,216.3,154Zm-7-2h6V78.11h-6Z" fill="#093f68"></path><path d="M157.25,133.42a20,20,0,0,1,12.63.53c2.51,1,5.07,2.67,7.69,2,1.88-.46,3.26-2,4.72-3.27a20,20,0,0,1,24.84-.39,5.53,5.53,0,0,0,2.15,1.31c1.3.28,2.56-.56,3.73-1.2,4.31-2.35,9.59-2.45,14.33-1.17s9,3.81,13.13,6.54c1.47,1,3.06,2,4.83,2a11.7,11.7,0,0,0,3.78-1.1c5.53-2.07,11.83-1.08,17.19,1.39s9.94,6.33,14.43,10.17c1.45,1.24,3,2.69,3.17,4.59a7.51,7.51,0,0,1-1.4,4.23c-8.23,14.17-17.83,28.86-32.85,35.38a55,55,0,0,1-20.38,4.08,84.32,84.32,0,0,1-32.1-5.36,67.67,67.67,0,0,0-8.39-2.91c-15.35-3.57-31.37-1.74-46.7-5.66-4.92-1.26-9.89-2.91-13.79-6.17a32.93,32.93,0,0,1-6.85-8.67c-.89-1.5-1.5-3.63-2.68-4.91s-3.07-1.79-4.31-3.23c-4.49-5.2-6.91-12.49-5.12-19.12s8.38-12,15.21-11.26c4.45.49,8.26,3.25,12.36,5C144.44,139.59,150.05,135.25,157.25,133.42Z" fill="#ffbc0e"></path><path d="M226.85,199.57a86.07,86.07,0,0,1-30.06-5.46l-1.85-.72a47.43,47.43,0,0,0-6.42-2.15c-7.35-1.71-15-2.18-22.45-2.63-8-.49-16.27-1-24.27-3-4.67-1.19-10-2.89-14.18-6.37a34.2,34.2,0,0,1-7.08-8.93c-.35-.6-.66-1.29-1-2a11,11,0,0,0-1.58-2.79,8.17,8.17,0,0,0-1.85-1.35,9.53,9.53,0,0,1-2.49-1.91c-5-5.84-7.08-13.52-5.32-20,2-7.37,9.28-12.75,16.28-12,3.29.36,6.22,1.88,9.06,3.35,1.17.61,2.38,1.24,3.59,1.76,5.16,2.26,9.3.72,14.09-1.05a57.34,57.34,0,0,1,5.64-1.86,21,21,0,0,1,13.25.57c.54.22,1.07.46,1.61.71,1.92.87,3.73,1.7,5.47,1.26a8.57,8.57,0,0,0,3.46-2.3l.85-.76a20.84,20.84,0,0,1,26.12-.41l.2.16a4.08,4.08,0,0,0,1.53.95,4.32,4.32,0,0,0,2.63-.87l.41-.22c4.2-2.3,9.56-2.75,15.07-1.27,5.05,1.36,9.62,4.14,13.43,6.68,1.35.9,2.76,1.84,4.21,1.84h0a7.61,7.61,0,0,0,2.68-.74l.77-.3c5.3-2,11.68-1.48,18,1.43,5.68,2.63,10.66,6.89,14.66,10.31,1.67,1.43,3.32,3,3.52,5.27a8.44,8.44,0,0,1-1.54,4.82c-8,13.8-17.86,29.08-33.32,35.79-5.9,2.56-12.68,3.92-20.74,4.16C228.46,199.55,227.66,199.57,226.85,199.57ZM123.27,132.18c-5.69,0-11.37,4.52-13,10.58-1.59,5.88.29,12.86,4.91,18.2a7.8,7.8,0,0,0,2,1.51,9.86,9.86,0,0,1,2.29,1.7,12.35,12.35,0,0,1,1.93,3.33,19,19,0,0,0,.87,1.75,32.19,32.19,0,0,0,6.63,8.42c3.86,3.22,8.94,4.82,13.4,6,7.81,2,16,2.5,23.89,3,7.51.46,15.27.93,22.79,2.68a49.41,49.41,0,0,1,6.68,2.24l1.83.71a83.85,83.85,0,0,0,31.72,5.29c7.8-.23,14.34-1.53,20-4,14.89-6.47,24.52-21.44,32.38-35a6.59,6.59,0,0,0,1.28-3.64c-.13-1.49-1.47-2.76-2.83-3.92-5-4.25-9.17-7.69-14.2-10-3.35-1.55-10-3.79-16.42-1.36l-.72.28a9.59,9.59,0,0,1-3.4.88c-2.1,0-3.84-1.15-5.39-2.18-3.67-2.45-8.07-5.12-12.84-6.41-5-1.35-9.84-1-13.59,1.09l-.39.22a5.75,5.75,0,0,1-4,1.07,5.67,5.67,0,0,1-2.38-1.35l-.19-.16a19,19,0,0,0-23.55.38c-.28.23-.54.47-.81.72a10.23,10.23,0,0,1-4.33,2.76c-2.42.6-4.73-.45-6.78-1.38-.51-.23-1-.47-1.53-.67a19,19,0,0,0-12-.49h0a53.32,53.32,0,0,0-5.44,1.8c-5,1.84-9.68,3.58-15.58,1-1.27-.56-2.51-1.2-3.72-1.83-2.79-1.45-5.43-2.82-8.35-3.13A10.69,10.69,0,0,0,123.27,132.18Zm34,1.24h0Z" fill="#093f68"></path><path d="M119.77,159.41l-.28,0a2.05,2.05,0,0,1-1.5-1.11,3.44,3.44,0,0,1-.08-2.27,26,26,0,0,1,1.27-4.21,16.55,16.55,0,0,1,16.52-9.73,1,1,0,0,1-.22,2A14.47,14.47,0,0,0,121,152.58a22.64,22.64,0,0,0-1.17,3.88,2.61,2.61,0,0,0-.09.87,1,1,0,0,1,1.15.15,1,1,0,0,1,0,1.42A1.62,1.62,0,0,1,119.77,159.41Z" fill="#093f68"></path><polygon points="192.43 155.08 198.38 144.31 202.97 146.54 197.7 158.53 192.43 155.08" fill="#70cc40"></polygon><path d="M197.7,159.53a1,1,0,0,1-.55-.16l-5.26-3.46a1,1,0,0,1-.33-1.32l5.94-10.76a1,1,0,0,1,1.31-.42l4.59,2.23a1,1,0,0,1,.48,1.3l-5.26,12a1,1,0,0,1-.64.56A.9.9,0,0,1,197.7,159.53Zm-3.94-4.78,3.5,2.3,4.4-10-2.87-1.4Z" fill="#093f68"></path><path d="M118.3,164.63a1,1,0,0,1-.88-.53,30,30,0,0,1-3.82-10.68,13.84,13.84,0,0,1,3.19-11.09c3.12-3.34,8.53-4.65,13.78-3.32,4.76,1.21,8.88,4.22,12.27,7a1,1,0,0,1,.14,1.4,1,1,0,0,1-1.41.14c-3.22-2.64-7.11-5.5-11.49-6.61-4.55-1.15-9.2-.07-11.83,2.75a12,12,0,0,0-2.67,9.49,28.15,28.15,0,0,0,3.6,10,1,1,0,0,1-.41,1.36A1,1,0,0,1,118.3,164.63Z" fill="#093f68"></path><path d="M182,153.5A1.17,1.17,0,0,1,181,153a1.9,1.9,0,0,1,.24-2.27,37.63,37.63,0,0,1,17.68-10.46,16.84,16.84,0,0,1,6-.66,21.87,21.87,0,0,1,5.85,1.68,25.05,25.05,0,0,0,4.43,1.43,1,1,0,1,1-.36,2,26.34,26.34,0,0,1-4.8-1.53,20,20,0,0,0-5.31-1.55,15.09,15.09,0,0,0-5.28.6,35.7,35.7,0,0,0-16.52,9.68.75.75,0,0,1,.07.12,1,1,0,0,1-.45,1.34A1.33,1.33,0,0,1,182,153.5Z" fill="#093f68"></path><path d="M245.45,138.44a49.86,49.86,0,0,1,4.36-5.56c3.91-4,9.75-6.19,12.29-11.16l27.11,22.46L262.9,172.75c-2.27,2.45-4.71,5-7.95,5.84-3.45.88-7-.42-10.33-1.78-7-2.86-19.5-9-16.79-18.61C229.9,150.85,240.9,144.56,245.45,138.44Z" fill="#093f68"></path><path d="M252.59,179.88a22.61,22.61,0,0,1-8.35-2.14c-13.66-5.6-19.5-12.27-17.37-19.81,1.36-4.82,6.13-9,10.74-13.1a51,51,0,0,0,7-7h0c.33-.44.65-.89,1-1.34a37.17,37.17,0,0,1,3.48-4.34,38.35,38.35,0,0,1,5.15-4.13c2.83-2,5.51-3.91,7-6.77a1,1,0,0,1,.68-.53,1,1,0,0,1,.84.21l27.12,22.46a1,1,0,0,1,.36.71,1,1,0,0,1-.26.74l-26.32,28.57c-2.14,2.32-4.8,5.21-8.43,6.13A10.6,10.6,0,0,1,252.59,179.88Zm9.78-56.63c-1.74,2.7-4.39,4.59-7,6.42a36.67,36.67,0,0,0-4.88,3.91,34.45,34.45,0,0,0-3.28,4.1l-1,1.36h0a52.49,52.49,0,0,1-7.32,7.29c-4.39,3.88-8.94,7.89-10.14,12.14-1.81,6.41,3.64,12.27,16.2,17.42,3.2,1.31,6.59,2.53,9.72,1.73s5.49-3.42,7.45-5.55l25.6-27.79Zm-16.92,15.19h0Z" fill="#093f68"></path><path d="M166.5,131.64C179.08,136.47,186,148.85,182,159.3s-17.46,15-30.05,10.16-25.49-19.5-21.48-30S153.91,126.81,166.5,131.64Z" fill="#fff"></path><path d="M162.17,172.38a29.52,29.52,0,0,1-10.55-2,42.2,42.2,0,0,1-17.4-13.19c-5-6.47-6.64-12.88-4.66-18s7.5-8.82,15.54-10.29a42.1,42.1,0,0,1,21.76,1.84h0a28,28,0,0,1,14.5,12.16,19.54,19.54,0,0,1,1.6,16.78C179.89,167.65,171.55,172.38,162.17,172.38Zm-9.62-42.17a39.61,39.61,0,0,0-7.09.62c-7.22,1.32-12.33,4.62-14,9s-.1,10.3,4.38,16.11a40.06,40.06,0,0,0,16.53,12.54c12,4.63,24.95.33,28.75-9.58a17.58,17.58,0,0,0-1.48-15.09,26,26,0,0,0-13.47-11.28A38.8,38.8,0,0,0,152.55,130.21Z" fill="#093f68"></path><circle cx="161.47" cy="151.4" r="13.76" fill="#ffbc0e"></circle><path d="M161.48,166.18a14.77,14.77,0,1,1,5.28-28.56h0a14.78,14.78,0,0,1-5.28,28.56Zm0-27.55a12.81,12.81,0,1,0,4.58.86h0A12.82,12.82,0,0,0,161.47,138.63Z" fill="#093f68"></path><path d="M209.66,144.51c1.36-2.32,4.13-3.93,6.75-3.35A8,8,0,0,1,230.69,134,9.29,9.29,0,0,1,248,140.18c3.26-.58,7,0,9.12,2.6s1.54,7.2-1.57,8.34a3.56,3.56,0,0,1,1.47,3.93,9.3,9.3,0,0,1-2.28,3.83c-2.68,3.1-5.88,6-9.84,7.06s-8.81-.3-10.67-3.95c-2,2.45-4.68,4.62-7.83,4.84s-6.56-2.33-6.28-5.48c-.23,2.62-8.13-2.7-8.95-3.71C208.25,154.08,207.28,148.61,209.66,144.51Z" fill="#fff"></path><path d="M226,167.84a7.53,7.53,0,0,1-5.25-2.22,5.94,5.94,0,0,1-1.51-2.56c-2.76,0-8.22-4-8.89-4.79-3.37-4.17-4-10-1.54-14.26h0a7.91,7.91,0,0,1,6.27-4,9,9,0,0,1,15.56-7.81A10.28,10.28,0,0,1,249.09,139c3-.23,6.55.46,8.75,3.11a7,7,0,0,1,1.25,6.16,5.59,5.59,0,0,1-1.9,3,5,5,0,0,1,.76,4,10.3,10.3,0,0,1-2.5,4.26c-2.23,2.58-5.73,6.15-10.35,7.38-3.66,1-8.5.1-11-3.25-2.38,2.55-5,4-7.63,4.16Zm-4.93-6.4a3.58,3.58,0,0,0,1.11,2.78,5.53,5.53,0,0,0,4.11,1.61c3-.21,5.55-2.55,7.12-4.47a1,1,0,0,1,.89-.37,1,1,0,0,1,.78.54c1.68,3.29,6.16,4.34,9.52,3.45,4.08-1.09,7.29-4.38,9.35-6.76a8.6,8.6,0,0,0,2.06-3.4,2.59,2.59,0,0,0-1-2.81,1,1,0,0,1-.53-.95,1,1,0,0,1,.66-.87,3.41,3.41,0,0,0,2-2.41,5,5,0,0,0-.86-4.36c-2-2.39-5.52-2.73-8.17-2.25A1,1,0,0,1,247,140a8.3,8.3,0,0,0-15.41-5.57,1,1,0,0,1-1.71,0,7,7,0,0,0-12.5,6.32,1,1,0,0,1-.18,1,1,1,0,0,1-1,.32c-2.32-.52-4.6,1.05-5.66,2.88h0c-2,3.46-1.45,8.51,1.37,12,.73.89,5.79,4.07,7.2,4.07a1,1,0,0,1,2,.36Zm-2-.17h0Z" fill="#093f68"></path><path d="M236.12,162.85a6.29,6.29,0,0,1-1.14-.11,1,1,0,0,1,.38-2c2,.38,4.18-.78,6.68-3.56a12.07,12.07,0,0,0,3-4.86,8.43,8.43,0,0,0-.38-4.82,11.9,11.9,0,0,0-15.79-7,8.91,8.91,0,0,0-3.91,3,11.34,11.34,0,0,0-1.79,5.11,8.67,8.67,0,0,0,.33,4.79,6.05,6.05,0,0,0,5.36,3.35,9.56,9.56,0,0,0,6.38-2.54,5.11,5.11,0,0,0,1.91-2.95c.25-1.79-1.18-3.53-2.45-4.84a3.22,3.22,0,0,0-1.39-1,2.42,2.42,0,0,0-1.37.26,8.62,8.62,0,0,0-3.31,2.41,1,1,0,1,1-1.53-1.29,10.73,10.73,0,0,1,4.07-3,4.34,4.34,0,0,1,2.55-.37,4.83,4.83,0,0,1,2.42,1.57c1.46,1.51,3.36,3.83,3,6.51a7,7,0,0,1-2.57,4.18,11.27,11.27,0,0,1-7.77,3,8.06,8.06,0,0,1-7.12-4.54,10.8,10.8,0,0,1-.48-5.87,13.22,13.22,0,0,1,2.14-6,11,11,0,0,1,4.78-3.65,13.9,13.9,0,0,1,18.44,8.19,10.37,10.37,0,0,1,.43,6,13.84,13.84,0,0,1-3.49,5.71C240.93,161.43,238.5,162.85,236.12,162.85Z" fill="#f56132"></path><path d="M291.58,153a81.55,81.55,0,0,1-5.65,28.6,86.21,86.21,0,0,1-21.3,31.3A91.7,91.7,0,0,1,242,228.49a94.39,94.39,0,0,1-22,7.54H180a94.39,94.39,0,0,1-22-7.54,91.7,91.7,0,0,1-22.61-15.57,86.21,86.21,0,0,1-21.3-31.3,81.55,81.55,0,0,1-5.65-28.6Z" fill="#68e1fd"></path><path d="M220.05,237H180a.75.75,0,0,1-.21,0,95.07,95.07,0,0,1-22.2-7.62,92.25,92.25,0,0,1-22.85-15.74A87.73,87.73,0,0,1,113.14,182a82.57,82.57,0,0,1-5.72-29,1,1,0,0,1,.29-.72,1,1,0,0,1,.71-.3H291.58a1,1,0,0,1,.71.3,1,1,0,0,1,.29.72,82.57,82.57,0,0,1-5.72,29,87.73,87.73,0,0,1-21.55,31.66,92.25,92.25,0,0,1-22.85,15.74,95.07,95.07,0,0,1-22.2,7.62A.75.75,0,0,1,220.05,237Zm-40-2H220a93.33,93.33,0,0,0,21.63-7.44A90.36,90.36,0,0,0,264,212.19,85.74,85.74,0,0,0,285,181.26,80.72,80.72,0,0,0,290.56,154H109.44A80.72,80.72,0,0,0,115,181.26a85.64,85.64,0,0,0,21.06,30.93,90.12,90.12,0,0,0,22.36,15.4A93.33,93.33,0,0,0,180.05,235Z" fill="#093f68"></path><path d="M299.11,158.53A7.51,7.51,0,0,1,291.6,166H108.4a7.51,7.51,0,0,1,0-15H291.6A7.51,7.51,0,0,1,299.11,158.53Z" fill="#68e1fd"></path><path d="M291.6,167H108.4a8.51,8.51,0,0,1,0-17H291.6a8.51,8.51,0,1,1,0,17ZM108.4,152a6.51,6.51,0,0,0,0,13H291.6a6.5,6.5,0,0,0,6.51-6.51A6.52,6.52,0,0,0,291.6,152Z" fill="#093f68"></path><rect x="157.14" y="228.5" width="85.71" height="7.54" rx="3.49" fill="#093f68"></rect><path d="M239.36,237H160.64a4.5,4.5,0,0,1-4.5-4.49V232a4.5,4.5,0,0,1,4.5-4.49h78.72a4.5,4.5,0,0,1,4.5,4.49v.55A4.5,4.5,0,0,1,239.36,237Zm-78.72-7.53a2.49,2.49,0,0,0-2.5,2.49v.55a2.5,2.5,0,0,0,2.5,2.49h78.72a2.5,2.5,0,0,0,2.5-2.49V232a2.49,2.49,0,0,0-2.5-2.49Z" fill="#093f68"></path><path d="M285.93,181.62a86.21,86.21,0,0,1-21.3,31.3H135.37a86.21,86.21,0,0,1-21.3-31.3Z" fill="#fff"></path><path d="M264.63,213.92H135.37a1,1,0,0,1-.69-.27A87.83,87.83,0,0,1,113.14,182a1,1,0,0,1,.93-1.37H285.93a1,1,0,0,1,.93,1.37,87.83,87.83,0,0,1-21.54,31.66A1,1,0,0,1,264.63,213.92Zm-128.86-2H264.23a86,86,0,0,0,20.22-29.3H115.55A86,86,0,0,0,135.77,211.92Z" fill="#093f68"></path><path d="M181.56,145.31a.94.94,0,0,1-.55-.17,1,1,0,0,1-.28-1.39,23.26,23.26,0,0,1,11.43-9.21,16.83,16.83,0,0,1,14.61,1.5,1,1,0,1,1-1.09,1.67,15,15,0,0,0-12.86-1.28,21.25,21.25,0,0,0-10.43,8.44A1,1,0,0,1,181.56,145.31Z" fill="#093f68"></path></g></svg>