<svg id="Layer_1" data-name="Layer 1" xmlns="http://www.w3.org/2000/svg" viewBox="0 0 400 300" width="406" height="306" class="illustration styles_illustrationTablet__1DWOa"><title>_</title><path d="M342,130c-9.68-37.52-29.29-61.77-62.15-69.65-45.46-10.91-103-11.59-147-.75-16.41,4-32.89,11.59-44.32,26.24C67.36,113,61.56,172.89,81.62,203c8.93,13.38,23.88,18.4,38,21.44,53.61,11.55,108.61,5.3,163,.63,12.59-1.08,25.72-2.26,36.6-9.94C342.22,198.8,349.48,158.93,342,130Z" fill="#dddbdb" opacity="0.18"></path><circle cx="201.54" cy="78.51" r="12.79" fill="#ffd200"></circle><path d="M261.61,244.84H136.22a95.46,95.46,0,0,1-58-19.64H319.57A95.41,95.41,0,0,1,261.61,244.84Z" fill="#e6e6e6"></path><rect x="107.39" y="202.7" width="188.3" height="22.5" rx="7.91" fill="#68e1fd"></rect><rect x="107.39" y="208.87" width="188.3" height="10.16" rx="3.57" fill="#fff" opacity="0.3"></rect><rect x="107.39" y="180.19" width="188.3" height="22.5" rx="7.91" fill="#68e1fd"></rect><rect x="107.39" y="186.36" width="188.3" height="10.16" rx="3.57" fill="#fff" opacity="0.3"></rect><rect x="100.43" y="157.69" width="188.3" height="22.5" rx="7.91" fill="#68e1fd"></rect><rect x="100.43" y="163.86" width="188.3" height="10.16" rx="3.57" fill="#fff" opacity="0.3"></rect><rect x="107.39" y="135.19" width="188.3" height="22.5" rx="7.91" fill="#68e1fd"></rect><rect x="107.39" y="141.36" width="188.3" height="10.16" rx="3.57" fill="#fff" opacity="0.3"></rect><rect x="110.87" y="112.69" width="188.3" height="22.5" rx="7.91" fill="#68e1fd"></rect><rect x="110.87" y="118.86" width="188.3" height="10.16" rx="3.57" fill="#fff" opacity="0.3"></rect><rect x="105.07" y="90.19" width="188.3" height="22.5" rx="7.91" fill="#68e1fd"></rect><rect x="105.07" y="96.36" width="188.3" height="10.16" rx="3.57" fill="#fff" opacity="0.3"></rect><path d="M265.91,90.19H119.41v20.09a8.88,8.88,0,0,0,8.88,8.88h0a8.89,8.89,0,0,0,8.88-8.88v14.15A12.82,12.82,0,0,0,150,137.26h0a12.82,12.82,0,0,0,12.83-12.83v-9.89a8.66,8.66,0,0,1,17.32,0V117A12.82,12.82,0,0,0,193,129.86h0A12.82,12.82,0,0,0,205.81,117v-7.29a6.94,6.94,0,0,1,13.88,0v7.93a10.28,10.28,0,0,0,20.56,0v6.8a12.83,12.83,0,0,0,12.83,12.83h0a12.82,12.82,0,0,0,12.83-12.83V110.28a8.89,8.89,0,0,0,17.77,0V90.19Z" fill="#24285b"></path></svg>