<svg width="300" height="200" viewBox="0 0 300 200" fill="none" xmlns="http://www.w3.org/2000/svg">
<path d="M147.18 191.947L17.805 124.313C13.6875 122.27 10.155 118.907 14.1675 116.711L144 50.517C145.95 49.4489 148.905 48.7524 150.885 49.7674L286.71 119.484C290.827 121.6 291.57 127.511 287.46 129.627L164.25 191.841C161.661 193.171 158.725 193.88 155.731 193.899C152.737 193.917 149.79 193.244 147.18 191.947V191.947Z" fill="#FF9494"/>
<path d="M252.315 126.788C245.183 130.536 237.915 134.085 230.857 137.927L243.518 144.328C247.313 142.033 261.278 135.605 264.915 133.117L252.315 126.788Z" fill="url(#paint0_linear_223:491)"/>
<path d="M204.75 161.218L110.19 113.752L60.5325 136.838L157.605 185.93C165.975 180.862 196.74 166.711 204.75 161.218Z" fill="url(#paint1_linear_223:491)"/>
<path d="M162.098 122.104C162.098 122.104 161.738 124.095 158.52 125.886C155.303 127.677 148.868 129.03 148.868 131.279C148.868 133.528 150.728 134.722 153.098 134.722C155.468 134.722 163.26 130.828 166.305 130.377C168.537 129.959 170.7 129.29 172.74 128.387C172.74 128.387 173.25 121.215 171.555 118.37C169.86 115.524 162.098 122.104 162.098 122.104Z" fill="#383838"/>
<path d="M179.355 133.833C179.355 133.833 172.605 143.42 171.735 145.065C170.985 146.524 169.485 149.423 170.378 150.757C172.178 153.41 179.13 151.42 180.878 149.556C183.248 147.009 184.268 141.768 185.108 141.171C185.942 140.512 186.733 139.812 187.478 139.074L188.73 131.312" fill="#383838"/>
<path d="M157.613 85.8299L162.113 122.105C162.113 122.105 167.798 125.017 174.113 121.043V98.2753L178.005 134.55C178.005 134.55 181.598 139.313 188.505 136.135L191.198 90.5931L157.673 79.9788" fill="#BE713D"/>
<path d="M107.37 67.6992H105.735C104.008 67.6992 102.608 68.9378 102.608 70.4656V117.467C102.608 118.995 104.008 120.234 105.735 120.234H107.37C109.097 120.234 110.497 118.995 110.497 117.467V70.4656C110.497 68.9378 109.097 67.6992 107.37 67.6992Z" fill="#CC4F00"/>
<path d="M171.368 132.109C171.368 130.181 169.601 128.619 167.423 128.619C165.244 128.619 163.478 130.181 163.478 132.109V177.578C163.478 179.505 165.244 181.067 167.423 181.067C169.601 181.067 171.368 179.505 171.368 177.578V132.109Z" fill="#CC4F00"/>
<path d="M204.742 109.235C204.742 107.307 202.976 105.745 200.798 105.745C198.619 105.745 196.852 107.307 196.852 109.235V161.219C196.852 163.146 198.619 164.708 200.798 164.708C202.976 164.708 204.742 163.146 204.742 161.219V109.235Z" fill="#CC4F00"/>
<path d="M77.1 80.2905H75.465C73.7377 80.2905 72.3375 81.5291 72.3375 83.0569V130.059C72.3375 131.587 73.7377 132.825 75.465 132.825H77.1C78.8273 132.825 80.2275 131.587 80.2275 130.059V83.0569C80.2275 81.5291 78.8273 80.2905 77.1 80.2905Z" fill="#CC4F00"/>
<path d="M69.9675 78.5923V85.6774L164.708 132.891L208.755 110.595V103.775" fill="#68E1FD"/>
<path d="M69.9675 78.592L114.45 54.7229L208.755 103.775L164.708 126.596L69.9675 78.592Z" fill="#F7E26B"/>
<path d="M84.975 67.8252L85.8675 77.8757C85.9311 78.6436 86.1985 79.3874 86.6481 80.0468C87.0977 80.7061 87.7167 81.2624 88.455 81.6703C92.5061 83.8436 97.1817 84.9333 101.918 84.8082C107.828 84.6822 111.375 83.0635 113.28 81.7632C114.431 80.9698 115.18 79.8061 115.365 78.5258L117 67.8252" fill="#68E1FD"/>
<path d="M87.885 70.9629C86.5725 71.1819 83.9025 71.3676 83.07 70.1469C82.7872 69.5071 82.7872 68.7966 83.07 68.1567C83.4375 67.2214 84.33 67.228 85.32 67.354C86.5125 67.5066 87.0225 65.8946 85.8225 65.742C84.4725 65.5695 83.025 65.4833 82.02 66.4584C81.6027 66.9397 81.3043 67.493 81.1441 68.0827C80.9839 68.6724 80.9655 69.2852 81.09 69.8816C81.5925 72.8271 85.86 72.9929 88.44 72.5352C89.5875 72.376 89.0775 70.7639 87.885 70.9629Z" fill="#68E1FD"/>
<path d="M120.592 65.9809C120.015 63.0951 116.483 62.7369 113.79 63.1482C112.59 63.3273 113.1 64.9394 114.293 64.7602C115.793 64.5347 117.99 64.4484 118.65 65.9743C118.898 66.5382 118.98 67.1817 118.395 67.4735C117.63 67.7964 116.771 67.903 115.935 67.7787C114.743 67.6328 114.233 69.2448 115.433 69.3908C116.883 69.6242 118.38 69.4062 119.67 68.7738C120.795 68.1568 120.802 67.0158 120.592 65.9809Z" fill="#68E1FD"/>
<path d="M100.98 75.7992C109.819 75.7992 116.985 72.2291 116.985 67.8251C116.985 63.4212 109.819 59.8511 100.98 59.8511C92.1407 59.8511 84.975 63.4212 84.975 67.8251C84.975 72.2291 92.1407 75.7992 100.98 75.7992Z" fill="#F5E3D7"/>
<path d="M100.98 73.265C108.071 73.265 113.82 70.8295 113.82 67.8251C113.82 64.8208 108.071 62.3853 100.98 62.3853C93.8887 62.3853 88.14 64.8208 88.14 67.8251C88.14 70.8295 93.8887 73.265 100.98 73.265Z" fill="#FFB70C"/>
<path d="M181.14 107.118C187.386 107.118 192.45 102.639 192.45 97.1142C192.45 91.5891 187.386 87.1101 181.14 87.1101C174.894 87.1101 169.83 91.5891 169.83 97.1142C169.83 102.639 174.894 107.118 181.14 107.118Z" fill="#CFE872"/>
<path d="M169.995 96.5703C173.662 96.6765 177.075 98.0099 178.013 101.4C178.5 103.178 178.47 105.294 178.935 106.919C179.656 107.046 180.39 107.11 181.125 107.112C181.32 107.112 181.507 107.112 181.695 107.112C181.067 106.425 180.575 105.649 180.24 104.816C179.258 102.475 179.152 99.7679 177.645 97.6118C175.732 94.8853 172.83 94.5071 170.025 95.2435C169.933 95.6819 169.873 96.1251 169.845 96.5703H169.995Z" fill="#EBFF99"/>
<path d="M175.605 103.317C175.343 100.292 173.355 99.0314 170.003 98.9385C170.313 100.425 171 101.829 172.012 103.047C173.024 104.265 174.334 105.265 175.845 105.971C175.725 105.075 175.68 104.186 175.605 103.317Z" fill="#EBFF99"/>
<path d="M184.965 92.623C187.125 93.7442 189.105 94.799 190.695 96.5703C191.324 97.267 191.851 98.0316 192.263 98.8457C192.579 97.3049 192.481 95.7196 191.974 94.2188C191.468 92.7181 190.568 91.3442 189.349 90.209C188.129 89.0738 186.623 88.2094 184.954 87.6859C183.286 87.1624 181.501 86.9947 179.745 87.1964C177.435 88.7753 183.427 91.8203 184.965 92.623Z" fill="#EBFF99"/>
<path d="M189.75 99.4693C189.074 98.3554 188.15 97.3739 187.035 96.5835C188.439 98.9899 189.071 101.69 188.865 104.392C189.349 103.998 189.793 103.567 190.192 103.105C190.519 101.884 190.363 100.601 189.75 99.4693V99.4693Z" fill="#EBFF99"/>
<path d="M185.887 105.904C187.2 101.479 184.882 96.4973 181.072 93.5252C178.735 91.8172 175.936 90.6744 172.95 90.2083C172.185 90.911 171.541 91.7089 171.037 92.5766C172.151 92.4164 173.29 92.4554 174.386 92.6913C175.482 92.9271 176.514 93.3551 177.42 93.9498C179.565 95.3496 180.667 97.4526 181.38 99.6484C182.032 101.639 182.355 105.884 185.13 106.448C185.37 106.369 185.587 106.263 185.812 106.163C185.828 106.075 185.853 105.988 185.887 105.904Z" fill="#EBFF99"/>
<path d="M175.372 113.487C179.349 113.487 182.572 110.636 182.572 107.118C182.572 103.601 179.349 100.75 175.372 100.75C171.396 100.75 168.172 103.601 168.172 107.118C168.172 110.636 171.396 113.487 175.372 113.487Z" fill="#FF1710"/>
<path d="M171.63 101.685C170.055 102.521 168.902 103.859 168.406 105.424C167.911 106.988 168.111 108.662 168.966 110.1C169.82 111.538 171.265 112.633 173.003 113.159C174.741 113.685 176.641 113.603 178.312 112.93C173.7 110.342 170.287 106.01 171.63 101.685Z" fill="#B71D1D"/>
<path d="M171.907 114.528C171.907 114.528 172.74 117.082 171.157 117.845C169.575 118.608 151.92 108.624 153.082 107.297C154.245 105.97 169.2 112.485 171.907 114.528Z" fill="#FF780B"/>
<path d="M161.355 114.356C161.355 114.356 162.187 116.91 160.605 117.673C159.022 118.436 141.375 108.445 142.5 107.118C143.625 105.792 158.647 112.306 161.355 114.356Z" fill="#FF780B"/>
<path d="M169.635 108.962C169.635 108.962 170.467 111.517 168.885 112.279C167.302 113.042 149.663 103.052 150.818 101.718C151.973 100.385 166.927 106.919 169.635 108.962Z" fill="#FF780B"/>
<path d="M142.23 98.0629L149.685 94.2019C151.292 93.3668 152.624 92.1749 153.55 90.7443C154.475 89.3136 154.962 87.6938 154.962 86.0454C154.962 84.397 154.475 82.7772 153.55 81.3465C152.624 79.9158 151.292 78.7239 149.685 77.8889L142.762 74.2867C141.178 73.4595 139.379 73.0078 137.54 72.9753C135.701 72.9427 133.883 73.3304 132.262 74.1009L124.155 77.942C122.453 78.7513 121.031 79.9535 120.039 81.4206C119.048 82.8877 118.524 84.565 118.524 86.2743C118.524 87.9835 119.048 89.6608 120.039 91.128C121.031 92.5951 122.453 93.7972 124.155 94.6065L131.737 98.2287C133.355 99.001 135.17 99.3914 137.008 99.3624C138.846 99.3333 140.645 98.8857 142.23 98.0629V98.0629Z" fill="#F7F7F7"/>
<path d="M145.77 60.1164C145.402 60.3751 145.02 60.6405 144.69 60.9125C144.96 60.5675 145.245 60.2491 145.507 59.8709C145.845 59.4132 145.012 58.9886 144.682 59.4464L144.48 59.7117H144.42C144.408 59.6512 144.381 59.5935 144.343 59.5422C144.304 59.491 144.255 59.4472 144.196 59.4137C144.138 59.3801 144.072 59.3575 144.004 59.3471C143.935 59.3368 143.865 59.3389 143.797 59.3535C143.887 59.2208 143.985 59.0881 144.067 58.9554C144.116 58.8887 144.142 58.8115 144.144 58.7323C144.146 58.6531 144.124 58.5749 144.079 58.5064C144.034 58.4378 143.968 58.3815 143.89 58.3437C143.811 58.3059 143.722 58.288 143.632 58.292C143.85 58.0001 144.075 57.7082 144.277 57.4097C144.57 56.9851 143.917 56.5805 143.527 56.8989C143.137 57.2173 142.665 57.6286 142.252 58.0001L142.297 57.9272C142.336 57.8627 142.355 57.7906 142.353 57.7177C142.351 57.6447 142.328 57.5735 142.286 57.5108C142.244 57.4482 142.184 57.3962 142.112 57.3599C142.041 57.3236 141.96 57.3042 141.877 57.3036H141.75C141.701 57.3126 141.655 57.3307 141.615 57.3566H141.57C141.545 57.3721 141.523 57.3899 141.502 57.4097V57.4097C141.465 57.3403 141.408 57.2808 141.336 57.2372C141.265 57.1936 141.181 57.1674 141.094 57.1614C141.008 57.1553 140.921 57.1696 140.842 57.2027C140.764 57.2358 140.697 57.2866 140.647 57.35L137.572 61.6687C136.59 63.0486 135.592 65.0985 134.235 66.2196C133.312 66.9826 129.48 67.5929 130.035 69.4305C130.056 69.5023 130.099 69.5678 130.158 69.6202C130.217 69.6727 130.291 69.7102 130.372 69.729L130.642 69.7755C130.402 70.0004 130.226 70.2736 130.131 70.5717C130.035 70.8698 130.023 71.1838 130.095 71.487C130.111 71.5452 130.139 71.6 130.179 71.6483C130.219 71.6965 130.27 71.7373 130.328 71.7681C130.386 71.799 130.45 71.8194 130.517 71.8281C130.584 71.8368 130.652 71.8336 130.717 71.8187C130.593 72.2879 130.55 72.7711 130.59 73.2517C130.587 73.4282 130.648 73.6009 130.766 73.7434C130.884 73.8859 131.051 73.9905 131.242 74.0411C131.427 74.0757 131.62 74.0473 131.782 73.9615C131.865 75.0959 132.39 76.0578 133.965 76.018C134.033 76.0161 134.099 76.0013 134.16 75.9747C134.221 75.948 134.274 75.9101 134.317 75.8635C134.359 75.817 134.39 75.7628 134.407 75.7048C134.424 75.6467 134.427 75.5861 134.415 75.5271C134.502 75.4582 134.558 75.364 134.572 75.2618C134.655 74.6448 134.46 74.0013 134.572 73.3976C134.842 72.0708 136.485 72.0708 137.647 72.5883C137.932 72.7143 138.397 72.5883 138.397 72.2234L138.24 71.0691C138.306 71.0201 138.355 70.9557 138.382 70.8833C139.878 66.8396 142.704 63.2824 146.497 60.667C146.932 60.3817 146.25 59.7847 145.77 60.1164Z" fill="#FFC197"/>
<path d="M158.528 50.1589C158.528 50.1589 147.488 61.0452 146.475 61.9408C146.475 61.9408 139.5 58.6238 138.48 59.1479C138.48 59.1479 155.993 36.2806 160.935 34.8543C165.878 33.428 162.84 49.0311 158.528 50.1589Z" fill="#F7F7F7"/>
<path d="M159.833 53.7545C159.833 53.7545 158.76 44.3608 158.76 43.8035C158.76 43.2463 160.163 34.8477 162.053 34.8477C163.943 34.8477 169.665 31.8358 178.148 36.0484C186.63 40.261 188.093 43.6112 188.543 46.1321C188.993 48.653 190.65 64.2561 190.65 68.5682C190.65 72.8803 176.745 73.7626 176.745 73.7626" fill="#F7F7F7"/>
<path d="M163.935 34.8543C163.935 34.8543 162.435 40.0686 162.435 43.7505C162.446 46.0723 162.697 48.3883 163.185 50.6698L171.263 53.184C171.263 53.184 170.453 36.7384 179.798 34.8543L182.048 36.5593C182.048 36.5593 176.258 36.8313 174.735 42.6692C173.822 46.3276 173.629 50.0979 174.165 53.8143L183.57 57.861L190.65 63.5132V91.4555L185.063 92.3511L163.425 81.206C163.425 81.206 163.83 67.7257 163.425 66.4719C163.02 65.2181 159.63 53.927 159.833 53.7413C160.245 52.7259 160.595 51.6918 160.883 50.6432C160.883 50.6432 159.825 37.959 162.053 34.8411L163.935 34.8543Z" fill="#68E1FD"/>
<path d="M167.43 74.227C166.732 74.6317 166.012 75.0231 165.3 75.4145C165.472 75.2553 165.667 75.1159 165.825 74.9435C165.881 74.8847 165.917 74.8136 165.93 74.7378C166.247 74.4138 166.538 74.0702 166.8 73.7095C166.858 73.6336 166.882 73.5415 166.867 73.4508L167.212 73.1987C167.273 73.1534 167.318 73.0946 167.343 73.0284C167.368 72.9623 167.372 72.8914 167.355 72.8232C167.338 72.755 167.301 72.6922 167.246 72.6415C167.192 72.5908 167.123 72.5541 167.047 72.5353C167.026 72.481 166.991 72.4319 166.944 72.392C166.897 72.3521 166.84 72.3225 166.778 72.3057C166.716 72.2889 166.65 72.2853 166.586 72.2952C166.522 72.3052 166.462 72.3283 166.41 72.3628C166.027 72.595 165.66 72.8405 165.277 73.0793C165.043 73.1309 164.814 73.202 164.595 73.2916C165.052 72.8604 165.517 72.4358 165.967 71.9648C166.015 71.9237 166.051 71.8739 166.074 71.819C166.096 71.7641 166.105 71.7054 166.1 71.6472C166.094 71.5889 166.074 71.5325 166.04 71.4819C166.007 71.4313 165.962 71.3878 165.907 71.3545V71.3545C166.365 70.9896 165.69 70.3925 165.232 70.7574L164.707 71.1886C164.687 71.1671 164.664 71.1471 164.64 71.1289L165 70.8105C165.367 70.3925 164.767 69.8087 164.325 70.2134L164.1 70.4257C164.093 70.3463 164.061 70.2704 164.006 70.2068C163.952 70.1432 163.879 70.0946 163.794 70.0667C163.71 70.0389 163.619 70.0329 163.53 70.0495C163.442 70.066 163.362 70.1045 163.297 70.1603C161.482 71.841 159.645 73.5039 157.785 75.1491C156.867 76.0481 155.863 76.876 154.785 77.6236C153.555 78.3799 152.43 78.3998 151.035 78.5988C147.563 79.0764 146.88 81.8096 147.922 84.503C147.959 84.6105 148.041 84.7014 148.151 84.7569C148.262 84.8125 148.392 84.8285 148.515 84.8016L149.092 84.6954C149.149 84.6845 149.202 84.6642 149.25 84.6357C149.542 85.5247 150.18 86.0487 151.537 85.3721C151.565 85.3568 151.59 85.339 151.612 85.319C152.16 85.9824 152.962 85.9824 153.78 85.6175C153.828 85.5958 153.871 85.5666 153.907 85.5313C153.994 85.6323 154.108 85.7117 154.24 85.7617C154.371 85.8118 154.515 85.8306 154.657 85.8166C155.197 85.7701 155.467 85.2925 155.535 84.8679C155.551 84.4004 155.478 83.9338 155.317 83.488C156.176 83.1767 156.989 82.7759 157.74 82.2939C158.797 81.5575 159.24 80.5757 160.132 79.7199C162.18 77.7297 165.465 76.4029 168 74.9501C168.427 74.6582 167.947 73.9218 167.43 74.227Z" fill="#FFC197"/>
<path d="M175.785 44.4336C175.785 44.4336 173.25 55.6583 171.975 58.365C170.7 61.0716 160.935 70.7108 160.935 70.7108C160.935 70.7108 165.953 77.2188 166.74 76.6814C172.153 71.967 177.008 66.7767 181.23 61.1911C187.83 52.5669 189.607 47.2597 187.98 44.4668C186.352 41.6739 177.75 39.8362 175.785 44.4336Z" fill="#F7F7F7"/>
<path d="M167.288 37.1629C167.288 37.1629 168.435 40.1482 168.705 40.4799C168.705 40.4799 172.628 40.7187 174.173 35.2855L173.835 31.0464" fill="#EFAF84"/>
<path d="M176.13 24.1338C176.13 24.1338 177.473 25.7458 176.88 27.3645C176.288 28.9832 175.628 29.2353 175.628 29.2353C175.628 29.2353 176.378 32.4661 173.13 33.1427C169.883 33.8194 168.233 28.0412 169.575 27.1722C170.918 26.3031 176.13 24.1338 176.13 24.1338Z" fill="#6D3421"/>
<path d="M161.917 28.3528C161.167 28.0941 162.975 38.1247 164.992 38.7217C167.01 39.3188 171.908 36.0681 172.493 35.3251C172.889 34.6385 173.119 33.886 173.167 33.116C173.167 33.116 175.185 30.6548 173.55 30.3098C173.335 30.2645 173.111 30.26 172.894 30.2966C172.676 30.3332 172.47 30.4102 172.289 30.5223C172.107 30.6345 171.955 30.7794 171.841 30.9474C171.728 31.1155 171.656 31.3029 171.63 31.4973L170.955 32.2602L170.25 28.3528C170.25 28.3528 164.602 29.3147 161.917 28.3528Z" fill="#FFC197"/>
<path d="M161.348 28.353V28.9103C161.347 29.0914 161.424 29.2661 161.563 29.399C161.702 29.532 161.893 29.6133 162.098 29.6267C164.348 29.8324 171.563 30.0646 177.098 25.5468V23.5566L166.598 25.9913" fill="#757881"/>
<path d="M158.55 23.1984C158.55 23.1984 156.915 27.5304 161.91 28.3796C163.268 28.6595 164.691 28.5604 165.983 28.0959C167.275 27.6314 168.373 26.8244 169.125 25.7857C169.125 25.7857 171.037 27.3248 175.072 25.852C179.107 24.3793 177.57 20.306 176.13 19.5365C176.13 19.5365 176.707 16.0536 171.9 15.7949C167.092 15.5362 165 17.5065 165 17.5065C165 17.5065 155.19 18.0173 158.55 23.1984Z" fill="#68E1FD"/>
<path d="M242.25 92.3311C243.585 92.2606 244.919 92.4887 246.128 92.9945C247.362 93.614 248.324 94.5841 248.858 95.7476C249.45 96.8555 249.72 98.4344 250.958 99.1509C251.443 99.3789 251.863 99.7009 252.188 100.093C252.494 100.473 252.689 100.914 252.756 101.377C252.823 101.84 252.759 102.311 252.57 102.747C252.023 103.722 249.728 104.319 248.678 104.14" fill="#8FDB5E"/>
<path d="M241.2 92.457C239.648 92.5819 238.178 93.1313 236.996 94.0289C235.813 94.9265 234.975 96.1278 234.6 97.4657C234.21 98.8177 234.192 100.233 234.548 101.592C234.848 102.687 235.575 104.584 237.09 104.664C239.13 104.776 239.79 103.085 240.435 101.698C241.08 100.312 241.755 98.7859 243.39 98.2352C244.193 97.9684 245.067 97.9154 245.904 98.0828C246.741 98.2502 247.505 98.6307 248.1 99.1773L241.2 92.457Z" fill="#1E8C0E"/>
<path d="M250.5 99.7877C249.27 98.3747 248.25 96.8356 247.05 95.396C246.379 94.4559 245.575 93.5953 244.657 92.8353C241.815 91.6146 238.245 92.7358 236.152 94.8719C236.445 94.9515 236.842 94.9648 237.06 95.0378C238.317 95.4666 239.434 96.1667 240.308 97.0744C241.56 98.3017 242.557 99.8076 243.652 101.115C245.46 103.237 247.852 104.982 250.942 103.715C252.952 102.899 251.407 100.789 250.5 99.7877Z" fill="#8FDB5E"/>
<path d="M260.55 81.6306C260.55 81.6306 266.947 81.1861 266.827 90.1287C266.707 99.0713 257.152 93.1936 259.252 87.8002" fill="#1E8C0E"/>
<path d="M259.627 90.4339C259.56 87.7139 263.017 85.7237 265.935 85.3721C265.618 84.23 264.875 83.2159 263.825 82.4936C262.776 81.7714 261.482 81.3832 260.152 81.3917C255.772 81.4913 252.495 85.4252 251.753 90.0624C251.01 94.6995 255 97.6251 255 97.6251L257.115 99.2173C261 97.8706 259.5 92.915 259.627 90.4339Z" fill="#8FDB5E"/>
<path d="M277.043 96.8357C276.944 95.1382 276.432 93.4796 275.543 91.973C275.136 91.2509 274.551 90.6192 273.83 90.1253C273.11 89.6313 272.272 89.2878 271.38 89.1204L267.78 95.2502C267.78 95.2502 273.142 86.951 270.952 93.3396C268.762 99.7281 275.992 106.899 276.952 97.3664C277.02 97.1939 277.035 97.0148 277.043 96.8357Z" fill="#1E8C0E"/>
<path d="M251.603 112.804C251.603 112.804 246.787 115.57 248.13 122.051C248.602 124.296 249.318 126.496 250.268 128.619C251.198 130.722 251.887 133.449 254.287 134.636C256.537 135.744 259.988 135.963 262.245 134.729C264.308 133.614 265.043 131.08 265.8 129.196C266.702 126.877 267.321 124.48 267.645 122.045C269.91 106.388 251.603 112.804 251.603 112.804Z" fill="#68E1FD"/>
<path d="M258.082 116.001C261.96 116.001 265.103 114.994 265.103 113.752C265.103 112.51 261.96 111.503 258.082 111.503C254.205 111.503 251.062 112.51 251.062 113.752C251.062 114.994 254.205 116.001 258.082 116.001Z" fill="#68E1FD"/>
<path d="M258.653 101.784C257.67 99.6881 255.84 97.9301 255.263 95.6878C254.899 94.169 255.045 92.5892 255.683 91.1429C256.322 89.6966 257.424 88.447 258.855 87.5479C259.388 87.2029 258.855 86.4069 258.33 86.7518C253.83 89.6376 252.975 94.56 255.593 98.7527C256.403 100.08 257.46 101.3 257.955 102.733C258.6 104.604 257.88 105.951 256.89 107.377C256.946 105.991 256.386 104.641 255.33 103.615C254.168 102.66 252.443 102.501 250.995 102.07C248.198 101.234 245.745 99.8208 245.265 97.0677C245.167 96.4839 244.163 96.736 244.268 97.3131C244.658 99.5687 246.33 101.181 248.588 102.202C249.939 102.707 251.33 103.124 252.75 103.45C253.366 103.659 253.928 103.978 254.4 104.386C254.872 104.795 255.245 105.284 255.495 105.825C256.155 107.151 255.705 108.1 255.338 109.414C254.85 111.112 254.085 112.578 255.405 114.183C255.795 114.654 256.695 114.183 256.305 113.719C254.198 111.152 257.565 108.71 258.698 106.508C259.074 105.764 259.264 104.957 259.257 104.142C259.249 103.327 259.043 102.523 258.653 101.784V101.784Z" fill="#1E8C0E"/>
<path d="M271.598 96.159C267.165 95.4956 264.143 98.5074 264.405 102.302C264.497 103.255 264.695 104.197 264.997 105.115C265.2 105.778 265.747 106.899 265.582 107.556C265.437 108.148 265.13 108.699 264.688 109.162C264.246 109.624 263.683 109.984 263.048 110.21C261.12 111.012 259.883 111.981 259.298 113.845C259.261 113.962 259.278 114.087 259.345 114.193C259.413 114.299 259.525 114.377 259.657 114.409C259.79 114.442 259.931 114.426 260.051 114.367C260.17 114.307 260.258 114.208 260.295 114.091C261.323 110.774 266.573 111.245 266.61 107.589C266.61 105.805 265.553 104.126 265.433 102.335C265.215 99.2106 267.525 96.484 271.313 97.0744C271.973 97.1474 272.25 96.2651 271.598 96.159Z" fill="#1E8C0E"/>
<path d="M275.565 91.9729C273.848 89.1667 270.72 88.5099 267.66 89.3193C267.237 89.4713 266.826 89.6487 266.43 89.85C258.728 94.8985 264.18 106.296 265.38 106.209C269.303 105.924 268.898 103.881 270.21 98.169C270.435 96.8797 271.18 95.7061 272.308 94.8657C273.436 94.0252 274.87 93.5749 276.345 93.5982C276.139 93.0373 275.878 92.4935 275.565 91.9729V91.9729Z" fill="#8FDB5E"/>
<path d="M273.877 90.1154C272.593 89.9376 271.278 90.1088 270.107 90.6063C268.935 91.1039 267.961 91.9043 267.315 92.9017C264.502 97.0678 265.147 101.924 265.522 106.515C265.567 107.098 266.61 107.105 266.557 106.515C266.287 103.198 265.755 99.8806 266.775 96.6433C267.277 95.0445 267.877 93.2599 269.325 92.1189C270.104 91.5083 271.069 91.1132 272.099 90.9823C273.129 90.8515 274.181 90.9906 275.122 91.3825L274.732 90.9115C274.44 90.6528 274.155 90.3874 273.877 90.1154Z" fill="#1E8C0E"/>
<path d="M96.405 45.3624C95.1975 44.7852 93.495 44.4602 92.745 43.3722C91.665 41.7535 94.0875 40.7186 95.43 40.2476C96.4575 39.8894 96.0075 38.3967 94.965 38.7616C93.465 39.279 91.965 39.896 91.1625 41.2029C90.8284 41.7725 90.7058 42.4208 90.8122 43.0556C90.9186 43.6904 91.2485 44.2794 91.755 44.7388C92.97 45.9263 94.755 46.1518 96.18 47.0607C96.885 47.5184 97.59 48.288 97.155 49.0841C96.72 49.8801 95.655 50.1256 94.7775 50.318C91.89 50.9482 88.1325 51.9765 88.1475 55.2271C88.1717 55.8598 88.3851 56.4755 88.7658 57.0116C89.1466 57.5476 89.6811 57.9849 90.315 58.2788C91.9275 59.0815 93.81 59.0019 95.565 58.8692C96.675 58.7829 96.6825 57.2439 95.565 57.3301C93.9675 57.4495 92.0925 57.6419 90.75 56.6999C89.4075 55.7579 89.73 54.3846 90.75 53.436C92.775 51.5718 96.315 52.3679 98.25 50.3777C100.028 48.5069 98.4225 46.3243 96.405 45.3624Z" fill="#FFB70C"/>
<path d="M108.443 47.638C107.633 47.2533 106.493 47.0344 105.99 46.3113C105.24 45.2299 106.89 44.5333 107.783 44.2149C108.473 43.9761 108.173 42.9744 107.475 43.2198C106.429 43.4762 105.524 44.0582 104.925 44.8584C104.701 45.24 104.619 45.6743 104.69 46.0995C104.762 46.5247 104.983 46.9191 105.322 47.2267C106.132 48.0228 107.34 48.1754 108.322 48.7791C108.795 49.0843 109.268 49.6017 108.975 50.1059C108.786 50.3367 108.543 50.5281 108.262 50.6668C107.981 50.8055 107.669 50.888 107.348 50.9086C105.413 51.3332 102.9 52.0165 102.908 54.2256C102.924 54.6495 103.068 55.0619 103.324 55.4208C103.579 55.7797 103.938 56.0723 104.363 56.2689C105.468 56.7124 106.7 56.8489 107.895 56.6603C108.645 56.6072 108.645 55.5723 107.895 55.632C106.823 55.7116 105.57 55.8377 104.67 55.2074C104.49 55.0735 104.346 54.9065 104.246 54.718C104.147 54.5295 104.096 54.3241 104.096 54.1161C104.096 53.9082 104.147 53.7028 104.246 53.5143C104.346 53.3258 104.49 53.1587 104.67 53.0248C106.028 51.7777 108.42 52.3084 109.68 50.9749C110.865 49.7477 109.793 48.255 108.443 47.638Z" fill="#FFB70C"/>
<path d="M138.255 77.491C138.056 77.491 137.865 77.5609 137.725 77.6853C137.584 77.8097 137.505 77.9784 137.505 78.1544C137.505 78.3303 137.584 78.499 137.725 78.6235C137.865 78.7479 138.056 78.8178 138.255 78.8178C138.454 78.8178 138.645 78.7479 138.785 78.6235C138.926 78.499 139.005 78.3303 139.005 78.1544C139.005 77.9784 138.926 77.8097 138.785 77.6853C138.645 77.5609 138.454 77.491 138.255 77.491Z" fill="#FFB70C"/>
<path d="M128.693 81.166C128.494 81.166 128.303 81.2359 128.162 81.3603C128.022 81.4847 127.942 81.6535 127.942 81.8294C127.942 82.0054 128.022 82.1741 128.162 82.2985C128.303 82.4229 128.494 82.4928 128.693 82.4928C128.891 82.4928 129.082 82.4229 129.223 82.2985C129.363 82.1741 129.443 82.0054 129.443 81.8294C129.443 81.6535 129.363 81.4847 129.223 81.3603C129.082 81.2359 128.891 81.166 128.693 81.166Z" fill="#FFB70C"/>
<path d="M144.075 89.9958C143.876 89.9958 143.685 90.0657 143.545 90.1902C143.404 90.3146 143.325 90.4833 143.325 90.6592C143.325 90.8352 143.404 91.0039 143.545 91.1283C143.685 91.2528 143.876 91.3226 144.075 91.3226C144.274 91.3226 144.465 91.2528 144.605 91.1283C144.746 91.0039 144.825 90.8352 144.825 90.6592C144.825 90.4833 144.746 90.3146 144.605 90.1902C144.465 90.0657 144.274 89.9958 144.075 89.9958Z" fill="#FFB70C"/>
<path d="M138.465 83.74C138.266 83.74 138.075 83.8099 137.935 83.9343C137.794 84.0587 137.715 84.2274 137.715 84.4034C137.715 84.5793 137.794 84.7481 137.935 84.8725C138.075 84.9969 138.266 85.0668 138.465 85.0668C138.664 85.0668 138.855 84.9969 138.995 84.8725C139.136 84.7481 139.215 84.5793 139.215 84.4034C139.215 84.2274 139.136 84.0587 138.995 83.9343C138.855 83.8099 138.664 83.74 138.465 83.74Z" fill="#FFB70C"/>
<path d="M130.35 90.3608C130.151 90.3608 129.96 90.4307 129.82 90.5551C129.679 90.6796 129.6 90.8483 129.6 91.0242C129.6 91.2002 129.679 91.3689 129.82 91.4933C129.96 91.6177 130.151 91.6876 130.35 91.6876C130.549 91.6876 130.74 91.6177 130.88 91.4933C131.021 91.3689 131.1 91.2002 131.1 91.0242C131.1 90.8483 131.021 90.6796 130.88 90.5551C130.74 90.4307 130.549 90.3608 130.35 90.3608Z" fill="#FFB70C"/>
<path d="M125.153 87.2361C124.954 87.2361 124.763 87.306 124.622 87.4304C124.482 87.5548 124.403 87.7235 124.403 87.8995C124.403 88.0754 124.482 88.2442 124.622 88.3686C124.763 88.493 124.954 88.5629 125.153 88.5629C125.351 88.5629 125.542 88.493 125.683 88.3686C125.823 88.2442 125.903 88.0754 125.903 87.8995C125.903 87.7235 125.823 87.5548 125.683 87.4304C125.542 87.306 125.351 87.2361 125.153 87.2361Z" fill="#FFB70C"/>
<path d="M138.667 94.4075C138.469 94.4075 138.278 94.4774 138.137 94.6018C137.997 94.7262 137.917 94.8949 137.917 95.0709C137.917 95.2468 137.997 95.4155 138.137 95.54C138.278 95.6644 138.469 95.7343 138.667 95.7343C138.866 95.7343 139.057 95.6644 139.198 95.54C139.338 95.4155 139.417 95.2468 139.417 95.0709C139.417 94.8949 139.338 94.7262 139.198 94.6018C139.057 94.4774 138.866 94.4075 138.667 94.4075Z" fill="#FFB70C"/>
<path d="M147.607 87.0505C147.409 87.0505 147.218 87.1204 147.077 87.2448C146.937 87.3693 146.857 87.538 146.857 87.7139C146.857 87.8899 146.937 88.0586 147.077 88.183C147.218 88.3074 147.409 88.3773 147.607 88.3773C147.806 88.3773 147.997 88.3074 148.138 88.183C148.278 88.0586 148.357 87.8899 148.357 87.7139C148.357 87.538 148.278 87.3693 148.138 87.2448C147.997 87.1204 147.806 87.0505 147.607 87.0505Z" fill="#FFB70C"/>
<path d="M138.255 88.1582C138.056 88.1582 137.865 88.2281 137.725 88.3525C137.584 88.4769 137.505 88.6457 137.505 88.8216C137.505 88.9976 137.584 89.1663 137.725 89.2907C137.865 89.4151 138.056 89.485 138.255 89.485C138.454 89.485 138.645 89.4151 138.785 89.2907C138.926 89.1663 139.005 88.9976 139.005 88.8216C139.005 88.6457 138.926 88.4769 138.785 88.3525C138.645 88.2281 138.454 88.1582 138.255 88.1582Z" fill="#FFB70C"/>
<path d="M145.32 79.8792C145.121 79.8792 144.93 79.949 144.79 80.0735C144.649 80.1979 144.57 80.3666 144.57 80.5425C144.57 80.7185 144.649 80.8872 144.79 81.0116C144.93 81.1361 145.121 81.2059 145.32 81.2059C145.519 81.2059 145.71 81.1361 145.85 81.0116C145.991 80.8872 146.07 80.7185 146.07 80.5425C146.07 80.3666 145.991 80.1979 145.85 80.0735C145.71 79.949 145.519 79.8792 145.32 79.8792Z" fill="#FFB70C"/>
<defs>
<linearGradient id="paint0_linear_223:491" x1="242.903" y1="142.179" x2="250.816" y2="128.678" gradientUnits="userSpaceOnUse">
<stop offset="0.02" stop-color="#FF8D73" stop-opacity="0"/>
<stop offset="1" stop-color="#FF836A"/>
</linearGradient>
<linearGradient id="paint1_linear_223:491" x1="23731" y1="17660.2" x2="25030" y2="13742.3" gradientUnits="userSpaceOnUse">
<stop offset="0.02" stop-color="#FF8D73" stop-opacity="0"/>
<stop offset="1" stop-color="#FF836A"/>
</linearGradient>
</defs>
</svg>
