<svg width="437" height="329" viewBox="0 0 437 329" fill="none" xmlns="http://www.w3.org/2000/svg">
<g clip-path="url(#clip0_109:1177)">
<path opacity="0.18" d="M197.898 4.48355C154.193 14.7366 115.756 40.6101 89.835 77.2238C80.0062 91.1871 72.1431 106.601 60.4904 119.048C53.512 126.51 45.2011 132.87 39.6424 141.411C31.3315 154.153 30.0319 170.2 30.709 185.385C32.3909 223.293 45.4632 261.409 71.2257 289.303C96.9882 317.197 136.118 333.614 173.664 327.865C198.782 324.015 221.651 310.957 246.419 305.055C265.771 300.441 286.073 300.31 305.698 303.55C326.317 306.953 347.798 313.968 367.511 307.051C390.772 298.881 403.79 273.234 405.985 248.7C408.18 224.166 401.999 199.796 398.777 175.382C394.802 145.219 395.261 114.216 386.371 85.1218C364.213 12.5888 264.504 -10.8652 197.898 4.48355Z" fill="#E0607E"/>
<path d="M222.918 266.547C288.896 266.547 342.382 242.043 342.382 211.817C342.382 181.591 288.896 157.087 222.918 157.087C156.939 157.087 103.453 181.591 103.453 211.817C103.453 242.043 156.939 266.547 222.918 266.547Z" fill="url(#paint0_linear_109:1177)"/>
<path d="M223.944 257.94C289.922 257.94 343.408 233.436 343.408 203.21C343.408 172.984 289.922 148.48 223.944 148.48C157.966 148.48 104.48 172.984 104.48 203.21C104.48 233.436 157.966 257.94 223.944 257.94Z" fill="#E0607E"/>
<path d="M223.944 257.94C289.922 257.94 343.408 233.436 343.408 203.21C343.408 172.984 289.922 148.48 223.944 148.48C157.966 148.48 104.48 172.984 104.48 203.21C104.48 233.436 157.966 257.94 223.944 257.94Z" fill="url(#paint1_linear_109:1177)"/>
<path d="M223.944 251.034C289.922 251.034 343.408 226.531 343.408 196.305C343.408 166.078 289.922 141.575 223.944 141.575C157.966 141.575 104.48 166.078 104.48 196.305C104.48 226.531 157.966 251.034 223.944 251.034Z" fill="white"/>
<path d="M152.423 196.185C151.669 198.792 149.365 200.548 147.443 202.479C145.521 204.41 143.784 207.039 144.56 209.635C145.335 212.232 148.011 213.377 150.479 214.173C156.857 216.235 163.737 217.206 169.361 220.839C173.042 223.206 175.914 226.566 179.441 229.206C190.93 237.933 207.028 237.551 220.941 233.7C234.854 229.849 247.784 222.955 261.807 219.606C274.453 216.573 288.083 216.333 299.451 210.083C304.693 207.181 309.182 203.112 313.594 199.065C314.763 198.126 315.736 196.965 316.455 195.65C317.547 193.239 316.914 190.359 315.669 188.014C312.677 182.331 306.692 178.709 300.478 177.105C294.264 175.502 287.744 175.622 281.323 175.763L167.002 178.251C162.186 178.36 149.671 174.814 146.558 180.007C143.446 185.2 154.367 189.498 152.423 196.185Z" fill="url(#paint2_linear_109:1177)"/>
<path d="M140.497 175.371C142.681 178.262 146.296 179.603 149.441 181.414C159.27 187.054 164.873 197.592 171.283 206.875C177.515 215.886 184.853 224.08 193.125 231.268C195.08 232.958 197.188 234.649 199.678 235.14C201.648 235.394 203.649 235.276 205.575 234.791C220.417 231.999 235.313 229.206 249.641 224.461C262.746 220.097 275.174 214.261 287.602 208.392C293.805 205.468 300.631 201.846 302.673 195.301C304.18 190.447 302.618 185.243 301.068 180.411C278.614 179.058 258.017 168.171 236.492 161.658C212.226 154.317 186.616 152.538 161.269 152.582C155.721 152.582 144.593 152.048 140.847 157.207C137.778 161.538 137.297 171.138 140.497 175.371Z" fill="#E0607E"/>
<path d="M140.497 175.371C142.681 178.262 146.296 179.603 149.441 181.414C159.27 187.054 164.873 197.592 171.283 206.875C177.515 215.886 184.853 224.08 193.125 231.268C195.08 232.958 197.188 234.649 199.678 235.14C201.648 235.394 203.649 235.276 205.575 234.791C220.417 231.999 235.313 229.206 249.641 224.461C262.746 220.097 275.174 214.261 287.602 208.392C293.805 205.468 300.631 201.846 302.673 195.301C304.18 190.447 302.618 185.243 301.068 180.411C278.614 179.058 258.017 168.171 236.492 161.658C212.226 154.317 186.616 152.538 161.269 152.582C155.721 152.582 144.593 152.048 140.847 157.207C137.778 161.538 137.297 171.138 140.497 175.371Z" fill="url(#paint3_linear_109:1177)"/>
<path d="M146.668 153.346C144.374 154.437 141.993 155.833 140.989 158.167C139.591 161.44 141.502 165.247 144.265 167.407C147.028 169.567 150.544 170.549 153.777 171.934C162.831 175.796 170.082 182.963 176.034 190.796C181.986 198.628 186.824 207.235 192.546 215.232C194.337 217.741 196.292 220.261 199.001 221.777C202.441 223.653 206.569 223.588 210.489 223.479C215.491 223.337 220.591 223.173 225.32 221.515C229.59 220.021 233.347 217.37 237.158 214.97C256.314 202.785 278.221 195.574 297.846 184.163C298.938 183.541 300.096 182.756 300.325 181.534C300.349 180.925 300.243 180.318 300.013 179.754C299.783 179.19 299.435 178.681 298.993 178.261C294.275 172.545 288.181 168.149 282.153 163.818L240.402 133.786C237.783 131.696 234.863 130.011 231.742 128.79C228.128 127.777 224.348 127.496 220.624 127.961C206.569 129.052 193.06 133.557 180.151 139.022C169.088 143.626 157.479 148.12 146.668 153.346Z" fill="#E0607E"/>
<path d="M148.961 154.044C146.777 155.135 144.44 156.455 143.5 158.702C142.146 161.844 144.003 165.564 146.7 167.658C149.398 169.753 152.772 170.702 155.918 172.022C164.654 175.763 171.709 182.712 177.476 190.305C183.242 197.897 187.938 206.243 193.398 213.999C195.135 216.421 197.024 218.864 199.645 220.304C202.976 222.115 206.984 222.061 210.773 221.951C215.622 221.81 220.602 221.657 225.145 220.053C229.284 218.602 232.921 216.039 236.623 213.683C255.189 201.879 276.397 194.887 295.411 183.836C296.448 183.225 297.595 182.472 297.813 181.283C297.837 180.69 297.733 180.099 297.509 179.55C297.285 179.001 296.945 178.505 296.514 178.098C291.949 172.556 286.041 168.28 280.209 164.102L239.801 135.008C237.265 132.981 234.438 131.348 231.414 130.164C227.911 129.179 224.245 128.908 220.635 129.368C207.028 130.459 193.933 134.822 181.429 140.08C170.694 144.629 159.445 148.982 148.961 154.044Z" fill="url(#paint4_linear_109:1177)"/>
<path d="M140.497 155.091C142.681 157.993 146.296 159.335 149.441 161.146C159.27 166.785 164.873 177.312 171.283 186.607C177.515 195.617 184.853 203.811 193.125 210.999C195.08 212.69 197.188 214.381 199.678 214.872C201.648 215.12 203.648 215.002 205.575 214.523C220.417 211.73 235.313 208.926 249.641 204.192C262.746 199.828 275.174 193.992 287.602 188.123C293.805 185.189 300.631 181.578 302.673 175.033C304.18 170.189 302.618 164.985 301.068 160.153C278.614 158.8 258.017 147.913 236.492 141.401C212.226 134.059 186.616 132.281 161.269 132.313C155.721 132.313 144.593 131.79 140.847 136.95C137.778 141.27 137.297 150.859 140.497 155.091Z" fill="#E0607E"/>
<path d="M140.497 155.091C142.681 157.993 146.296 159.335 149.441 161.146C159.27 166.785 164.873 177.312 171.283 186.607C177.515 195.617 184.853 203.811 193.125 210.999C195.08 212.69 197.188 214.381 199.678 214.872C201.648 215.12 203.648 215.002 205.575 214.523C220.417 211.73 235.313 208.926 249.641 204.192C262.746 199.828 275.174 193.992 287.602 188.123C293.805 185.189 300.631 181.578 302.673 175.033C304.18 170.189 302.618 164.985 301.068 160.153C278.614 158.8 258.017 147.913 236.492 141.401C212.226 134.059 186.616 132.281 161.269 132.313C155.721 132.313 144.593 131.79 140.847 136.95C137.778 141.27 137.297 150.859 140.497 155.091Z" fill="url(#paint5_linear_109:1177)"/>
<path d="M146.668 133.077C144.374 134.168 141.993 135.564 140.989 137.888C139.591 141.161 141.502 144.968 144.265 147.128C147.028 149.288 150.544 150.269 153.777 151.655C162.831 155.527 170.082 162.695 176.034 170.527C181.986 178.36 186.846 186.978 192.568 194.963C194.359 197.472 196.314 199.992 199.022 201.508C202.463 203.385 206.591 203.33 210.511 203.221C215.513 203.079 220.613 202.916 225.342 201.257C229.612 199.763 233.369 197.112 237.18 194.712C256.336 182.527 278.243 175.316 297.868 163.905C298.96 163.273 300.118 162.498 300.347 161.266C300.371 160.657 300.265 160.05 300.035 159.485C299.805 158.921 299.457 158.412 299.015 157.993C294.297 152.277 288.203 147.88 282.174 143.55L240.424 113.507C237.804 111.419 234.885 109.739 231.763 108.521C228.151 107.504 224.37 107.222 220.646 107.692C206.591 108.783 193.082 113.277 180.173 118.754C169.088 123.357 157.479 127.852 146.668 133.077Z" fill="#E0607E"/>
<path d="M148.961 133.764C146.777 134.855 144.44 136.175 143.5 138.433C142.146 141.564 144.003 145.295 146.7 147.39C149.398 149.484 152.772 150.433 155.918 151.753C164.654 155.495 171.709 162.444 177.475 170.025C183.242 177.607 187.927 185.952 193.475 193.698C195.211 196.13 197.1 198.574 199.721 200.003C203.052 201.825 207.06 201.77 210.85 201.661C215.699 201.519 220.679 201.366 225.222 199.763C229.361 198.312 232.998 195.738 236.7 193.381C255.265 181.578 276.474 174.596 295.487 163.546C296.525 162.935 297.671 162.171 297.89 160.982C297.913 160.391 297.809 159.801 297.585 159.254C297.361 158.706 297.022 158.213 296.59 157.807C292.025 152.266 286.117 147.989 280.285 143.811L239.878 114.707C237.339 112.687 234.512 111.058 231.49 109.874C227.987 108.89 224.322 108.616 220.711 109.067C207.104 110.158 194.01 114.521 181.505 119.779C170.694 124.35 159.445 128.703 148.961 133.764Z" fill="url(#paint6_linear_109:1177)"/>
<path d="M140.268 139.622C142.649 142.361 146.351 143.451 149.616 145.077C159.762 150.019 166.129 160.142 173.184 168.945C180.031 177.485 187.923 185.133 196.675 191.712C198.739 193.261 200.966 194.799 203.533 195.116C205.511 195.236 207.495 194.977 209.376 194.352C223.988 190.545 238.655 186.716 252.622 180.978C265.345 175.763 277.369 168.978 289.36 162.302C295.345 158.942 301.898 154.862 303.481 148.197C304.65 143.255 302.728 138.172 300.838 133.459C278.352 133.677 257.035 124.252 235.105 119.277C210.391 113.648 184.727 113.659 159.434 115.47C153.897 115.863 142.769 116.103 139.394 121.514C136.609 126.019 136.773 135.63 140.268 139.622Z" fill="#E0607E"/>
<path d="M140.268 139.622C142.649 142.361 146.351 143.451 149.616 145.077C159.762 150.019 166.129 160.142 173.184 168.945C180.031 177.485 187.923 185.133 196.675 191.712C198.739 193.261 200.966 194.799 203.533 195.116C205.511 195.236 207.495 194.977 209.376 194.352C223.988 190.545 238.655 186.716 252.622 180.978C265.345 175.763 277.369 168.978 289.36 162.302C295.345 158.942 301.898 154.862 303.481 148.197C304.65 143.255 302.728 138.172 300.838 133.459C278.352 133.677 257.035 124.252 235.105 119.277C210.391 113.648 184.727 113.659 159.434 115.47C153.897 115.863 142.769 116.103 139.394 121.514C136.609 126.019 136.773 135.63 140.268 139.622Z" fill="url(#paint7_linear_109:1177)"/>
<path d="M144.877 117.226C142.692 118.492 140.388 120.041 139.547 122.43C138.389 125.703 140.563 129.455 143.49 131.419C146.416 133.383 149.966 134.113 153.318 135.27C162.612 138.542 170.355 145.142 176.831 152.538C183.307 159.935 188.757 168.182 195.015 175.763C196.98 178.142 199.11 180.509 201.917 181.796C205.477 183.432 209.561 183.083 213.493 182.701C218.473 182.211 223.551 181.698 228.149 179.712C232.31 177.923 235.859 175.011 239.506 172.327C257.755 158.833 279.106 150.106 297.879 137.353C298.971 136.655 300.063 135.793 300.172 134.55C300.154 133.938 300.005 133.338 299.736 132.789C299.466 132.239 299.083 131.754 298.611 131.364C293.499 125.997 287.111 122.037 280.809 118.132L237.082 91.0889C234.329 89.1868 231.302 87.7153 228.105 86.7254C224.423 85.9724 220.626 85.9724 216.944 86.7254C203.009 88.8308 189.838 94.2197 177.355 100.58C166.576 105.969 155.295 111.259 144.877 117.226Z" fill="#E0607E"/>
<path d="M147.225 117.761C145.04 118.983 142.856 120.477 142.059 122.801C140.967 126.074 143.042 129.608 145.881 131.528C148.721 133.448 152.15 134.135 155.382 135.259C164.381 138.379 171.884 144.826 178.164 151.993C184.443 159.16 189.707 167.145 195.779 174.487C197.679 176.789 199.743 179.091 202.463 180.334C205.903 181.927 209.889 181.578 213.667 181.207C218.495 180.738 223.42 180.236 227.865 178.316C231.895 176.582 235.335 173.767 238.862 171.16C256.543 158.069 277.238 149.637 295.422 137.277C296.415 136.601 297.508 135.761 297.606 134.561C297.59 133.97 297.447 133.39 297.187 132.859C296.927 132.328 296.556 131.859 296.099 131.484C291.141 126.27 284.959 122.441 278.844 118.656L236.459 92.4743C233.776 90.6338 230.831 89.207 227.723 88.2417C224.155 87.5162 220.478 87.5162 216.911 88.2417C203.413 90.2816 190.701 95.507 178.557 101.66C168.28 106.852 157.359 111.979 147.225 117.761Z" fill="url(#paint8_linear_109:1177)"/>
<path d="M189.095 171.476C189.652 168.302 189.816 165.062 190.679 161.953C191.542 158.844 193.256 155.811 196.139 154.251C197.974 155.567 200.197 156.228 202.453 156.129C204.709 156.03 206.866 155.177 208.578 153.706C206.143 150.64 201.578 149.899 197.854 151.12C194.13 152.342 191.149 155.146 188.669 158.167C184.678 163.194 181.451 168.781 179.092 174.749C177.039 179.669 173.5 186.41 174.035 191.898C174.756 199.119 179.955 194.701 181.942 190.807C184.967 184.621 187.938 178.251 189.095 171.476Z" fill="url(#paint9_linear_109:1177)"/>
<path d="M164.873 190.61C165.277 192.978 166.216 195.781 168.575 196.25C170.639 196.665 172.485 194.963 173.828 193.327C179.941 185.897 184.147 177.09 186.081 167.669C186.846 163.905 187.283 159.956 189.292 156.695C191.301 153.433 195.528 151.109 199.023 152.702C200.65 153.433 201.851 154.884 203.391 155.844C209.288 159.607 216.856 154.884 221.88 150.029C222.784 149.014 223.903 148.212 225.156 147.684C227.34 146.953 229.667 147.989 231.709 149.113C235.793 151.415 239.659 154.197 244.06 155.844C248.462 157.491 253.682 157.797 257.624 155.255C260.693 153.269 262.746 149.713 266.219 148.546C270.402 147.139 275.065 149.92 277.249 153.749C279.433 157.578 279.772 162.138 280.045 166.535L281.574 191.145C284.26 191.756 287.034 189.792 288.192 187.316C289.35 184.84 289.404 181.981 289.404 179.232V166.142C289.404 157.982 289.35 149.582 286.237 142.033C283.125 134.484 276.146 127.939 267.977 127.852L276.113 123.695C276.801 119.397 273.143 115.394 269.004 113.987C264.865 112.579 260.376 113.07 256.019 113.234C247.672 113.557 239.322 112.671 231.228 110.605C231.108 103.361 228.072 95.9979 222.328 91.5689C216.583 87.1399 208.131 86.1908 201.982 90.0962C193.387 95.5506 191.542 108.314 182.674 113.354C172.758 118.983 161.203 111.379 151.309 115.448C136.697 121.448 158.418 127.557 162.568 131.168C168.728 136.546 167.57 144.4 166.358 151.677C164.054 164.876 162.568 177.291 164.873 190.61Z" fill="#E0607E"/>
<path d="M164.873 190.61C165.277 192.978 166.216 195.781 168.575 196.25C170.639 196.665 172.485 194.963 173.828 193.327C179.941 185.897 184.147 177.09 186.081 167.669C186.846 163.905 187.283 159.956 189.292 156.695C191.301 153.433 195.528 151.109 199.023 152.702C200.65 153.433 201.851 154.884 203.391 155.844C209.288 159.607 216.856 154.884 221.88 150.029C222.784 149.014 223.903 148.212 225.156 147.684C227.34 146.953 229.667 147.989 231.709 149.113C235.793 151.415 239.659 154.197 244.06 155.844C248.462 157.491 253.682 157.797 257.624 155.255C260.693 153.269 262.746 149.713 266.219 148.546C270.402 147.139 275.065 149.92 277.249 153.749C279.433 157.578 279.772 162.138 280.045 166.535L281.574 191.145C284.26 191.756 287.034 189.792 288.192 187.316C289.35 184.84 289.404 181.981 289.404 179.232V166.142C289.404 157.982 289.35 149.582 286.237 142.033C283.125 134.484 276.146 127.939 267.977 127.852L276.113 123.695C276.801 119.397 273.143 115.394 269.004 113.987C264.865 112.579 260.376 113.07 256.019 113.234C247.672 113.557 239.322 112.671 231.228 110.605C231.108 103.361 228.072 95.9979 222.328 91.5689C216.583 87.1399 208.131 86.1908 201.982 90.0962C193.387 95.5506 191.542 108.314 182.674 113.354C172.758 118.983 161.203 111.379 151.309 115.448C136.697 121.448 158.418 127.557 162.568 131.168C168.728 136.546 167.57 144.4 166.358 151.677C164.054 164.876 162.568 177.291 164.873 190.61Z" fill="#E0607E"/>
<path d="M186.911 113.07C185.673 113.802 184.566 114.735 183.635 115.83C183.176 116.381 182.861 117.037 182.716 117.739C182.571 118.441 182.602 119.168 182.805 119.856C183.267 120.879 184.029 121.738 184.989 122.321C188.608 124.85 192.976 126.084 197.384 125.823C198.149 127.361 197.57 129.313 198.335 130.852C199.036 131.959 200.073 132.815 201.294 133.295C204.766 135.183 208.526 136.488 212.423 137.157C216.351 137.813 220.386 137.072 223.824 135.062C225.812 133.797 227.439 132.03 229.361 130.699C230.726 129.728 232.342 128.844 232.888 127.263C233.751 124.765 231.381 122.288 228.946 121.241C225.276 119.648 221.061 119.648 217.392 118.056C214.694 116.899 212.423 114.947 209.812 113.627C204.428 110.921 198.061 111.107 192.088 111.903" fill="url(#paint10_linear_109:1177)"/>
<path d="M150.14 118.252C149.903 118.794 149.833 119.395 149.938 119.978C150.043 120.56 150.318 121.099 150.73 121.525C151.586 122.361 152.605 123.015 153.722 123.445L161.771 127.175C162.885 127.614 163.909 128.249 164.796 129.052C165.971 130.516 166.648 132.315 166.729 134.19C167.974 144.008 165.79 153.826 164.316 163.644C162.841 173.462 162.132 183.781 166.216 192.814C166.598 193.665 167.308 194.647 168.193 194.505C168.573 194.414 168.923 194.226 169.208 193.959C172.05 191.632 174.444 188.808 176.274 185.625C172.594 182.276 172.157 176.734 172.201 171.76C172.289 161.586 173.335 151.444 175.324 141.466C176.143 137.332 177.093 132.859 175.324 129.019C174.592 127.448 173.577 126.106 173.238 124.372C172.856 122.419 173.162 120.87 172.015 119.103C171.484 118.174 170.726 117.395 169.81 116.84C168.895 116.285 167.854 115.971 166.784 115.928C164.414 115.841 162.022 116.616 159.653 116.736C157.283 116.856 151.637 115.645 150.14 118.252Z" fill="url(#paint11_linear_109:1177)"/>
<path d="M210.413 111.074C210.413 114.303 209.129 117.399 206.843 119.682C204.558 121.966 201.458 123.248 198.225 123.248C197.08 123.25 195.94 123.089 194.84 122.768C192.909 122.211 191.145 121.185 189.707 119.782C188.269 118.379 187.2 116.643 186.597 114.727C185.993 112.812 185.873 110.777 186.248 108.804C186.622 106.832 187.479 104.982 188.743 103.42C190.006 101.858 191.637 100.633 193.489 99.8533C195.342 99.0735 197.359 98.7636 199.36 98.9511C201.362 99.1386 203.286 99.8177 204.961 100.928C206.636 102.038 208.01 103.545 208.961 105.314C209.918 107.083 210.417 109.063 210.413 111.074Z" fill="#E0607E"/>
<path d="M210.413 111.074C210.413 114.303 209.129 117.399 206.843 119.682C204.558 121.966 201.458 123.248 198.225 123.248C197.08 123.25 195.94 123.089 194.84 122.768C193.705 120.657 193.22 118.259 193.444 115.873C193.668 113.488 194.591 111.222 196.099 109.358C197.606 107.495 199.631 106.117 201.919 105.398C204.207 104.678 206.656 104.649 208.961 105.314C209.918 107.083 210.417 109.063 210.413 111.074Z" fill="url(#paint12_linear_109:1177)"/>
<path d="M227.635 122.386C227.643 123.99 227.333 125.579 226.723 127.062C226.114 128.545 225.217 129.894 224.085 131.03C222.953 132.166 221.607 133.068 220.124 133.683C218.642 134.299 217.053 134.615 215.448 134.615C214.302 134.617 213.162 134.456 212.062 134.135C210.131 133.578 208.368 132.552 206.929 131.149C205.491 129.746 204.423 128.01 203.819 126.094C203.216 124.179 203.096 122.144 203.47 120.171C203.844 118.199 204.702 116.349 205.965 114.787C207.229 113.225 208.859 112 210.712 111.22C212.564 110.441 214.581 110.131 216.582 110.318C218.584 110.506 220.508 111.185 222.183 112.295C223.858 113.405 225.232 114.912 226.183 116.681C227.131 118.434 227.63 120.394 227.635 122.386Z" fill="#E0607E"/>
<path d="M227.635 122.386C227.643 123.99 227.333 125.579 226.723 127.062C226.114 128.545 225.217 129.894 224.085 131.03C222.953 132.166 221.607 133.068 220.124 133.683C218.642 134.299 217.053 134.615 215.448 134.615C214.302 134.617 213.162 134.456 212.062 134.135C210.928 132.024 210.442 129.626 210.666 127.24C210.89 124.855 211.813 122.589 213.321 120.725C214.829 118.862 216.853 117.484 219.141 116.765C221.429 116.045 223.879 116.016 226.183 116.681C227.131 118.434 227.63 120.394 227.635 122.386Z" fill="url(#paint13_linear_109:1177)"/>
<path d="M202.637 101.027C207.242 93.243 213.398 86.4872 220.725 81.1785C228.052 75.8698 236.392 72.1213 245.229 70.1657C236.066 78.2819 226.663 86.6381 220.995 97.4378C219.421 100.518 218.035 103.691 216.845 106.939C215.961 109.296 215.087 111.816 215.611 114.27" stroke="url(#paint14_linear_109:1177)" stroke-width="1.01462" stroke-miterlimit="10"/>
<path d="M233.129 67.8967C241.188 69.5185 249.27 71.0312 257.373 72.4348" stroke="url(#paint15_linear_109:1177)" stroke-width="1.01462" stroke-miterlimit="10"/>
<path d="M154.148 228.791C164.583 228.791 173.042 220.342 173.042 209.919C173.042 199.496 164.583 191.047 154.148 191.047C143.714 191.047 135.255 199.496 135.255 209.919C135.255 220.342 143.714 228.791 154.148 228.791Z" fill="#E0607E"/>
<path d="M167.69 208.403C167.15 209.743 166.33 210.953 165.285 211.952C164.24 212.951 162.994 213.715 161.629 214.195C160.682 214.365 159.775 214.709 158.954 215.21C157.698 216.203 157.599 218.046 156.769 219.399C155.677 221.177 153.406 221.897 151.309 221.941C150.108 221.941 148.743 221.875 147.913 222.737C147.529 223.226 147.337 223.839 147.373 224.459C147.409 225.08 147.671 225.666 148.109 226.108C149.018 226.97 150.192 227.5 151.44 227.613C153.69 227.92 155.978 227.771 158.169 227.177C160.36 226.583 162.41 225.555 164.196 224.155C167.741 221.309 170.373 217.485 171.764 213.159C172.619 210.871 172.991 208.431 172.856 205.992C172.736 204.53 172.288 200.625 170.027 201.628C168.204 202.479 168.422 206.723 167.69 208.403Z" fill="url(#paint16_linear_109:1177)"/>
<path d="M274.89 230.689C285.325 230.689 293.783 222.24 293.783 211.817C293.783 201.394 285.325 192.945 274.89 192.945C264.456 192.945 255.997 201.394 255.997 211.817C255.997 222.24 264.456 230.689 274.89 230.689Z" fill="#E0607E"/>
<path d="M288.41 210.301C287.867 211.639 287.046 212.848 286.001 213.846C284.957 214.844 283.712 215.61 282.349 216.093C281.402 216.263 280.495 216.607 279.674 217.108C278.418 218.101 278.309 219.944 277.489 221.297C276.397 223.075 274.126 223.795 272.029 223.839C270.828 223.839 269.463 223.773 268.633 224.635C268.249 225.124 268.057 225.737 268.093 226.358C268.129 226.978 268.391 227.564 268.829 228.006C269.738 228.868 270.912 229.398 272.16 229.511C274.41 229.818 276.698 229.669 278.889 229.075C281.08 228.481 283.13 227.454 284.916 226.053C288.475 223.201 291.114 219.365 292.506 215.024C293.361 212.736 293.733 210.296 293.598 207.857C293.478 206.395 293.03 202.49 290.758 203.548C288.945 204.432 289.164 208.621 288.41 210.301Z" fill="url(#paint17_linear_109:1177)"/>
<path d="M253.114 154.742C258.028 154.153 262.55 151.829 266.82 149.288C269.2 147.891 272.182 146.408 274.541 147.837C276.507 149.015 276.954 151.6 277.173 153.88C277.708 159.642 277.926 165.429 277.828 171.214C277.73 176.669 277.413 182.45 280.012 187.294C280.211 187.796 280.522 188.245 280.921 188.608C281.321 188.971 281.798 189.238 282.317 189.389C284.304 189.683 285.363 187.13 285.593 185.145C286.576 177.356 286.041 169.469 285.505 161.636C285.2 157.12 284.85 152.451 282.688 148.469C281.245 145.903 279.129 143.777 276.569 142.32C274.008 140.863 271.098 140.131 268.152 140.201C262.801 140.408 257.93 143.277 252.688 144.4C248.842 145.208 244.857 145.066 241.079 143.986C238.895 143.375 233.074 140.081 230.977 141.684C229.175 143.08 230.792 146.048 231.851 147.488C236.066 153.029 246.561 155.527 253.114 154.742Z" fill="#E0607E"/>
<path d="M253.114 154.742C258.028 154.153 262.55 151.829 266.82 149.288C269.2 147.891 272.182 146.408 274.541 147.837C276.507 149.015 276.954 151.6 277.173 153.88C277.708 159.642 277.926 165.429 277.828 171.214C277.73 176.669 277.413 182.45 280.012 187.294C280.211 187.796 280.522 188.245 280.921 188.608C281.321 188.971 281.798 189.238 282.317 189.389C284.304 189.683 285.363 187.13 285.593 185.145C286.576 177.356 286.041 169.469 285.505 161.636C285.2 157.12 284.85 152.451 282.688 148.469C281.245 145.903 279.129 143.777 276.569 142.32C274.008 140.863 271.098 140.131 268.152 140.201C262.801 140.408 257.93 143.277 252.688 144.4C248.842 145.208 244.857 145.066 241.079 143.986C238.895 143.375 233.074 140.081 230.977 141.684C229.175 143.08 230.792 146.048 231.851 147.488C236.066 153.029 246.561 155.527 253.114 154.742Z" fill="url(#paint18_linear_109:1177)"/>
<path d="M211.691 151.633C210.537 152.618 209.196 153.36 207.748 153.815C203.708 154.764 200.104 151.033 196.096 150.106C194.356 149.74 192.547 149.893 190.893 150.545C189.239 151.196 187.813 152.318 186.791 153.771C187.496 150.903 188.942 148.27 190.985 146.135C192.012 145.085 193.26 144.277 194.639 143.769C196.018 143.262 197.493 143.067 198.957 143.2C200.803 143.44 202.517 144.291 204.352 144.63C207.956 145.23 211.527 143.626 214.825 142.066L221.891 138.717C223.17 137.942 224.684 137.648 226.161 137.888C231.742 139.404 225.768 142.753 223.922 143.604C219.608 145.524 215.48 148.797 211.691 151.633Z" fill="url(#paint19_linear_109:1177)"/>
</g>
<defs>
<linearGradient id="paint0_linear_109:1177" x1="223.049" y1="159.509" x2="222.635" y2="321.277" gradientUnits="userSpaceOnUse">
<stop offset="0.01"/>
<stop offset="0.13" stop-opacity="0.69"/>
<stop offset="1" stop-opacity="0"/>
</linearGradient>
<linearGradient id="paint1_linear_109:1177" x1="42442.6" y1="15290" x2="42423.5" y2="31521.8" gradientUnits="userSpaceOnUse">
<stop offset="0.01"/>
<stop offset="0.13" stop-opacity="0.69"/>
<stop offset="1" stop-opacity="0"/>
</linearGradient>
<linearGradient id="paint2_linear_109:1177" x1="38419.8" y1="2025.58" x2="38575.7" y2="15554.9" gradientUnits="userSpaceOnUse">
<stop offset="0.01"/>
<stop offset="0.13" stop-opacity="0.69"/>
<stop offset="1" stop-opacity="0"/>
</linearGradient>
<linearGradient id="paint3_linear_109:1177" x1="38219.3" y1="11144.8" x2="36084.9" y2="25666.4" gradientUnits="userSpaceOnUse">
<stop offset="0.01"/>
<stop offset="0.13" stop-opacity="0.69"/>
<stop offset="1" stop-opacity="0"/>
</linearGradient>
<linearGradient id="paint4_linear_109:1177" x1="143.009" y1="175.589" x2="297.89" y2="175.589" gradientUnits="userSpaceOnUse">
<stop offset="0.01" stop-color="white"/>
<stop offset="0.13" stop-color="white" stop-opacity="0.69"/>
<stop offset="1" stop-color="#68E1FD" stop-opacity="0"/>
</linearGradient>
<linearGradient id="paint5_linear_109:1177" x1="38219.3" y1="9586.52" x2="36085.1" y2="24108.2" gradientUnits="userSpaceOnUse">
<stop offset="0.01"/>
<stop offset="0.13" stop-opacity="0.69"/>
<stop offset="1" stop-opacity="0"/>
</linearGradient>
<linearGradient id="paint6_linear_109:1177" x1="22883.8" y1="14498.7" x2="44844" y2="14498.7" gradientUnits="userSpaceOnUse">
<stop offset="0.01" stop-color="white"/>
<stop offset="0.13" stop-color="white" stop-opacity="0.69"/>
<stop offset="1" stop-color="#68E1FD" stop-opacity="0"/>
</linearGradient>
<linearGradient id="paint7_linear_109:1177" x1="44400.1" y1="4970.38" x2="43376.5" y2="19274.2" gradientUnits="userSpaceOnUse">
<stop offset="0.01"/>
<stop offset="0.13" stop-opacity="0.69"/>
<stop offset="1" stop-opacity="0"/>
</linearGradient>
<linearGradient id="paint8_linear_109:1177" x1="28935.7" y1="11138.2" x2="50983" y2="9590.91" gradientUnits="userSpaceOnUse">
<stop offset="0.01" stop-color="white"/>
<stop offset="0.13" stop-color="white" stop-opacity="0.69"/>
<stop offset="1" stop-color="#68E1FD" stop-opacity="0"/>
</linearGradient>
<linearGradient id="paint9_linear_109:1177" x1="6207.41" y1="6394.48" x2="7247.17" y2="7993.85" gradientUnits="userSpaceOnUse">
<stop offset="0.01"/>
<stop offset="0.13" stop-opacity="0.69"/>
<stop offset="1" stop-opacity="0"/>
</linearGradient>
<linearGradient id="paint10_linear_109:1177" x1="9569.14" y1="650.729" x2="9956.97" y2="4532.18" gradientUnits="userSpaceOnUse">
<stop offset="0.01"/>
<stop offset="0.13" stop-opacity="0.69"/>
<stop offset="1" stop-opacity="0"/>
</linearGradient>
<linearGradient id="paint11_linear_109:1177" x1="3626.64" y1="12361.3" x2="5562.87" y2="12346.4" gradientUnits="userSpaceOnUse">
<stop offset="0.01" stop-color="white"/>
<stop offset="0.13" stop-color="white" stop-opacity="0.69"/>
<stop offset="1" stop-color="#68E1FD" stop-opacity="0"/>
</linearGradient>
<linearGradient id="paint12_linear_109:1177" x1="214.989" y1="139.262" x2="197.59" y2="105.669" gradientUnits="userSpaceOnUse">
<stop offset="0.01"/>
<stop offset="0.13" stop-opacity="0.69"/>
<stop offset="0.36" stop-opacity="0.44"/>
<stop offset="1" stop-opacity="0"/>
</linearGradient>
<linearGradient id="paint13_linear_109:1177" x1="4100.84" y1="2889.66" x2="3794.21" y2="2342.6" gradientUnits="userSpaceOnUse">
<stop offset="0.01"/>
<stop offset="0.13" stop-opacity="0.69"/>
<stop offset="0.36" stop-opacity="0.44"/>
<stop offset="1" stop-opacity="0"/>
</linearGradient>
<linearGradient id="paint14_linear_109:1177" x1="8764.41" y1="4337.27" x2="10519.6" y2="4337.27" gradientUnits="userSpaceOnUse">
<stop offset="0.01"/>
<stop offset="0.13" stop-opacity="0.69"/>
<stop offset="1" stop-opacity="0"/>
</linearGradient>
<linearGradient id="paint15_linear_109:1177" x1="5791.91" y1="416.966" x2="6334.74" y2="416.966" gradientUnits="userSpaceOnUse">
<stop offset="0.01"/>
<stop offset="0.13" stop-opacity="0.69"/>
<stop offset="1" stop-opacity="0"/>
</linearGradient>
<linearGradient id="paint16_linear_109:1177" x1="4789.42" y1="6325.31" x2="4223.62" y2="5653.58" gradientUnits="userSpaceOnUse">
<stop offset="0.01"/>
<stop offset="0.13" stop-opacity="0.69"/>
<stop offset="1" stop-opacity="0"/>
</linearGradient>
<linearGradient id="paint17_linear_109:1177" x1="7737.37" y1="6371.76" x2="7171.54" y2="5699.58" gradientUnits="userSpaceOnUse">
<stop offset="0.01"/>
<stop offset="0.13" stop-opacity="0.69"/>
<stop offset="1" stop-opacity="0"/>
</linearGradient>
<linearGradient id="paint18_linear_109:1177" x1="14593.6" y1="5884.68" x2="14251.9" y2="9847.26" gradientUnits="userSpaceOnUse">
<stop offset="0.01" stop-color="white"/>
<stop offset="0.13" stop-color="white" stop-opacity="0.69"/>
<stop offset="1" stop-color="#68E1FD" stop-opacity="0"/>
</linearGradient>
<linearGradient id="paint19_linear_109:1177" x1="8568.24" y1="2215.86" x2="8659.99" y2="3085.9" gradientUnits="userSpaceOnUse">
<stop offset="0.01" stop-color="white"/>
<stop offset="0.13" stop-color="white" stop-opacity="0.69"/>
<stop offset="1" stop-color="#68E1FD" stop-opacity="0"/>
</linearGradient>
<clipPath id="clip0_109:1177">
<rect width="437" height="329" fill="white"/>
</clipPath>
</defs>
</svg>
