<svg width="437" height="306" viewBox="0 0 437 306" fill="none" xmlns="http://www.w3.org/2000/svg">
<g clip-path="url(#clip0_109:1219)">
<path opacity="0.18" d="M200.421 23.8246L199.964 23.9792C173.187 32.9255 148.791 48.7795 120.308 53.8517C106.738 56.267 92.6056 56.267 79.5446 60.46C44.6667 71.667 27.7685 109.491 27.0717 143.769C26.375 178.047 37.4706 211.658 38.9993 245.907C39.6232 259.8 38.9993 274.804 47.62 286.185C55.4295 296.532 69.2289 301.45 82.5915 303.836C101.654 307.22 121.286 306.636 140.077 302.126C152.285 299.227 164.056 294.6 176.473 292.745C194.681 290.02 211.829 294.754 229.642 293.885C253.019 292.745 276.874 291.247 300.147 288.919C327.933 286.146 356.509 279.258 377.338 261.954C408.899 235.715 415.356 191.022 406.008 152.647C403.179 141.054 399.145 129.77 396.93 118.08C392.26 93.3951 395.682 66.875 384.139 44.2388C368.967 14.3856 330.772 -0.541022 295.228 0.0193292C261.141 0.550697 231.795 13.3228 200.421 23.8246Z" fill="#DB2B39"/>
<path d="M367.064 170.733L161.686 225.667C151.755 228.324 135.075 225.271 124.447 218.856L78.9935 191.418C68.3659 185.003 67.7939 177.641 77.7249 174.994L283.114 120.06C293.034 117.403 309.714 120.456 320.342 126.871L365.795 154.309C376.423 160.714 376.995 168.076 367.064 170.733Z" fill="url(#paint0_linear_109:1219)"/>
<path d="M363.289 160.908L157.9 215.841C147.98 218.498 131.3 215.445 120.672 209.03L75.2186 181.602C64.591 175.177 64.019 167.825 73.95 165.178L279.339 110.235C289.259 107.578 305.939 110.631 316.567 117.055L362.02 144.484C372.648 150.899 373.22 158.251 363.289 160.908Z" fill="#DB2B39"/>
<path d="M363.289 160.908L157.9 215.841C147.98 218.498 131.3 215.445 120.672 209.03L75.2186 181.602C64.591 175.177 64.019 167.825 73.95 165.178L279.339 110.235C289.259 107.578 305.939 110.631 316.567 117.055L362.02 144.484C372.648 150.899 373.22 158.251 363.289 160.908Z" fill="url(#paint1_linear_109:1219)"/>
<path d="M361.781 154.251L156.403 209.195C146.472 211.851 129.792 208.798 119.164 202.374L73.6692 174.945C63.0415 168.521 62.4696 161.169 72.4005 158.521L277.789 103.588C287.71 100.931 304.39 103.974 315.017 110.399L360.471 137.827C371.14 144.242 371.671 151.594 361.781 154.251Z" fill="#DB2B39"/>
<path d="M313.437 145.286C311.849 140.859 309.034 136.9 305.274 133.808C301.701 131.073 297.735 128.813 293.492 127.093C284.705 123.229 275.075 119.809 265.415 121.132C261.612 121.657 257.966 122.904 254.704 124.794C253.284 125.506 252.101 126.565 251.283 127.857C250.585 129.354 250.457 131.027 250.919 132.6C251.561 135.002 252.709 137.261 254.298 139.247C260.163 147.044 269.387 152.039 278.632 156.135C281.833 157.647 285.187 158.861 288.646 159.758C293.821 160.99 299.246 160.99 304.421 159.758C306.273 159.421 307.983 158.6 309.35 157.391C310.253 156.351 310.928 155.156 311.336 153.874C312.688 150.387 313.811 146.484 312.283 143.063" fill="#FDFFFF"/>
<path d="M312.293 141.064C312.37 141.38 312.401 141.705 312.387 142.03C312.185 143.406 311.444 144.664 310.307 145.566C308.668 147.109 306.736 148.357 304.608 149.247C304.149 149.467 303.647 149.602 303.132 149.643C301.977 149.691 301.052 148.899 300.126 148.213C297.399 146.198 294.487 144.411 291.422 142.87C287.096 140.532 282.76 138.194 278.361 135.962C272.372 132.929 266.018 130.011 259.207 129.75C254.912 129.586 250.575 130.475 246.354 129.75C245.888 129.705 245.447 129.534 245.085 129.258C244.326 128.581 244.669 127.557 245.282 126.688C245.481 126.419 245.7 126.164 245.938 125.924C250.097 121.818 254.943 117.973 260.85 116.746C266.985 115.481 273.796 116.891 279.89 117.712C286.12 118.594 292.141 120.46 297.693 123.229C300.268 124.381 302.55 126.027 304.39 128.06C306.574 130.716 307.437 134.127 309.516 136.861C310.567 138.213 311.939 139.518 312.293 141.064Z" fill="#DB2B39"/>
<path d="M312.293 141.064C312.37 141.38 312.401 141.705 312.387 142.03C312.185 143.406 311.444 144.664 310.307 145.566C308.668 147.109 306.736 148.357 304.608 149.247C304.149 149.467 303.647 149.602 303.132 149.643C301.977 149.691 301.052 148.899 300.126 148.213C297.399 146.198 294.487 144.411 291.422 142.87C287.096 140.532 282.76 138.194 278.361 135.962C272.372 132.929 266.018 130.011 259.207 129.75C254.912 129.586 250.575 130.475 246.354 129.75C245.888 129.705 245.447 129.534 245.085 129.258C244.326 128.581 244.669 127.557 245.282 126.688C245.481 126.419 245.7 126.164 245.938 125.924C250.097 121.818 254.943 117.973 260.85 116.746C266.985 115.481 273.796 116.891 279.89 117.712C286.12 118.594 292.141 120.46 297.693 123.229C300.268 124.381 302.55 126.027 304.39 128.06C306.574 130.716 307.437 134.127 309.516 136.861C310.567 138.213 311.939 139.518 312.293 141.064Z" fill="url(#paint2_linear_109:1219)"/>
<path d="M312.293 141.064C311.876 141.818 311.328 142.503 310.671 143.092C310.504 143.257 310.317 143.411 310.14 143.566C309.651 143.991 309.137 144.391 308.601 144.764C307.471 145.558 306.25 146.235 304.962 146.783C304.789 146.857 304.612 146.922 304.431 146.976C304.133 147.09 303.817 147.159 303.496 147.179C303.271 147.188 303.046 147.162 302.83 147.102C301.947 146.817 301.143 146.352 300.48 145.74C298.638 144.337 296.68 143.071 294.625 141.952C294.22 141.73 293.825 141.498 293.419 141.286L291.776 140.397L286.098 137.344L284.559 136.523C282.604 135.508 280.659 134.494 278.704 133.499C278.403 133.335 278.091 133.18 277.769 133.025C276.937 132.6 276.094 132.195 275.262 131.798C274.035 131.219 272.808 130.668 271.571 130.175C270.739 129.818 269.897 129.509 269.054 129.209C266.846 128.416 264.552 127.849 262.212 127.519C261.422 127.412 260.621 127.335 259.81 127.296C259.727 127.286 259.643 127.286 259.56 127.296C255.286 127.142 250.929 128.031 246.728 127.296C246.256 127.249 245.809 127.078 245.438 126.804C245.388 126.763 245.343 126.718 245.303 126.668C245.502 126.4 245.72 126.145 245.958 125.905C248.78 122.936 252.115 120.425 255.827 118.476C256.482 118.166 257.158 117.867 257.823 117.606C258.812 117.238 259.831 116.944 260.87 116.727L261.91 116.534C262.571 116.428 263.238 116.357 263.907 116.321C265.696 116.186 267.494 116.186 269.283 116.321C270.385 116.408 271.467 116.524 272.559 116.65C274.389 116.882 276.209 117.171 277.987 117.442L279.89 117.722L280.41 117.799C282.355 118.092 284.281 118.483 286.181 118.968C287.044 119.171 287.887 119.422 288.729 119.683C290.673 120.259 292.576 120.946 294.428 121.741C295.52 122.195 296.591 122.707 297.651 123.219C299.476 124.085 301.178 125.159 302.716 126.417C303.313 126.917 303.859 127.467 304.348 128.06C305.694 129.919 306.827 131.904 307.728 133.982C308.22 134.975 308.801 135.928 309.464 136.832C310.567 138.214 311.939 139.518 312.293 141.064Z" fill="#DB2B39"/>
<path d="M250.378 121.905L253.31 127.48L255.473 127.354L251.771 120.852L250.378 121.905Z" fill="url(#paint3_linear_109:1219)"/>
<path d="M262.201 127.519C261.411 127.412 260.61 127.335 259.799 127.296C259.56 126.823 259.3 126.33 259.113 125.886C258.558 124.318 257.912 122.78 257.179 121.277C257.064 121.045 256.326 119.587 255.816 118.437C256.472 118.128 257.147 117.828 257.813 117.567C258.5 118.661 259.098 119.801 259.602 120.978C260.558 123.123 261.421 125.325 262.201 127.519Z" fill="url(#paint4_linear_109:1219)"/>
<path d="M271.56 130.156C270.729 129.799 269.886 129.489 269.044 129.19C267.884 126.589 266.582 124.045 265.144 121.567C264.139 119.841 263.065 118.144 261.921 116.476C262.581 116.37 263.248 116.299 263.917 116.263C264.24 116.65 264.552 117.055 264.864 117.461C267.671 121.045 269.148 125.306 271.176 129.316C271.311 129.615 271.456 129.886 271.56 130.156Z" fill="url(#paint5_linear_109:1219)"/>
<path d="M277.685 132.716C277.685 132.813 277.748 132.929 277.769 133.025C276.937 132.6 276.094 132.195 275.262 131.798C274.295 128.63 273.276 125.519 271.976 122.437C271.207 120.572 270.375 118.717 269.543 116.872C269.449 116.686 269.366 116.496 269.293 116.302C270.396 116.389 271.477 116.505 272.569 116.63C273.256 118.13 273.84 119.67 274.316 121.239C275.543 125.045 276.625 128.871 277.685 132.716Z" fill="url(#paint6_linear_109:1219)"/>
<path d="M286.098 137.344L284.559 136.523C283.868 132.941 282.88 129.414 281.606 125.973C280.961 124.205 280.264 122.456 279.526 120.707C279.11 119.741 278.403 118.553 277.966 117.423L279.869 117.703L280.389 117.78C280.514 118.205 280.628 118.543 280.691 118.746C283.145 124.736 285.329 130.939 286.098 137.344Z" fill="url(#paint7_linear_109:1219)"/>
<path d="M294.625 141.952C294.22 141.73 293.825 141.498 293.419 141.286C293.274 140.841 293.17 140.385 293.107 139.924C292.444 135.774 291.362 131.692 289.873 127.731C289.239 125.973 288.552 124.214 287.793 122.485C287.346 121.413 286.587 120.157 286.15 118.949C287.013 119.152 287.856 119.403 288.698 119.664C288.812 120.031 288.916 120.321 288.968 120.476C291.786 127.374 294.251 134.542 294.625 141.952Z" fill="url(#paint8_linear_109:1219)"/>
<path d="M304.431 146.976C304.133 147.09 303.817 147.159 303.495 147.179C303.271 147.188 303.046 147.162 302.83 147.102C302.046 142.258 300.775 137.494 299.034 132.871C298.272 130.784 297.464 128.71 296.611 126.649C295.775 125.051 295.049 123.406 294.438 121.722C295.53 122.176 296.601 122.688 297.662 123.2C297.807 123.683 297.942 124.069 298.015 124.272C300.958 131.596 303.599 139.16 304.431 146.976Z" fill="url(#paint9_linear_109:1219)"/>
<path d="M307.78 134.021C308.79 137.154 309.575 140.346 310.13 143.575C309.641 144.001 309.127 144.401 308.591 144.773C307.783 140.615 306.626 136.522 305.128 132.533C304.39 130.485 303.589 128.446 302.757 126.427C303.354 126.927 303.901 127.477 304.39 128.069C305.741 129.937 306.877 131.932 307.78 134.021Z" fill="url(#paint10_linear_109:1219)"/>
<path d="M304.587 153.527C304.011 153.386 303.401 153.431 302.856 153.656C302.312 153.881 301.866 154.271 301.592 154.763H296.071C295.722 154.803 295.369 154.754 295.048 154.621C294.728 154.488 294.452 154.277 294.251 154.01L292.109 151.903C291.738 151.482 291.287 151.129 290.778 150.86C290.362 150.667 289.894 150.599 289.467 150.416C287.96 149.749 287.575 147.884 286.285 146.889C284.996 145.894 283.322 145.923 281.887 145.363C280.296 144.706 279.089 143.295 277.394 142.938C276.604 142.764 275.762 142.841 274.961 142.725C274.148 142.565 273.361 142.305 272.621 141.952C270.541 141.044 268.389 140.126 266.382 139.054C264.375 137.982 262.638 136.996 260.798 135.914L253.789 131.769C253.409 131.527 252.997 131.332 252.562 131.19C250.607 130.649 248.704 132.6 248.662 134.484C248.62 136.368 249.806 138.069 250.95 139.624C252.945 142.459 255.137 145.169 257.512 147.739C263.397 153.884 271.03 158.309 278.819 162.231C280.534 163.176 282.363 163.928 284.268 164.473C287.156 165.07 290.138 165.171 293.065 164.772C301.776 163.981 310.36 162.26 318.647 159.642C319.686 159.437 320.597 158.861 321.184 158.038C321.344 157.636 321.415 157.208 321.393 156.78C321.372 156.352 321.258 155.932 321.059 155.546C319.406 151.43 313.707 146.967 310.13 151.788C307.842 150.445 306.782 153.015 304.587 153.527Z" fill="url(#paint11_linear_109:1219)"/>
<path d="M244.347 172.868C245.046 173.199 245.66 173.667 246.146 174.24C246.38 174.533 246.523 174.879 246.56 175.242C246.596 175.605 246.525 175.97 246.354 176.298C246.057 176.689 245.65 176.996 245.178 177.187C241.206 179.119 236.35 178.626 232.159 180.085C230.157 180.91 228.227 181.879 226.388 182.984C219.831 186.488 212.321 188.153 204.768 187.776C197.214 187.398 189.94 184.996 183.825 180.858C182.899 180.23 181.912 179.196 182.431 178.259C182.643 177.931 182.954 177.669 183.326 177.506C184.751 176.913 186.26 176.512 187.808 176.317C196.73 174.54 204.165 168.453 213.129 166.869C217.767 166.047 222.488 166.482 227.209 166.54C229.038 166.399 230.866 166.823 232.409 167.748C234.201 168.68 236.064 169.491 237.982 170.173C240.165 170.94 242.291 171.841 244.347 172.868Z" fill="url(#paint12_linear_109:1219)"/>
<path d="M273.099 153.256C271.517 148.819 268.701 144.85 264.936 141.75C261.363 139.015 257.398 136.755 253.154 135.035C244.367 131.17 234.738 127.75 225.077 129.074C221.275 129.602 217.63 130.848 214.366 132.736C212.944 133.444 211.76 134.504 210.945 135.798C210.248 137.295 210.12 138.968 210.581 140.542C211.23 142.941 212.378 145.199 213.961 147.189C219.826 154.985 229.05 159.971 238.294 164.077C241.498 165.583 244.852 166.797 248.308 167.7C253.483 168.931 258.909 168.931 264.084 167.7C265.939 167.371 267.651 166.549 269.013 165.333C269.913 164.294 270.588 163.103 270.999 161.826C272.351 158.338 273.484 154.435 271.945 151.015" fill="#FDFFFF"/>
<path d="M264.24 161.497C263.666 161.356 263.058 161.401 262.515 161.624C261.973 161.847 261.528 162.235 261.255 162.724H255.723C255.399 162.752 255.073 162.716 254.766 162.618C254.428 162.467 254.133 162.246 253.903 161.97L251.823 159.845C251.455 159.421 251.004 159.067 250.492 158.802C250.076 158.608 249.608 158.541 249.192 158.357C247.674 157.681 247.289 155.816 246 154.831C244.71 153.845 243.036 153.865 241.601 153.304C240.01 152.638 238.814 151.237 237.109 150.87C236.319 150.705 235.476 150.783 234.675 150.667C233.86 150.508 233.073 150.244 232.336 149.884C230.256 148.976 228.103 148.068 226.096 146.986C224.089 145.904 222.353 144.928 220.512 143.846L213.41 139.817C213.033 139.569 212.62 139.374 212.183 139.238C210.228 138.697 208.325 140.638 208.283 142.532C208.241 144.426 209.427 146.116 210.571 147.672C212.57 150.504 214.761 153.215 217.133 155.787C223.018 161.922 230.651 166.347 238.44 170.279C240.157 171.22 241.985 171.972 243.889 172.52C246.777 173.118 249.759 173.219 252.686 172.82C261.397 172.029 269.981 170.307 278.268 167.69C279.307 167.485 280.218 166.909 280.805 166.086C280.965 165.684 281.036 165.256 281.014 164.828C280.993 164.4 280.879 163.98 280.68 163.594C279.027 159.478 273.328 155.014 269.751 159.835C267.505 158.444 266.444 160.985 264.24 161.497Z" fill="url(#paint13_linear_109:1219)"/>
<path d="M217.933 127.654C215.126 128.726 212.734 131.228 212.859 134.05C213.032 135.849 213.94 137.519 215.396 138.716C216.843 139.894 218.447 140.894 220.169 141.692L236.994 150.329C239.596 151.819 242.391 152.994 245.314 153.826C247.659 154.295 250.048 154.547 252.447 154.58C254.745 154.686 257.147 154.763 259.248 153.894C260.927 153.079 262.424 151.974 263.657 150.638C265.737 148.638 267.983 146.3 267.817 143.518C267.603 141.781 266.72 140.175 265.331 138.996C262.056 135.924 257.366 134.668 252.998 133.199C249.691 132.069 246.457 130.755 243.109 129.75C238.506 128.448 233.797 127.495 229.029 126.9C225.556 126.388 221.292 126.369 217.933 127.654Z" fill="#DB2B39"/>
<path d="M217.933 127.654C215.126 128.726 212.734 131.228 212.859 134.05C213.032 135.849 213.94 137.519 215.396 138.716C216.843 139.894 218.447 140.894 220.169 141.692L236.994 150.329C239.596 151.819 242.391 152.994 245.314 153.826C247.659 154.295 250.048 154.547 252.447 154.58C254.745 154.686 257.147 154.763 259.248 153.894C260.927 153.079 262.424 151.974 263.657 150.638C265.737 148.638 267.983 146.3 267.817 143.518C267.603 141.781 266.72 140.175 265.331 138.996C262.056 135.924 257.366 134.668 252.998 133.199C249.691 132.069 246.457 130.755 243.109 129.75C238.506 128.448 233.797 127.495 229.029 126.9C225.556 126.388 221.292 126.369 217.933 127.654Z" fill="url(#paint14_linear_109:1219)"/>
<path d="M222.977 150.077L222.405 143.17C222.358 142.956 222.358 142.736 222.405 142.522C222.524 142.249 222.722 142.012 222.977 141.836C228.677 136.831 235.556 133.132 243.067 131.035C243.737 130.824 244.441 130.726 245.147 130.745C245.616 130.804 246.077 130.911 246.52 131.064C250.217 132.195 253.847 133.504 257.397 134.987C257.629 135.059 257.836 135.185 258 135.354C258.458 135.924 257.803 136.677 257.2 137.112L241.466 148.512C240.611 149.032 239.899 149.73 239.386 150.551C239.055 151.371 238.924 152.248 239.001 153.121C239.001 156.412 238.956 159.707 238.866 163.004C238.866 163.352 238.814 163.758 238.482 163.97C238.347 164.026 238.202 164.055 238.055 164.055C237.908 164.055 237.763 164.026 237.629 163.97C233.852 163.011 230.415 161.141 227.667 158.55C224.926 155.945 223.268 152.522 222.987 148.889" fill="url(#paint15_linear_109:1219)"/>
<path d="M203.572 134.136C202.367 132.838 200.887 131.782 199.226 131.035C197.886 130.621 196.476 130.441 195.066 130.504C190.368 130.481 185.686 131.01 181.132 132.079C178.729 132.546 176.438 133.417 174.372 134.649C169.558 137.74 167.717 143.431 166.188 148.686C165.435 150.728 165.141 152.892 165.325 155.043C165.72 157.459 167.291 159.536 168.819 161.516C171.003 164.366 173.208 167.217 175.672 169.864C180.193 174.546 185.32 178.69 190.938 182.201C193.819 184.181 196.965 185.805 200.297 187.032C203.653 188.25 207.332 188.476 210.831 187.679C212.901 187.08 214.856 186.18 216.623 185.012C221.685 181.861 225.996 177.777 229.289 173.013C230.145 171.869 230.794 170.603 231.213 169.265C231.556 167.674 231.612 166.042 231.379 164.434C231.254 161.682 230.701 158.962 229.736 156.357C227.656 151.362 222.966 149.875 218.807 146.812C213.462 142.871 208.375 138.639 203.572 134.136Z" fill="#DB2B39"/>
<path d="M203.572 134.136C202.367 132.838 200.887 131.782 199.226 131.035C197.886 130.621 196.476 130.441 195.066 130.504C190.368 130.481 185.686 131.01 181.132 132.079C178.729 132.546 176.438 133.417 174.372 134.649C169.558 137.74 167.717 143.431 166.188 148.686C165.435 150.728 165.141 152.892 165.325 155.043C165.72 157.459 167.291 159.536 168.819 161.516C171.003 164.366 173.208 167.217 175.672 169.864C180.193 174.546 185.32 178.69 190.938 182.201C193.819 184.181 196.965 185.805 200.297 187.032C203.653 188.25 207.332 188.476 210.831 187.679C212.901 187.08 214.856 186.18 216.623 185.012C221.685 181.861 225.996 177.777 229.289 173.013C230.145 171.869 230.794 170.603 231.213 169.265C231.556 167.674 231.612 166.042 231.379 164.434C231.254 161.682 230.701 158.962 229.736 156.357C227.656 151.362 222.966 149.875 218.807 146.812C213.462 142.871 208.375 138.639 203.572 134.136Z" fill="url(#paint16_linear_109:1219)"/>
<path d="M183.315 133.441C179.821 133.779 175.839 134.407 173.956 137.151C172.75 138.919 172.75 141.141 172.781 143.237C172.781 146.377 172.927 149.72 174.788 152.348C176.199 154.088 177.966 155.552 179.988 156.657C189.919 162.917 200.609 169.216 212.599 169.719C216.592 169.873 220.918 169.207 223.715 166.56C225.009 165.263 225.969 163.71 226.523 162.019C227.157 160.547 227.319 158.937 226.991 157.381C226.492 155.565 224.994 154.155 223.559 152.841C221.926 151.353 220.294 149.865 218.526 148.532C214.897 145.817 210.727 143.788 207.087 141.093C205.168 139.658 203.368 138.091 201.701 136.407C200.484 135.209 199.028 132.813 197.312 132.253C195.596 131.692 192.82 132.513 191.073 132.687L183.315 133.441Z" fill="white"/>
<path d="M203.947 143.141C204.603 144.335 205.716 145.258 207.066 145.73C208.366 146.261 209.77 146.551 211.091 147.044C211.32 147.099 211.521 147.225 211.663 147.401C211.728 147.567 211.739 147.748 211.695 147.919C211.65 148.091 211.552 148.247 211.413 148.367C210.249 149.643 208.231 149.739 206.463 150.039C205.053 150.28 203.685 150.699 202.397 151.285C202.079 151.409 201.793 151.594 201.555 151.826C201.304 152.151 201.124 152.519 201.025 152.908C200.693 153.79 200.169 154.6 199.486 155.286C198.803 155.972 197.976 156.521 197.055 156.898C196.135 157.274 195.141 157.471 194.135 157.477C193.129 157.482 192.133 157.295 191.208 156.927C190.803 156.763 190.335 156.415 190.491 156.029C190.583 155.854 190.737 155.714 190.927 155.633C193.617 153.991 195.575 151.499 196.439 148.619C196.907 147.054 197.146 145.237 198.519 144.271C200.453 142.938 203.323 144.088 205.559 143.247" fill="url(#paint17_linear_109:1219)"/>
<path d="M196.522 134.6C195.922 134.822 195.375 135.15 194.91 135.566C195.128 134.523 193.797 133.711 192.643 133.74C191.489 133.769 190.428 134.281 189.284 134.359C188.14 134.436 186.872 134.059 185.655 134.098C184.569 134.222 183.495 134.422 182.442 134.697C181.909 134.833 181.35 134.852 180.808 134.751C180.266 134.651 179.757 134.434 179.322 134.117C184.355 133.235 189.426 132.591 194.536 132.185C195.278 132.103 196.029 132.103 196.772 132.185C199.631 132.581 201.472 135.083 203.24 137.199C205.69 140.15 208.607 142.739 211.892 144.88C215.146 146.996 218.755 148.677 221.687 151.16C224.62 153.642 226.887 157.265 226.221 160.908C225.784 158.453 224.605 156.165 222.821 154.309C221.993 153.59 221.292 152.756 220.741 151.836C220.645 151.534 220.466 151.261 220.221 151.044C219.901 150.889 219.54 150.825 219.181 150.86C217.164 150.86 215.417 149.614 213.836 148.445L200.806 138.851C199.86 138.156 198.727 138.465 197.967 137.663C197.718 137.373 197.302 134.339 196.522 134.6Z" fill="url(#paint18_linear_109:1219)"/>
<path d="M181.381 133.702C179.015 134.042 176.799 134.992 174.986 136.445C174.089 137.18 173.413 138.118 173.023 139.168C172.633 140.218 172.542 141.343 172.76 142.435C173.049 143.364 173.479 144.249 174.04 145.063C175.666 147.907 177.633 150.572 179.905 153.005C182.207 155.442 185.284 157.134 188.692 157.835C190.189 158.148 191.754 158.012 193.163 157.449C194.747 156.586 195.993 155.276 196.72 153.71C197.43 152.155 198.293 150.664 199.298 149.256C200.619 147.672 202.543 146.512 203.458 144.706C203.953 143.607 204.106 142.401 203.898 141.226C203.69 140.05 203.13 138.953 202.283 138.059C199.798 135.354 196.397 135.537 193.132 134.484C189.356 133.275 185.304 133.005 181.381 133.702Z" fill="#DB2B39"/>
<path d="M181.381 133.702C179.015 134.042 176.799 134.992 174.986 136.445C174.089 137.18 173.413 138.118 173.023 139.168C172.633 140.218 172.542 141.343 172.76 142.435C173.049 143.364 173.479 144.249 174.04 145.063C175.666 147.907 177.633 150.572 179.905 153.005C182.207 155.442 185.284 157.134 188.692 157.835C190.189 158.148 191.754 158.012 193.163 157.449C194.747 156.586 195.993 155.276 196.72 153.71C197.43 152.155 198.293 150.664 199.298 149.256C200.619 147.672 202.543 146.512 203.458 144.706C203.953 143.607 204.106 142.401 203.898 141.226C203.69 140.05 203.13 138.953 202.283 138.059C199.798 135.354 196.397 135.537 193.132 134.484C189.356 133.275 185.304 133.005 181.381 133.702Z" fill="url(#paint19_linear_109:1219)"/>
<path d="M186.768 177.235C185.18 172.809 182.365 168.85 178.605 165.758C175.031 163.023 171.066 160.763 166.823 159.043C158.046 155.179 148.417 151.759 138.746 153.082C134.944 153.61 131.298 154.856 128.035 156.744C126.638 157.465 125.48 158.527 124.686 159.816C123.981 161.307 123.848 162.979 124.312 164.55C124.958 166.95 126.107 169.209 127.692 171.197C133.567 178.994 142.791 183.988 152.025 188.085C155.227 189.594 158.582 190.807 162.039 191.708C167.214 192.94 172.639 192.94 177.814 191.708C179.669 191.371 181.383 190.55 182.754 189.341C183.654 188.3 184.325 187.105 184.73 185.824C186.081 182.346 187.215 178.433 185.686 175.013" fill="#FDFFFF"/>
<path d="M185.624 173.013C185.712 173.328 185.744 173.655 185.718 173.979C185.521 175.357 184.78 176.618 183.638 177.515C181.997 179.057 180.065 180.304 177.939 181.196C177.48 181.417 176.978 181.551 176.462 181.592C175.308 181.641 174.383 180.848 173.457 180.163C170.728 178.15 167.816 176.363 164.753 174.82C160.417 172.482 156.091 170.144 151.692 167.912C145.692 164.878 139.349 161.961 132.537 161.7C128.243 161.536 123.906 162.425 119.684 161.7C119.216 161.654 118.771 161.483 118.405 161.207C117.657 160.531 117.989 159.507 118.613 158.637C118.812 158.369 119.031 158.114 119.268 157.874C123.428 153.768 128.274 149.923 134.181 148.696C140.305 147.43 147.117 148.841 153.221 149.71C159.45 150.594 165.471 152.46 171.024 155.227C173.596 156.379 175.875 158.026 177.71 160.058C179.905 162.714 180.757 166.125 182.847 168.859C183.96 170.163 185.27 171.467 185.624 173.013Z" fill="#DB2B39"/>
<path d="M185.624 173.013C185.712 173.328 185.744 173.655 185.718 173.979C185.521 175.357 184.78 176.618 183.638 177.515C181.997 179.057 180.065 180.304 177.939 181.196C177.48 181.417 176.978 181.551 176.462 181.592C175.308 181.641 174.383 180.848 173.457 180.163C170.728 178.15 167.816 176.363 164.753 174.82C160.417 172.482 156.091 170.144 151.692 167.912C145.692 164.878 139.349 161.961 132.537 161.7C128.243 161.536 123.906 162.425 119.684 161.7C119.216 161.654 118.771 161.483 118.405 161.207C117.657 160.531 117.989 159.507 118.613 158.637C118.812 158.369 119.031 158.114 119.268 157.874C123.428 153.768 128.274 149.923 134.181 148.696C140.305 147.43 147.117 148.841 153.221 149.71C159.45 150.594 165.471 152.46 171.024 155.227C173.596 156.379 175.875 158.026 177.71 160.058C179.905 162.714 180.757 166.125 182.847 168.859C183.96 170.163 185.27 171.467 185.624 173.013Z" fill="url(#paint20_linear_109:1219)"/>
<path d="M185.624 173.013C185.211 173.768 184.666 174.453 184.012 175.042L183.471 175.516C182.988 175.943 182.478 176.343 181.943 176.714C180.812 177.513 179.588 178.19 178.293 178.733C178.122 178.81 177.944 178.875 177.762 178.926C177.465 179.042 177.148 179.111 176.826 179.129C176.605 179.137 176.383 179.111 176.171 179.052C175.285 178.773 174.48 178.306 173.821 177.689C171.975 176.291 170.018 175.025 167.967 173.902L166.76 173.235L165.107 172.347C163.221 171.323 161.329 170.305 159.429 169.294L157.89 168.472C155.945 167.506 154.001 166.444 152.046 165.449C151.744 165.284 151.422 165.13 151.11 164.975C150.278 164.56 149.436 164.144 148.593 163.748C147.366 163.168 146.139 162.618 144.902 162.125C144.07 161.777 143.228 161.458 142.385 161.159C140.176 160.368 137.882 159.802 135.543 159.468C134.752 159.362 133.941 159.285 133.141 159.246C133.058 159.237 132.974 159.237 132.891 159.246C128.607 159.091 124.26 159.98 120.048 159.246C119.577 159.197 119.131 159.026 118.759 158.753C118.712 158.712 118.67 158.667 118.634 158.618C118.832 158.349 119.051 158.094 119.289 157.855C122.111 154.886 125.447 152.375 129.158 150.425C129.813 150.116 130.479 149.817 131.154 149.556C132.142 149.185 133.161 148.89 134.201 148.677L135.241 148.483C135.907 148.377 136.562 148.319 137.238 148.271C139.03 148.136 140.832 148.136 142.624 148.271C143.716 148.358 144.808 148.474 145.9 148.599C147.73 148.831 149.55 149.121 151.328 149.392L153.231 149.672L153.741 149.749C155.689 150.042 157.619 150.432 159.523 150.918C160.375 151.131 161.218 151.372 162.07 151.633C164.011 152.209 165.91 152.896 167.759 153.691C168.861 154.145 169.932 154.657 170.982 155.169H171.034C172.859 156.035 174.561 157.109 176.099 158.367C176.69 158.87 177.232 159.419 177.721 160.009C179.07 161.868 180.206 163.853 181.111 165.932C181.625 166.934 182.23 167.894 182.92 168.801C183.96 170.163 185.27 171.467 185.624 173.013Z" fill="#DB2B39"/>
<path d="M123.709 153.855L126.641 159.43L128.815 159.304L125.113 152.802L123.709 153.855Z" fill="url(#paint21_linear_109:1219)"/>
<path d="M135.543 159.468C134.752 159.362 133.941 159.285 133.141 159.246C132.884 158.788 132.655 158.317 132.454 157.835C131.899 156.268 131.253 154.73 130.52 153.227C130.395 152.995 129.657 151.536 129.158 150.387C129.813 150.077 130.478 149.778 131.154 149.517C131.834 150.613 132.429 151.753 132.933 152.928C133.9 155.072 134.763 157.265 135.543 159.468Z" fill="url(#paint22_linear_109:1219)"/>
<path d="M144.902 162.115C144.07 161.768 143.228 161.449 142.385 161.149C141.221 158.55 139.91 156.009 138.486 153.527C137.446 151.797 136.406 150.097 135.252 148.435C135.917 148.329 136.572 148.271 137.248 148.223C137.571 148.609 137.893 149.015 138.205 149.421C141.013 153.005 142.489 157.275 144.507 161.285C144.642 161.565 144.787 161.835 144.902 162.115Z" fill="url(#paint23_linear_109:1219)"/>
<path d="M151.027 164.666C151.027 164.763 151.089 164.879 151.11 164.975C150.278 164.56 149.436 164.144 148.593 163.748C147.637 160.579 146.607 157.468 145.318 154.386C144.548 152.522 143.716 150.667 142.884 148.822C142.791 148.636 142.707 148.445 142.635 148.252C143.727 148.338 144.819 148.454 145.91 148.58C146.588 150.082 147.168 151.621 147.647 153.188C148.885 156.995 149.956 160.821 151.027 164.666Z" fill="url(#paint24_linear_109:1219)"/>
<path d="M159.429 169.294L157.89 168.472C157.199 164.89 156.211 161.363 154.937 157.922C154.302 156.154 153.606 154.406 152.857 152.657C152.451 151.691 151.744 150.503 151.307 149.372L153.21 149.652L153.72 149.73C153.845 150.155 153.97 150.493 154.032 150.696C156.486 156.686 158.66 162.888 159.429 169.294Z" fill="url(#paint25_linear_109:1219)"/>
<path d="M167.967 173.902L166.76 173.235C166.616 172.79 166.511 172.335 166.448 171.873C165.775 167.725 164.693 163.644 163.214 159.681C162.576 157.922 161.883 156.174 161.134 154.435C160.698 153.362 159.939 152.106 159.502 150.899C160.355 151.111 161.197 151.353 162.05 151.614C162.154 151.981 162.258 152.271 162.32 152.425C165.128 159.323 167.592 166.492 167.967 173.902Z" fill="url(#paint26_linear_109:1219)"/>
<path d="M177.721 178.926C177.423 179.042 177.107 179.111 176.785 179.129C176.563 179.137 176.342 179.111 176.13 179.051C175.336 174.21 174.065 169.446 172.334 164.821C171.571 162.734 170.76 160.66 169.901 158.599C169.064 157.001 168.338 155.355 167.727 153.671C168.83 154.126 169.901 154.638 170.951 155.15C171.107 155.633 171.232 156.019 171.305 156.222C174.289 163.545 176.941 171.11 177.721 178.926Z" fill="url(#paint27_linear_109:1219)"/>
<path d="M181.121 165.903C182.134 169.031 182.916 172.22 183.461 175.448C182.978 175.875 182.467 176.275 181.932 176.646C181.115 172.49 179.957 168.398 178.469 164.405C177.731 162.357 176.93 160.318 176.099 158.299C176.69 158.802 177.232 159.351 177.721 159.942C179.076 161.812 180.216 163.81 181.121 165.903Z" fill="url(#paint28_linear_109:1219)"/>
<path d="M177.918 185.476C177.342 185.335 176.731 185.381 176.187 185.606C175.643 185.831 175.197 186.221 174.923 186.713H169.391C169.071 186.732 168.751 186.696 168.445 186.607C168.108 186.45 167.811 186.229 167.571 185.959L165.492 183.824C165.118 183.405 164.668 183.052 164.16 182.781C163.745 182.597 163.266 182.52 162.85 182.336C161.342 181.67 160.947 179.805 159.668 178.81C158.389 177.815 156.704 177.844 155.259 177.283C153.814 176.723 152.472 175.216 150.777 174.859C149.976 174.685 149.144 174.762 148.333 174.646C147.52 174.484 146.734 174.225 145.994 173.873C143.914 172.965 141.761 172.047 139.754 170.975C137.747 169.902 136 168.917 134.17 167.835L127.161 163.69C126.779 163.446 126.363 163.251 125.924 163.11C123.979 162.569 122.076 164.521 122.035 166.405C121.993 168.289 123.168 169.989 124.322 171.545C126.318 174.379 128.51 177.09 130.884 179.66C136.759 185.805 144.403 190.23 152.181 194.152C153.9 195.095 155.732 195.847 157.64 196.393C160.529 196.991 163.51 197.092 166.438 196.693C175.146 195.905 183.727 194.184 192.009 191.563C193.051 191.358 193.965 190.782 194.556 189.959C194.716 189.557 194.787 189.129 194.766 188.701C194.744 188.273 194.631 187.853 194.432 187.466C192.778 183.351 187.08 178.887 183.492 183.708C181.184 182.423 180.123 184.964 177.918 185.476Z" fill="url(#paint29_linear_109:1219)"/>
</g>
<defs>
<linearGradient id="paint0_linear_109:1219" x1="264.583" y1="320.646" x2="219.894" y2="139.288" gradientUnits="userSpaceOnUse">
<stop offset="0.01"/>
<stop offset="0.13" stop-opacity="0.69"/>
<stop offset="1" stop-opacity="0"/>
</linearGradient>
<linearGradient id="paint1_linear_109:1219" x1="17485.9" y1="18714.3" x2="106077" y2="18714.3" gradientUnits="userSpaceOnUse">
<stop offset="0.01"/>
<stop offset="0.13" stop-opacity="0.69"/>
<stop offset="1" stop-opacity="0"/>
</linearGradient>
<linearGradient id="paint2_linear_109:1219" x1="61315" y1="-6925.83" x2="65119.7" y2="-8083.12" gradientUnits="userSpaceOnUse">
<stop offset="0.01"/>
<stop offset="0.13" stop-opacity="0.69"/>
<stop offset="1" stop-opacity="0"/>
</linearGradient>
<linearGradient id="paint3_linear_109:1219" x1="4482.24" y1="585.502" x2="4497.7" y2="580.799" gradientUnits="userSpaceOnUse">
<stop offset="0.01"/>
<stop offset="0.13" stop-opacity="0.69"/>
<stop offset="1" stop-opacity="0"/>
</linearGradient>
<linearGradient id="paint4_linear_109:1219" x1="6050.47" y1="1279.18" x2="5859.38" y2="1066.47" gradientUnits="userSpaceOnUse">
<stop offset="0.01"/>
<stop offset="0.13" stop-opacity="0.69"/>
<stop offset="1" stop-opacity="0"/>
</linearGradient>
<linearGradient id="paint5_linear_109:1219" x1="9330.7" y1="1498.13" x2="9069.66" y2="1188.6" gradientUnits="userSpaceOnUse">
<stop offset="0.01"/>
<stop offset="0.13" stop-opacity="0.69"/>
<stop offset="1" stop-opacity="0"/>
</linearGradient>
<linearGradient id="paint6_linear_109:1219" x1="8542.05" y1="2468.64" x2="8204.55" y2="2164.3" gradientUnits="userSpaceOnUse">
<stop offset="0.01"/>
<stop offset="0.13" stop-opacity="0.69"/>
<stop offset="1" stop-opacity="0"/>
</linearGradient>
<linearGradient id="paint7_linear_109:1219" x1="8432.3" y1="3166.05" x2="8452.65" y2="3159.87" gradientUnits="userSpaceOnUse">
<stop offset="0.01"/>
<stop offset="0.13" stop-opacity="0.69"/>
<stop offset="1" stop-opacity="0"/>
</linearGradient>
<linearGradient id="paint8_linear_109:1219" x1="9076.93" y1="3945.34" x2="9098.29" y2="3938.84" gradientUnits="userSpaceOnUse">
<stop offset="0.01"/>
<stop offset="0.13" stop-opacity="0.69"/>
<stop offset="1" stop-opacity="0"/>
</linearGradient>
<linearGradient id="paint9_linear_109:1219" x1="10773.6" y1="4336.04" x2="10803.6" y2="4326.9" gradientUnits="userSpaceOnUse">
<stop offset="0.01"/>
<stop offset="0.13" stop-opacity="0.69"/>
<stop offset="1" stop-opacity="0"/>
</linearGradient>
<linearGradient id="paint10_linear_109:1219" x1="7873.88" y1="3176.06" x2="7891.48" y2="3170.71" gradientUnits="userSpaceOnUse">
<stop offset="0.01"/>
<stop offset="0.13" stop-opacity="0.69"/>
<stop offset="1" stop-opacity="0"/>
</linearGradient>
<linearGradient id="paint11_linear_109:1219" x1="67927.1" y1="-7109.68" x2="67751.3" y2="-8370.78" gradientUnits="userSpaceOnUse">
<stop offset="0.01"/>
<stop offset="0.13" stop-opacity="0.69"/>
<stop offset="1" stop-opacity="0"/>
</linearGradient>
<linearGradient id="paint12_linear_109:1219" x1="11006.6" y1="4191.87" x2="14980.5" y2="4191.87" gradientUnits="userSpaceOnUse">
<stop offset="0.01"/>
<stop offset="0.13" stop-opacity="0.69"/>
<stop offset="1" stop-opacity="0"/>
</linearGradient>
<linearGradient id="paint13_linear_109:1219" x1="65095.1" y1="-6449.63" x2="64919.3" y2="-7710.75" gradientUnits="userSpaceOnUse">
<stop offset="0.01"/>
<stop offset="0.13" stop-opacity="0.69"/>
<stop offset="1" stop-opacity="0"/>
</linearGradient>
<linearGradient id="paint14_linear_109:1219" x1="212.848" y1="140.6" x2="267.858" y2="140.6" gradientUnits="userSpaceOnUse">
<stop offset="0.01" stop-color="white"/>
<stop offset="0.13" stop-color="white" stop-opacity="0.69"/>
<stop offset="1" stop-color="white" stop-opacity="0"/>
</linearGradient>
<linearGradient id="paint15_linear_109:1219" x1="7627.84" y1="5354.1" x2="8858.81" y2="5354.1" gradientUnits="userSpaceOnUse">
<stop offset="0.01"/>
<stop offset="0.13" stop-opacity="0.69"/>
<stop offset="1" stop-opacity="0"/>
</linearGradient>
<linearGradient id="paint16_linear_109:1219" x1="32392.5" y1="8512.77" x2="32117.1" y2="2444.99" gradientUnits="userSpaceOnUse">
<stop offset="0.01"/>
<stop offset="0.13" stop-opacity="0.69"/>
<stop offset="1" stop-opacity="0"/>
</linearGradient>
<linearGradient id="paint17_linear_109:1219" x1="3937.83" y1="2435.03" x2="4373.05" y2="2435.03" gradientUnits="userSpaceOnUse">
<stop offset="0.01"/>
<stop offset="0.13" stop-opacity="0.69"/>
<stop offset="1" stop-opacity="0"/>
</linearGradient>
<linearGradient id="paint18_linear_109:1219" x1="9627.64" y1="3862" x2="9263.2" y2="5128.17" gradientUnits="userSpaceOnUse">
<stop offset="0.01"/>
<stop offset="0.13" stop-opacity="0.69"/>
<stop offset="1" stop-opacity="0"/>
</linearGradient>
<linearGradient id="paint19_linear_109:1219" x1="5427.4" y1="4491.58" x2="5573.4" y2="3767.18" gradientUnits="userSpaceOnUse">
<stop offset="0.01"/>
<stop offset="0.13" stop-opacity="0.69"/>
<stop offset="1" stop-opacity="0"/>
</linearGradient>
<linearGradient id="paint20_linear_109:1219" x1="52970.3" y1="-4747.18" x2="56775.6" y2="-5904.65" gradientUnits="userSpaceOnUse">
<stop offset="0.01"/>
<stop offset="0.13" stop-opacity="0.69"/>
<stop offset="1" stop-opacity="0"/>
</linearGradient>
<linearGradient id="paint21_linear_109:1219" x1="3756.23" y1="800.43" x2="3771.72" y2="795.717" gradientUnits="userSpaceOnUse">
<stop offset="0.01"/>
<stop offset="0.13" stop-opacity="0.69"/>
<stop offset="1" stop-opacity="0"/>
</linearGradient>
<linearGradient id="paint22_linear_109:1219" x1="5158.76" y1="1533.16" x2="4967.57" y2="1320.53" gradientUnits="userSpaceOnUse">
<stop offset="0.01"/>
<stop offset="0.13" stop-opacity="0.69"/>
<stop offset="1" stop-opacity="0"/>
</linearGradient>
<linearGradient id="paint23_linear_109:1219" x1="8050.35" y1="1848.87" x2="7789.38" y2="1539.18" gradientUnits="userSpaceOnUse">
<stop offset="0.01"/>
<stop offset="0.13" stop-opacity="0.69"/>
<stop offset="1" stop-opacity="0"/>
</linearGradient>
<linearGradient id="paint24_linear_109:1219" x1="7393.87" y1="2780.88" x2="7056.37" y2="2476.53" gradientUnits="userSpaceOnUse">
<stop offset="0.01"/>
<stop offset="0.13" stop-opacity="0.69"/>
<stop offset="1" stop-opacity="0"/>
</linearGradient>
<linearGradient id="paint25_linear_109:1219" x1="7316.44" y1="3465.52" x2="7336.75" y2="3459.34" gradientUnits="userSpaceOnUse">
<stop offset="0.01"/>
<stop offset="0.13" stop-opacity="0.69"/>
<stop offset="1" stop-opacity="0"/>
</linearGradient>
<linearGradient id="paint26_linear_109:1219" x1="7918.14" y1="4251.94" x2="7939.56" y2="4245.43" gradientUnits="userSpaceOnUse">
<stop offset="0.01"/>
<stop offset="0.13" stop-opacity="0.69"/>
<stop offset="1" stop-opacity="0"/>
</linearGradient>
<linearGradient id="paint27_linear_109:1219" x1="9437.62" y1="4685.81" x2="9467.66" y2="4676.67" gradientUnits="userSpaceOnUse">
<stop offset="0.01"/>
<stop offset="0.13" stop-opacity="0.69"/>
<stop offset="1" stop-opacity="0"/>
</linearGradient>
<linearGradient id="paint28_linear_109:1219" x1="6850.59" y1="3453.26" x2="6868.24" y2="3447.89" gradientUnits="userSpaceOnUse">
<stop offset="0.01"/>
<stop offset="0.13" stop-opacity="0.69"/>
<stop offset="1" stop-opacity="0"/>
</linearGradient>
<linearGradient id="paint29_linear_109:1219" x1="58967.8" y1="-4769.67" x2="58792.2" y2="-6030.94" gradientUnits="userSpaceOnUse">
<stop offset="0.01"/>
<stop offset="0.13" stop-opacity="0.69"/>
<stop offset="1" stop-opacity="0"/>
</linearGradient>
<clipPath id="clip0_109:1219">
<rect width="437" height="306" fill="white"/>
</clipPath>
</defs>
</svg>
