<svg width="143" height="108" viewBox="0 0 143 108" fill="none" xmlns="http://www.w3.org/2000/svg">
<g clip-path="url(#clip0_203:243)">
<path opacity="0.18" d="M48.8622 1.72656C39.7068 3.73016 30.9142 8.13983 24.6394 15.1416C21.3054 18.8503 18.6884 23.3248 17.7297 28.2278C16.948 32.3302 17.3539 36.5538 17.1121 40.7211C16.7786 46.3623 15.2661 51.8704 12.6726 56.8885C9.53735 62.9469 4.78694 68.4081 3.81958 75.1503C3.38772 78.266 3.78503 81.451 4.51919 84.5106C6.35889 92.2004 10.5177 99.6566 17.2417 103.798C22.7392 107.182 29.42 108.069 35.8763 108.017C51.5094 107.892 66.7065 102.738 82.3137 101.825C95.4638 101.054 109.478 103.123 121.159 97.0385C125.387 94.8272 129.032 91.6508 132.426 88.2927C135.821 84.9346 139.336 80.75 139.336 75.8859C139.336 72.7832 137.924 69.8838 136.542 67.1099C131.822 57.6501 127.041 48.0691 119.993 40.1759C117.324 37.1856 114.323 34.4247 112.323 30.9455C108.514 24.3201 108.558 15.5138 103.086 10.1737C97.6144 4.83366 85.7686 2.85169 78.4961 1.29381C69.276 -0.68383 58.0391 -0.277051 48.8622 1.72656Z" fill="#A3ABAD"/>
<path opacity="0.18" d="M65.048 70.9269C55.2579 71.563 45.3986 70.4466 35.6386 71.4159C25.8787 72.3853 15.7473 75.8688 9.77477 83.6669C9.34654 84.1683 9.03656 84.7599 8.86787 85.3979C8.58716 86.8389 9.67112 88.1761 10.7896 89.1238C17.0213 94.399 25.8485 94.9183 33.9976 95.1822L90.0439 97.0647C101.838 97.4585 114.392 97.6705 124.493 91.5515C127.516 89.7253 130.362 87.1159 131.074 83.6582C134.292 68.0145 108.415 72.2641 100.784 68.9017C95.9776 66.7855 93.5246 65.007 88.0314 66.1364C80.2234 67.7203 73.1367 70.4033 65.048 70.9269Z" fill="#A3ABAD"/>
<path d="M56.791 45.5333C57.3654 46.2386 57.1667 47.3811 56.9249 48.1644C56.8724 48.3485 56.8015 48.5268 56.7133 48.6966C56.627 48.8537 56.5211 48.9991 56.398 49.1294C56.0713 49.459 55.6741 49.7101 55.2366 49.8638C54.799 50.0175 54.3323 50.0697 53.8717 50.0165C52.9452 49.8984 52.0971 49.4349 51.4965 48.7183C51.3343 48.5471 51.2158 48.3393 51.151 48.1124C51.0824 47.7333 51.1122 47.3429 51.2373 46.9786C51.2883 46.8113 51.3739 46.6567 51.4885 46.5247C51.6031 46.3927 51.7441 46.2864 51.9024 46.2127C52.0983 46.1604 52.2914 46.0983 52.4811 46.0266C53.2757 45.5938 53.0252 44.4211 54.0833 44.2956C54.947 44.1615 56.2728 44.8928 56.791 45.5333Z" fill="#A3ABAD"/>
<path d="M56.791 45.5333C57.3654 46.2386 57.1667 47.3811 56.9249 48.1644C56.8724 48.3485 56.8015 48.5268 56.7133 48.6966C56.627 48.8537 56.5211 48.9991 56.398 49.1294C56.0713 49.459 55.6741 49.7101 55.2366 49.8638C54.799 50.0175 54.3323 50.0697 53.8717 50.0165C52.9452 49.8984 52.0971 49.4349 51.4965 48.7183C51.3343 48.5471 51.2158 48.3393 51.151 48.1124C51.0824 47.7333 51.1122 47.3429 51.2373 46.9786C51.2883 46.8113 51.3739 46.6567 51.4885 46.5247C51.6031 46.3927 51.7441 46.2864 51.9024 46.2127C52.0983 46.1604 52.2914 46.0983 52.4811 46.0266C53.2757 45.5938 53.0252 44.4211 54.0833 44.2956C54.947 44.1615 56.2728 44.8928 56.791 45.5333Z" fill="url(#paint0_linear_203:243)"/>
<path d="M79.3253 90.9845C91.9495 90.9845 102.183 89.266 102.183 87.1461C102.183 85.0261 91.9495 83.3076 79.3253 83.3076C66.7011 83.3076 56.4672 85.0261 56.4672 87.1461C56.4672 89.266 66.7011 90.9845 79.3253 90.9845Z" fill="url(#paint1_linear_203:243)"/>
<path d="M97.0658 64.5352V64.5655C97.0658 79.1577 84.5981 90.963 69.2197 90.963C68.4165 90.963 67.6176 90.9327 66.8316 90.8634C52.5803 89.7166 41.3737 78.3744 41.3737 64.5439V64.5136C41.3737 62.5143 44.3535 60.6968 49.1859 59.3596C54.2516 57.9619 61.3556 57.092 69.2197 57.092C84.5938 57.1137 97.0658 60.4372 97.0658 64.5352Z" fill="#A3ABAD"/>
<path d="M97.0658 64.5352V64.5655C97.0658 79.1577 84.5981 90.963 69.2197 90.963C68.4165 90.963 67.6176 90.9327 66.8316 90.8634C52.5803 89.7166 41.3737 78.3744 41.3737 64.5439V64.5136C41.3737 62.5143 44.3535 60.6968 49.1859 59.3596C54.2516 57.9619 61.3556 57.092 69.2197 57.092C84.5938 57.1137 97.0658 60.4372 97.0658 64.5352Z" fill="url(#paint2_linear_203:243)"/>
<path d="M86.7877 72.4846C87.0227 72.4415 87.2628 72.4327 87.5003 72.4586C88.0099 72.5495 88.364 72.9995 88.7008 73.389C89.9241 74.8037 91.5428 75.8183 93.3476 76.3014C93.4556 76.3273 93.5894 76.3446 93.6499 76.2581C93.6672 76.2267 93.678 76.1921 93.6817 76.1564C93.6854 76.1208 93.6819 76.0847 93.6715 76.0504L93.0799 72.2898C92.9927 71.5868 92.8483 70.8921 92.648 70.2127C92.5701 69.9285 92.4299 69.6654 92.2377 69.4424C91.8966 69.1456 91.4791 68.9507 91.0329 68.8798C90.5266 68.7182 89.9963 68.645 89.4652 68.6634C89.0155 68.7263 88.5784 68.8592 88.1696 69.0572C87.2023 69.49 84.9782 70.0872 84.568 71.1561C84.0022 72.5668 85.911 72.5798 86.7877 72.4846Z" fill="url(#paint3_linear_203:243)"/>
<path d="M83.6784 66.5908V66.621C83.6784 77.4959 76.7687 86.8345 66.836 90.885C52.5847 89.7383 41.3781 78.396 41.3781 64.5655V64.5352C41.3781 62.5359 44.3579 60.7184 49.1903 59.3812C51.3107 59.2428 53.5089 59.1692 55.8107 59.1692C71.1804 59.1692 83.6438 62.4927 83.6784 66.5908Z" fill="white"/>
<path d="M49.9936 74.6484L51.1207 75.1028C51.3791 75.2217 51.6545 75.2991 51.9369 75.3322C52.2754 75.3226 52.606 75.2271 52.8975 75.0545C53.1891 74.8819 53.4322 74.638 53.6039 74.3455C53.8081 73.9682 54.0623 73.6203 54.3596 73.3112C54.9081 72.8439 55.7027 72.8439 56.3591 72.5496C56.4935 72.5039 56.605 72.4077 56.6701 72.2813C56.6913 72.1764 56.6828 72.0677 56.6454 71.9675C56.6079 71.8672 56.5432 71.7796 56.4585 71.7144C56.2064 71.4634 55.9039 71.2692 55.571 71.1445C55.2381 71.0199 54.8826 70.9678 54.5281 70.9917C54.1347 71.0456 53.7452 71.1251 53.3621 71.2297C52.8654 71.3293 52.3515 71.3596 51.8506 71.4634C50.9221 71.6668 49.4063 72.2164 48.7282 72.9131C47.925 73.757 49.2897 74.3715 49.9936 74.6484Z" fill="url(#paint4_linear_203:243)"/>
<path d="M62.8974 73.6533C62.4655 74.7524 63.1003 76.0896 62.5735 77.1542C62.3036 77.6061 61.8719 77.9378 61.3663 78.0817C60.8608 78.2257 60.3195 78.171 59.8528 77.9288C59.3977 77.6629 59.026 77.2748 58.7795 76.8083C58.533 76.3418 58.4216 75.8156 58.4579 75.289C58.5518 74.2294 59.0097 73.2353 59.7534 72.4762C59.9421 72.2581 60.1601 72.0673 60.4012 71.9093C61.1181 71.4765 62.025 71.5155 62.8628 71.5977C63.3983 71.6496 64.7716 71.4852 64.3268 72.2036C63.9597 72.7834 63.1867 72.9133 62.8974 73.6533Z" fill="url(#paint5_linear_203:243)"/>
<path d="M97.0658 64.5353V64.5656C97.0226 68.6637 84.5722 71.9785 69.2197 71.9785C53.8673 71.9785 41.4168 68.6637 41.3737 64.5656V64.5353C41.3737 60.4373 53.8543 57.1138 69.2197 57.1138C84.5852 57.1138 97.0658 60.4373 97.0658 64.5353Z" fill="#A3ABAD"/>
<path d="M97.0658 64.5353V64.5656C97.0226 68.6637 84.5722 71.9785 69.2197 71.9785C53.8673 71.9785 41.4168 68.6637 41.3737 64.5656V64.5353C41.3737 60.4373 53.8543 57.1138 69.2197 57.1138C84.5852 57.1138 97.0658 60.4373 97.0658 64.5353Z" fill="url(#paint6_linear_203:243)"/>
<path d="M57.089 52.9072C56.3375 52.2019 55.4306 51.4489 54.4115 51.609C53.3923 51.7691 52.7704 52.6865 52.2738 53.5564C51.3323 52.7385 50.3391 51.8903 49.1255 51.6003C47.912 51.3104 46.4178 51.7864 45.9816 52.9592C46.3449 53.3068 46.6282 53.7297 46.8117 54.1983C46.9951 54.6669 47.0744 55.17 47.044 55.6725C43.1802 54.8596 39.2192 54.6118 35.2845 54.9368C38.4241 58.3988 41.7365 61.9905 46.1112 63.6393C43.8787 63.2699 41.5884 63.7316 39.6722 64.9375C40.3054 66.1061 41.3256 67.0167 42.557 67.5124C43.2195 67.7544 43.9035 67.9326 44.5997 68.0446C46.4005 68.3995 48.2402 68.75 50.054 68.5033C50.5563 68.369 51.0849 68.369 51.5871 68.5033C51.9568 68.7003 52.276 68.9802 52.5199 69.3212C53.9451 70.983 56.0784 72.4067 58.1945 71.8571C58.9373 71.6667 59.611 71.2426 60.3538 71.0998C61.0562 71.0148 61.7676 71.0425 62.4612 71.182C66.2028 71.7099 69.9963 71.7579 73.75 71.3248C74.6816 71.1888 75.6203 71.1065 76.5614 71.0782C78.9625 71.0782 81.3895 71.9653 83.7215 71.3811C84.3402 71.1742 84.9722 71.0094 85.6131 70.8878C87.4571 70.6844 89.34 72.0518 91.0804 71.4027C91.6493 71.1542 92.1587 70.7868 92.5746 70.3252C94.4193 68.4936 95.8096 66.2541 96.634 63.7864C97.0659 62.4276 97.4977 60.8221 98.8235 60.2639L93.2699 60.173C92.9888 60.1835 92.7084 60.1379 92.445 60.0389C92.1662 59.8868 91.9346 59.6607 91.7756 59.3854C91.2885 58.6433 90.9827 57.7966 90.8829 56.914C90.7831 56.0313 90.8922 55.1375 91.2013 54.305C91.3654 53.8723 91.564 53.3097 91.2272 53.0068C91.0288 52.8548 90.7804 52.7837 90.5319 52.8077C89.5316 52.8302 88.5648 53.173 87.773 53.7858C86.9811 54.3986 86.4058 55.2493 86.1313 56.2134L84.4557 51.5095C84.4311 51.3947 84.3841 51.2859 84.3174 51.1893C84.2507 51.0928 84.1656 51.0104 84.067 50.9469C83.7561 50.8041 83.4149 51.0508 83.1774 51.2931C81.9197 52.5692 81.0379 54.1686 80.6294 55.9148C80.5085 56.4211 80.4049 56.9837 79.986 57.2953C79.3943 57.728 78.5695 57.4164 77.8569 57.226C77.1444 57.0356 76.1295 57.226 76.0561 57.9444C75.3872 56.4098 74.5438 54.9577 73.5427 53.6169L71.6425 56.6894C71.5956 56.7893 71.5295 56.8789 71.448 56.9532C71.3665 57.0275 71.2712 57.0849 71.1675 57.1222C71.0551 57.1325 70.9418 57.1194 70.8348 57.0836C70.7278 57.0479 70.6293 56.9903 70.5456 56.9144C69.9016 56.458 69.3207 55.9182 68.8182 55.309L66.7884 58.1175C66.1432 57.8046 65.5686 57.3628 65.0999 56.8192C64.5428 56.2913 63.8043 55.7547 63.0097 55.9062C62.4742 56.01 62.051 56.7716 61.563 56.7933C60.3322 56.8019 57.9829 53.7424 57.089 52.9072Z" fill="#A3ABAD"/>
<path d="M57.089 52.9072C56.3375 52.2019 55.4306 51.4489 54.4115 51.609C53.3923 51.7691 52.7704 52.6865 52.2738 53.5564C51.3323 52.7385 50.3391 51.8903 49.1255 51.6003C47.912 51.3104 46.4178 51.7864 45.9816 52.9592C46.3449 53.3068 46.6282 53.7297 46.8117 54.1983C46.9951 54.6669 47.0744 55.17 47.044 55.6725C43.1802 54.8596 39.2192 54.6118 35.2845 54.9368C38.4241 58.3988 41.7365 61.9905 46.1112 63.6393C43.8787 63.2699 41.5884 63.7316 39.6722 64.9375C40.3054 66.1061 41.3256 67.0167 42.557 67.5124C43.2195 67.7544 43.9035 67.9326 44.5997 68.0446C46.4005 68.3995 48.2402 68.75 50.054 68.5033C50.5563 68.369 51.0849 68.369 51.5871 68.5033C51.9568 68.7003 52.276 68.9802 52.5199 69.3212C53.9451 70.983 56.0784 72.4067 58.1945 71.8571C58.9373 71.6667 59.611 71.2426 60.3538 71.0998C61.0562 71.0148 61.7676 71.0425 62.4612 71.182C66.2028 71.7099 69.9963 71.7579 73.75 71.3248C74.6816 71.1888 75.6203 71.1065 76.5614 71.0782C78.9625 71.0782 81.3895 71.9653 83.7215 71.3811C84.3402 71.1742 84.9722 71.0094 85.6131 70.8878C87.4571 70.6844 89.34 72.0518 91.0804 71.4027C91.6493 71.1542 92.1587 70.7868 92.5746 70.3252C94.4193 68.4936 95.8096 66.2541 96.634 63.7864C97.0659 62.4276 97.4977 60.8221 98.8235 60.2639L93.2699 60.173C92.9888 60.1835 92.7084 60.1379 92.445 60.0389C92.1662 59.8868 91.9346 59.6607 91.7756 59.3854C91.2885 58.6433 90.9827 57.7966 90.8829 56.914C90.7831 56.0313 90.8922 55.1375 91.2013 54.305C91.3654 53.8723 91.564 53.3097 91.2272 53.0068C91.0288 52.8548 90.7804 52.7837 90.5319 52.8077C89.5316 52.8302 88.5648 53.173 87.773 53.7858C86.9811 54.3986 86.4058 55.2493 86.1313 56.2134L84.4557 51.5095C84.4311 51.3947 84.3841 51.2859 84.3174 51.1893C84.2507 51.0928 84.1656 51.0104 84.067 50.9469C83.7561 50.8041 83.4149 51.0508 83.1774 51.2931C81.9197 52.5692 81.0379 54.1686 80.6294 55.9148C80.5085 56.4211 80.4049 56.9837 79.986 57.2953C79.3943 57.728 78.5695 57.4164 77.8569 57.226C77.1444 57.0356 76.1295 57.226 76.0561 57.9444C75.3872 56.4098 74.5438 54.9577 73.5427 53.6169L71.6425 56.6894C71.5956 56.7893 71.5295 56.8789 71.448 56.9532C71.3665 57.0275 71.2712 57.0849 71.1675 57.1222C71.0551 57.1325 70.9418 57.1194 70.8348 57.0836C70.7278 57.0479 70.6293 56.9903 70.5456 56.9144C69.9016 56.458 69.3207 55.9182 68.8182 55.309L66.7884 58.1175C66.1432 57.8046 65.5686 57.3628 65.0999 56.8192C64.5428 56.2913 63.8043 55.7547 63.0097 55.9062C62.4742 56.01 62.051 56.7716 61.563 56.7933C60.3322 56.8019 57.9829 53.7424 57.089 52.9072Z" fill="url(#paint7_linear_203:243)"/>
<path d="M54.2171 59.7577C55.7865 59.7577 57.0587 58.4828 57.0587 56.9102C57.0587 55.3376 55.7865 54.0627 54.2171 54.0627C52.6477 54.0627 51.3755 55.3376 51.3755 56.9102C51.3755 58.4828 52.6477 59.7577 54.2171 59.7577Z" fill="#A3ABAD"/>
<path d="M54.2171 59.7577C55.7865 59.7577 57.0587 58.4828 57.0587 56.9102C57.0587 55.3376 55.7865 54.0627 54.2171 54.0627C52.6477 54.0627 51.3755 55.3376 51.3755 56.9102C51.3755 58.4828 52.6477 59.7577 54.2171 59.7577Z" fill="url(#paint8_linear_203:243)"/>
<path d="M93.3044 64.0678C93.2364 64.1506 93.1546 64.2209 93.0625 64.2755C92.9258 64.3313 92.7774 64.3521 92.6307 64.3361H91.2833C91.1745 64.3251 91.065 64.3462 90.968 64.3967C90.8886 64.4593 90.8287 64.5434 90.7953 64.639C90.564 65.1849 90.4677 65.7788 90.5146 66.37C90.9464 66.37 91.2617 65.9719 91.6072 65.7122C92.4147 65.1064 93.5808 65.1323 94.3451 64.4702C94.6518 64.2019 94.8806 63.8341 95.252 63.6697C95.3372 63.626 95.4336 63.6094 95.5284 63.6221C95.7746 63.661 95.8825 63.9553 95.9128 64.2063C96.0016 64.9136 95.8495 65.6303 95.4809 66.2402L92.8077 68.9794C92.1099 69.9084 91.1166 70.571 89.992 70.8575C88.8905 71.1547 87.7506 71.2846 86.6106 71.2427C85.6216 71.2427 84.4729 71.1129 83.9374 70.282C83.6773 69.7914 83.5521 69.2403 83.5746 68.6852L83.3846 64.5135C83.3599 64.2762 83.3745 64.0364 83.4278 63.8038C83.625 63.3281 83.9785 62.9341 84.4297 62.6873L87.3016 60.6837C87.7082 60.3713 88.1576 60.1191 88.636 59.9351C89.0895 59.8126 89.5569 59.7501 90.0266 59.749C91.0069 59.7057 91.9872 59.6668 92.9632 59.7187C93.8269 59.7706 95.4507 59.7187 95.4205 60.9737C95.4032 61.9949 93.9824 63.3062 93.3044 64.0678Z" fill="url(#paint9_linear_203:243)"/>
<path d="M95.7357 68.2566C96.0486 68.8676 96.4535 69.4266 96.9363 69.9141C96.9752 69.953 97.014 69.992 97.0097 70.0439C97.0054 70.0958 96.9277 70.1564 96.8586 70.1824C96.6983 70.2342 96.5354 70.2776 96.3706 70.3122C96.4829 70.337 96.5823 70.4023 96.65 70.4956C96.7176 70.5888 96.7488 70.7037 96.7376 70.8185C96.7195 70.9336 96.6588 71.0376 96.5675 71.1098C96.4763 71.1819 96.3612 71.217 96.2453 71.208C96.0985 71.1695 95.9543 71.1218 95.8135 71.0652C95.6623 71.0349 95.4593 71.1171 95.4593 71.2729C95.0681 71.1126 94.6379 71.0734 94.2242 71.1604C94.4798 71.4108 94.6901 71.7036 94.8461 72.0259C94.8919 72.1102 94.9142 72.2055 94.9104 72.3015C94.9066 72.3975 94.8769 72.4906 94.8245 72.5711C94.6993 72.7182 94.3927 72.6447 94.3927 72.4499C94.3659 72.54 94.3189 72.6227 94.2553 72.6918C94.1917 72.7608 94.1131 72.8142 94.0256 72.8481C94.2726 73.3469 94.475 73.8668 94.6302 74.4016C94.6561 74.4838 94.6734 74.592 94.6086 74.6483C94.5816 74.6663 94.5508 74.678 94.5187 74.6825C94.4865 74.687 94.4538 74.6842 94.4229 74.6742C94.0472 74.5877 93.7578 74.2415 93.3735 74.1939C93.0582 74.1463 92.6609 74.2891 92.4579 74.0424C92.5789 74.2242 92.3629 74.4752 92.1427 74.4752C91.9233 74.4499 91.7206 74.3453 91.5726 74.1809L90.8385 73.5448C90.6823 73.3789 90.4759 73.2693 90.2512 73.2332C90.1154 73.2433 89.9809 73.2664 89.8495 73.3024C89.6962 73.3245 89.5397 73.3066 89.3953 73.2505C89.2508 73.1944 89.1232 73.102 89.0247 72.9822C89.0135 73.0117 88.9963 73.0385 88.9742 73.0609C88.952 73.0832 88.9254 73.1007 88.8961 73.1121C88.8668 73.1235 88.8354 73.1287 88.804 73.1272C88.7726 73.1257 88.7418 73.1176 88.7138 73.1034C88.6008 73.0428 88.5089 72.9493 88.4503 72.8351L87.6989 71.7056C87.6525 71.6227 87.5892 71.5505 87.5132 71.4936C87.3953 71.4359 87.2638 71.4119 87.1332 71.4243C86.7325 71.4157 86.3347 71.3546 85.9499 71.2426C85.5612 71.1301 85.3669 71.0652 85.6476 70.7146C85.9283 70.3641 86.1356 70.1737 86.3558 69.8838C86.5333 69.5891 86.731 69.3071 86.9475 69.0399C87.3972 69.1237 87.8617 69.0663 88.2776 68.8755C89.0795 68.4012 89.8318 67.8474 90.5232 67.2224C91.266 66.5906 92.0131 65.9588 92.6825 65.2577C93.2402 64.6762 93.7595 64.059 94.2372 63.4099C94.7962 63.8664 95.2662 64.4224 95.6235 65.05C95.8567 65.5092 95.9253 66.0348 95.8178 66.5387C95.7141 66.9714 95.2823 67.2224 95.4593 67.6681C95.55 67.8672 95.6407 68.0662 95.7357 68.2566Z" fill="#A3ABAD"/>
<path d="M86.1097 70.0267C86.5519 69.9092 87.0083 69.8539 87.4657 69.8622C87.5584 69.8572 87.6512 69.8719 87.7378 69.9055C87.9321 69.992 88.0185 70.2214 88.1696 70.3642C88.4676 70.6455 88.934 70.5719 89.3356 70.6412C90.3332 70.8229 90.9853 71.9697 91.9959 72.0303C91.7022 71.6235 91.1926 71.4504 90.7824 71.1648C90.5276 70.9917 90.303 70.7753 90.0439 70.6152C89.612 70.3555 89.1068 70.256 88.7051 69.9661C89.6603 69.8664 90.6223 70.0741 91.4517 70.5589C91.7341 70.7161 92.0305 70.8465 92.337 70.9484C92.4834 70.9816 92.6276 71.0235 92.7689 71.0739C93.0318 71.216 93.2708 71.3985 93.4771 71.6148C93.5076 71.6427 93.5449 71.662 93.5851 71.6711C93.6758 71.6711 93.7319 71.5542 93.6974 71.472C93.6522 71.3918 93.5826 71.3281 93.4987 71.2903C92.3298 70.6383 91.1307 70.0353 89.9014 69.4814C90.6095 69.4234 91.321 69.5393 91.9743 69.8189C92.3686 70.1018 92.7878 70.348 93.2267 70.5546C93.1687 70.28 93.0157 70.0348 92.7948 69.8622C92.5694 69.6896 92.3244 69.5443 92.065 69.4295L90.6701 68.7674C90.6701 68.6375 90.8169 68.5597 90.9465 68.5337C91.4541 68.4661 91.9706 68.5379 92.4407 68.7414C92.92 68.9188 93.3735 69.1742 93.8615 69.3083C94.2631 69.4338 94.682 69.4944 95.0793 69.6285C95.4636 69.7655 95.8362 69.9334 96.1935 70.1305C95.5198 69.265 94.384 68.9837 93.3174 68.802C93.0773 68.7792 92.8455 68.7023 92.6393 68.577C92.5098 68.4774 92.4105 68.339 92.2895 68.2308C92.2333 68.1761 92.1645 68.136 92.0892 68.1141C92.0139 68.0923 91.9344 68.0892 91.8577 68.1053C91.9909 67.9199 92.1609 67.7643 92.3572 67.6481C92.5534 67.5319 92.7715 67.4577 92.9978 67.4302C93.4506 67.376 93.9073 67.363 94.3624 67.3912C94.6086 67.3912 94.9282 67.335 94.98 67.0927C94.2246 67.2201 93.4517 67.1995 92.7041 67.0321C92.6782 66.9369 92.7819 66.8546 92.8682 66.807C93.4234 66.5121 94.001 66.2618 94.5957 66.0584C95.075 65.894 95.2175 65.2318 95.2132 64.7212C95.0022 64.9908 94.7375 65.2133 94.4359 65.3747L94.5654 64.3447C93.8097 65.2751 92.4925 65.4828 91.4949 66.1449C90.7133 66.6642 89.3356 66.6339 88.7181 67.3177C88.1005 68.0014 87.2671 68.6159 86.3299 68.6592C86.0535 68.6592 86.5718 69.4424 86.2954 69.4684C86.1563 69.471 86.0196 69.5051 85.8955 69.568C85.7713 69.631 85.663 69.7212 85.5785 69.8319C85.6821 69.9401 85.9715 69.9488 86.1097 70.0267Z" fill="url(#paint10_linear_203:243)"/>
<path d="M46.1328 64.4053C46.1888 64.6751 46.3189 64.9239 46.5085 65.1236L45.4375 65.0111C45.2382 65.0032 45.0414 64.9638 44.8545 64.8943C44.5102 64.7015 44.2307 64.4109 44.0512 64.0591C44.1516 64.4431 44.2875 64.8169 44.4572 65.1756C44.2318 65.0847 43.9828 65.071 43.7489 65.1366C43.2609 65.218 42.7666 65.2542 42.272 65.2448C42.2318 65.2489 42.1914 65.2414 42.1554 65.2232C42.1174 65.1947 42.0889 65.1555 42.0733 65.1107C41.9557 64.8391 41.7837 64.5946 41.568 64.3923C41.5076 64.7255 41.8747 65.0414 41.784 65.366C41.3694 65.3734 40.9569 65.306 40.5661 65.1669C40.5484 65.195 40.5425 65.2291 40.5498 65.2615C40.5571 65.294 40.5769 65.3222 40.605 65.34C40.6629 65.3728 40.7285 65.3893 40.795 65.3876C41.3014 65.4258 41.7992 65.5396 42.272 65.7252C42.2739 65.8262 42.2554 65.9267 42.2175 66.0204C42.1797 66.1141 42.1233 66.1991 42.0517 66.2704C42.0906 66.1622 42.2331 66.1492 42.3411 66.1016C42.449 66.054 42.5829 65.8766 42.7038 65.7554C42.9586 65.5481 43.2783 65.4377 43.6064 65.4439C43.9313 65.4507 44.2558 65.4202 44.5738 65.353C44.6827 65.5979 44.7555 65.8574 44.7897 66.1233L45.1006 65.2318C45.6836 65.5607 46.4437 65.2924 47.0699 65.5261C47.1303 65.5261 47.2038 65.5737 47.2513 65.5261C47.2762 65.4894 47.2938 65.4483 47.3031 65.4049C47.3232 65.3669 47.3539 65.3356 47.3915 65.3148C47.4291 65.2941 47.4719 65.2848 47.5147 65.2881C47.6003 65.296 47.6844 65.3149 47.7652 65.3443C48.318 65.4958 48.9139 65.3054 49.471 65.4309C49.1619 65.3384 48.8475 65.2647 48.5296 65.2102C48.2704 65.1885 48.0977 65.314 47.8429 65.2102C47.2573 64.9763 46.6863 64.7075 46.1328 64.4053Z" fill="#A3ABAD"/>
<path d="M49.9116 54.768C49.1281 53.8361 48.2381 52.9995 47.26 52.2754C48.4259 52.9237 49.4531 53.7957 50.283 54.8416C50.283 54.0756 50.2614 53.3096 50.2269 52.5437C50.4306 53.2752 50.5537 54.0269 50.5939 54.7853L51.2158 53.1366L50.9351 54.7247C50.9093 54.8367 50.9006 54.952 50.9092 55.0666C50.9452 55.2448 51.0221 55.4122 51.1338 55.5556L51.7643 54.1968C51.7465 54.6443 51.6454 55.0846 51.4663 55.495C51.313 55.7369 51.2461 56.0237 51.2763 56.3086C51.3281 56.4947 51.5354 56.7154 51.4447 56.9144C51.069 56.7154 51.0128 56.4081 50.8315 56.0489C50.5832 55.5828 50.2738 55.152 49.9116 54.768Z" fill="#A3ABAD"/>
<path d="M89.4005 63.9639C88.4806 64.3534 88.1827 65.4742 87.8717 66.4262C87.5658 67.3406 87.1465 68.2129 86.6237 69.0227C86.2096 69.6776 85.7275 70.2869 85.1856 70.8402C85.1424 70.8921 85.0949 70.9397 85.0431 70.9917C84.7509 71.3148 84.3931 71.5716 83.9936 71.7446C82.7801 72.2033 81.463 71.2427 80.1717 71.3855C79.7231 71.4734 79.2803 71.589 78.8459 71.7317C77.2178 72.1384 75.5206 71.5196 73.8407 71.5196C73.1815 71.5384 72.5239 71.5962 71.8714 71.6927C69.245 71.995 66.5908 71.9616 63.9728 71.5932C63.4882 71.4947 62.9909 71.4757 62.5002 71.5369C61.9733 71.6364 61.5026 71.9307 60.9844 72.0649C59.5031 72.45 58.0089 71.4547 57.0156 70.2906C56.8447 70.0528 56.6216 69.8573 56.3635 69.7194C56.0128 69.6239 55.6431 69.6239 55.2925 69.7194C54.011 69.8225 52.7214 69.7143 51.4749 69.3992C50.9881 69.3191 50.5096 69.1945 50.0454 69.027C49.1827 68.6795 48.4679 68.0413 48.0244 67.2224C49.365 66.3794 50.9663 66.0547 52.5286 66.3094C49.4711 65.1583 47.152 62.6483 44.9539 60.225C47.6992 59.998 50.4629 60.17 53.1591 60.7356C53.1823 60.3847 53.1281 60.0331 53.0005 59.7055C52.8729 59.3779 52.6749 59.0825 52.4206 58.8402C52.7273 58.018 53.768 57.6891 54.6188 57.8881C55.4511 58.1619 56.2061 58.6307 56.8213 59.2556C57.1667 58.6498 57.6245 57.9963 58.3155 57.8968C59.0065 57.7973 59.6629 58.3295 60.1897 58.8099C60.8159 59.3984 62.457 61.5362 63.3207 61.4972C63.6619 61.4972 63.9555 60.9477 64.3312 60.8784C64.897 60.7702 65.4066 61.1467 65.7909 61.5146C66.1196 61.8949 66.5222 62.2042 66.9742 62.4233L68.395 60.4587C68.7465 60.8845 69.1531 61.2615 69.6042 61.5795C69.6619 61.6329 69.7302 61.6736 69.8045 61.699C69.8789 61.7243 69.9578 61.7337 70.0361 61.7266C70.1834 61.6705 70.3029 61.5586 70.3686 61.415L71.6987 59.2513C72.3982 60.1904 72.9879 61.2068 73.4564 62.2805C73.4952 61.7655 74.2121 61.64 74.7131 61.7742C75.214 61.9083 75.7884 62.1377 76.203 61.8261C76.4542 61.5643 76.6069 61.2232 76.6348 60.8611C76.9192 59.6389 77.5366 58.5198 78.4184 57.6285C78.5868 57.4597 78.8243 57.2866 79.0403 57.3862C79.1098 57.429 79.1698 57.4856 79.2166 57.5526C79.2634 57.6196 79.296 57.6955 79.3123 57.7756L80.487 61.0688C80.6781 60.3936 81.0803 59.7975 81.6346 59.3684C82.1888 58.9392 82.8658 58.6994 83.5661 58.6844C83.6652 58.6741 83.7653 58.6859 83.8594 58.7188C83.9534 58.7517 84.0391 58.805 84.1102 58.8748C84.3478 59.0998 84.2096 59.4893 84.1102 59.7966C83.8944 60.3788 83.8183 61.0038 83.8881 61.621C83.9578 62.2382 84.1715 62.8303 84.5119 63.3494C84.6227 63.542 84.784 63.7006 84.9783 63.8081C85.1631 63.8771 85.3599 63.9081 85.557 63.899L89.4005 63.9639Z" fill="url(#paint11_linear_203:243)"/>
<path d="M64.2449 56.0706C65.5707 58.8618 68.9953 60.3071 70.0015 63.2281C70.0866 63.5363 70.1994 63.8361 70.3384 64.1239C70.5241 64.4528 70.8091 64.7125 71.0034 65.0327C71.5605 65.9588 71.2453 67.1445 70.9214 68.1701L70.0318 70.9916C69.8979 71.4243 69.751 72.0302 69.3106 72.0302L68.5807 72.3547C68.0107 71.9955 66.9181 71.9479 66.5337 71.4892C66.1494 71.0305 66.2573 69.966 66.0371 69.4164C65.562 68.222 64.8581 67.2051 64.4738 65.9544C63.982 64.3314 63.7174 62.6478 63.6878 60.9519C63.6705 60.1046 63.7138 59.2571 63.8173 58.416C63.8692 57.94 64.4219 56.4254 64.2449 56.0706Z" fill="#A3ABAD"/>
<path d="M64.2449 56.0706C65.5707 58.8618 68.9953 60.3071 70.0015 63.2281C70.0866 63.5363 70.1994 63.8361 70.3384 64.1239C70.5241 64.4528 70.8091 64.7125 71.0034 65.0327C71.5605 65.9588 71.2453 67.1445 70.9214 68.1701L70.0318 70.9916C69.8979 71.4243 69.751 72.0302 69.3106 72.0302L68.5807 72.3547C68.0107 71.9955 66.9181 71.9479 66.5337 71.4892C66.1494 71.0305 66.2573 69.966 66.0371 69.4164C65.562 68.222 64.8581 67.2051 64.4738 65.9544C63.982 64.3314 63.7174 62.6478 63.6878 60.9519C63.6705 60.1046 63.7138 59.2571 63.8173 58.416C63.8692 57.94 64.4219 56.4254 64.2449 56.0706Z" fill="url(#paint12_linear_203:243)"/>
<path d="M56.4973 69.3993C56.6917 70.6975 55.6336 71.8097 55.2018 73.0387C54.5281 74.8952 55.2881 77.0113 56.5319 78.5389C56.738 78.8153 56.9944 79.0502 57.2876 79.2313C57.6922 79.4105 58.144 79.453 58.5749 79.3523C59.0057 79.2516 59.3921 79.0131 59.6758 78.673C60.2259 77.9738 60.5404 77.1177 60.5741 76.228C60.6604 75.3625 60.6216 74.4581 60.7641 73.5883C60.8651 72.7008 61.3045 71.8867 61.9905 71.3164C62.1892 71.1736 62.4224 70.9961 62.3965 70.7581C62.3737 70.6736 62.3324 70.5952 62.2756 70.5288C61.5803 69.5681 60.7684 68.8324 59.5031 68.8714C59.136 68.88 56.506 69.4599 56.4973 69.3993Z" fill="#A3ABAD"/>
<path d="M52.3947 69.594C51.5495 69.205 50.7451 68.7324 49.9936 68.1833C49.186 67.6337 48.3784 67.0798 47.627 66.4523C47.0149 65.933 46.4378 65.3735 45.8996 64.7776C45.3921 65.2903 44.9823 65.8916 44.6904 66.5518C44.5497 66.8847 44.5015 67.2495 44.551 67.6076C44.6004 67.9656 44.7455 68.3036 44.9711 68.5857C45.092 68.6905 45.198 68.8114 45.2863 68.9449C45.3832 69.2513 45.3632 69.5828 45.2302 69.8753C45.0816 70.4114 45.0376 70.9712 45.1006 71.5241C45.109 71.6998 45.1675 71.8695 45.2691 72.0131C45.4323 72.1647 45.6248 72.281 45.8348 72.3549C46.4005 72.6449 46.733 73.255 47.2513 73.6272C47.8494 73.9892 48.5453 74.1556 49.2421 74.1032C49.9333 74.0497 50.6282 74.07 51.315 74.1638C51.5634 74.2416 51.8243 74.2709 52.0837 74.2504C52.4492 74.1335 52.7575 73.8833 52.9475 73.5493L54.0573 72.0347C54.1859 71.8269 54.364 71.6545 54.5756 71.5327C54.6829 71.477 54.8068 71.4621 54.9242 71.4908C55.0417 71.5194 55.1449 71.5896 55.2147 71.6885C55.3922 71.3492 55.4973 70.9766 55.5233 70.5945C55.5494 70.2123 55.4957 69.8288 55.3659 69.4685C55.3531 69.4211 55.3259 69.3787 55.2881 69.3474C55.2363 69.3296 55.1801 69.3296 55.1283 69.3474C54.2473 69.395 53.2238 69.9402 52.3947 69.594Z" fill="#A3ABAD"/>
<path d="M52.3947 69.594C51.5495 69.205 50.7451 68.7324 49.9936 68.1833C49.186 67.6337 48.3784 67.0798 47.627 66.4523C47.0149 65.933 46.4378 65.3735 45.8996 64.7776C45.3921 65.2903 44.9823 65.8916 44.6904 66.5518C44.5497 66.8847 44.5015 67.2495 44.551 67.6076C44.6004 67.9656 44.7455 68.3036 44.9711 68.5857C45.092 68.6905 45.198 68.8114 45.2863 68.9449C45.3832 69.2513 45.3632 69.5828 45.2302 69.8753C45.0816 70.4114 45.0376 70.9712 45.1006 71.5241C45.109 71.6998 45.1675 71.8695 45.2691 72.0131C45.4323 72.1647 45.6248 72.281 45.8348 72.3549C46.4005 72.6449 46.733 73.255 47.2513 73.6272C47.8494 73.9892 48.5453 74.1556 49.2421 74.1032C49.9333 74.0497 50.6282 74.07 51.315 74.1638C51.5634 74.2416 51.8243 74.2709 52.0837 74.2504C52.4492 74.1335 52.7575 73.8833 52.9475 73.5493L54.0573 72.0347C54.1859 71.8269 54.364 71.6545 54.5756 71.5327C54.6829 71.477 54.8068 71.4621 54.9242 71.4908C55.0417 71.5194 55.1449 71.5896 55.2147 71.6885C55.3922 71.3492 55.4973 70.9766 55.5233 70.5945C55.5494 70.2123 55.4957 69.8288 55.3659 69.4685C55.3531 69.4211 55.3259 69.3787 55.2881 69.3474C55.2363 69.3296 55.1801 69.3296 55.1283 69.3474C54.2473 69.395 53.2238 69.9402 52.3947 69.594Z" fill="#A3ABAD"/>
<path d="M52.3212 69.0271C51.4755 68.639 50.6711 68.1663 49.9201 67.6163C49.1027 67.0796 48.3128 66.5019 47.5536 65.8853C46.9394 65.3667 46.3622 64.8056 45.8261 64.2063C45.3176 64.7198 44.9077 65.3227 44.6169 65.9849C44.4772 66.3175 44.43 66.6817 44.4802 67.039C44.5303 67.3964 44.6761 67.7334 44.902 68.0144C45.0217 68.1221 45.1275 68.2442 45.2172 68.378C45.3141 68.6844 45.2941 69.0159 45.1611 69.3084C45.0103 69.8426 44.9663 70.4014 45.0315 70.9528C45.0392 71.1293 45.0961 71.3002 45.1956 71.4461C45.3586 71.597 45.5513 71.7119 45.7614 71.7837C46.3314 72.0736 46.6596 72.6838 47.1778 73.0559C47.7755 73.4193 48.4717 73.5858 49.1687 73.5319C49.8613 73.4783 50.5576 73.4986 51.2459 73.5925C51.4924 73.6721 51.7523 73.7016 52.0103 73.6791C52.3765 73.566 52.6856 73.3167 52.874 72.9824L53.9839 71.4678C54.1084 71.2582 54.2856 71.0852 54.4978 70.9658C54.6048 70.9082 54.7292 70.8922 54.8471 70.921C54.9651 70.9498 55.0683 71.0212 55.1369 71.1216C55.3146 70.7815 55.4197 70.4082 55.4457 70.0253C55.4718 69.6424 55.4181 69.2583 55.2881 68.8972C55.2831 68.872 55.2729 68.8481 55.2583 68.8269C55.2436 68.8058 55.2247 68.788 55.2028 68.7746C55.1808 68.7612 55.1564 68.7524 55.1309 68.749C55.1055 68.7455 55.0796 68.7474 55.0549 68.7544C54.1696 68.828 53.1461 69.3733 52.3212 69.0271Z" fill="url(#paint13_linear_203:243)"/>
<path d="M88.1956 62.5487C88.9326 62.2604 89.7307 62.1651 90.5147 62.2718C91.197 62.3367 91.9009 62.4925 92.553 62.2718C93.2051 62.0511 93.7709 61.4063 94.22 60.8134C94.7901 60.0475 95.3472 59.2685 95.8827 58.4809C95.6451 57.8318 94.4316 58.3857 94.0645 57.8058C94.0176 57.6928 93.9582 57.5854 93.8875 57.4856C93.6672 57.2606 93.2397 57.4596 92.9935 57.2649C92.7474 57.0702 92.8078 56.7326 92.5617 56.6115C92.3155 56.4903 92.1298 56.6591 91.8923 56.6677C91.4 56.6894 91.1625 56.0965 90.8774 55.6897C90.4456 55.0536 89.638 54.7723 88.9039 54.53C88.7404 54.4605 88.5625 54.4322 88.3856 54.4478C88.2509 54.482 88.1236 54.5407 88.0099 54.6208C86.6863 55.449 85.4314 56.3824 84.2571 57.412C84.2304 57.3402 84.1884 57.2751 84.1339 57.2214C84.0794 57.1676 84.0139 57.1265 83.9418 57.1009C83.8697 57.0753 83.7929 57.0659 83.7168 57.0733C83.6407 57.0807 83.5672 57.1048 83.5013 57.1437C83.3774 57.2488 83.271 57.3729 83.1861 57.5116C82.9343 57.8427 82.5674 58.0667 82.1583 58.1391C81.9001 58.1566 81.6441 58.1986 81.3939 58.2646C80.8325 58.4766 80.6295 59.195 80.7245 59.7878C80.8824 60.3739 81.0698 60.9517 81.2859 61.5188C81.4975 62.3107 81.4198 63.1502 81.5278 63.9595C81.6303 64.4691 81.6967 64.9853 81.7264 65.5044C81.7264 66.5992 81.0225 67.6162 81.1002 68.7023C82.344 68.0143 84.1232 67.1834 85.0431 66.1059C86.1097 64.8509 86.5848 63.2454 88.1956 62.5487Z" fill="#A3ABAD"/>
<path d="M69.6646 65.959C69.6998 65.5174 69.8486 65.0924 70.0965 64.7257C70.3988 64.3535 70.8911 64.1631 71.1502 63.7606C71.3794 63.2796 71.421 62.7302 71.2668 62.2201C71.0292 60.9222 70.7017 59.6425 70.2865 58.3903C70.0905 57.9772 70.0491 57.5072 70.1699 57.0661C70.2792 56.8721 70.4307 56.7052 70.6131 56.5779C70.7955 56.4505 71.0042 56.366 71.2236 56.3304C72.8388 55.9366 74.536 56.7632 75.7322 57.9099C76.9285 59.0567 77.7447 60.5454 78.7163 61.8998C79.0515 62.3208 79.341 62.7763 79.58 63.2587C79.8361 63.9094 79.9523 64.6068 79.9212 65.3055C79.9031 67.1802 79.4129 69.02 78.4961 70.6543C77.9476 71.6409 77.1012 72.6232 75.9741 72.6838C75.5004 72.6638 75.0286 72.6117 74.5619 72.528C73.5945 72.4458 72.6488 72.7963 71.6814 72.9002C70.4797 73.0235 69.27 72.7613 68.2266 72.1516C68.4696 71.7418 68.7454 71.3524 69.0514 70.9875C69.2576 70.577 69.3444 70.1166 69.3019 69.6589C69.3515 68.4196 69.4726 67.1843 69.6646 65.959Z" fill="#A3ABAD"/>
<path d="M46.3531 58.784C45.5109 58.3512 44.6731 57.9185 43.8181 57.5247C43.0078 57.1321 42.1775 56.7825 41.3306 56.4774C39.907 56.0104 38.4561 55.6318 36.9861 55.3436C37.5019 55.4985 38.0369 55.5801 38.5753 55.586C39.4713 55.7106 40.3497 55.94 41.1924 56.2697L40.808 55.2571C41.1059 55.5081 41.3436 55.8232 41.5033 56.1788C41.5295 56.2594 41.5773 56.3313 41.6415 56.3865C41.7054 56.4248 41.7787 56.4443 41.8531 56.4428C42.2863 56.4943 42.7063 56.6248 43.0925 56.8279C43.0322 56.3905 43.0235 55.9475 43.0666 55.5081C43.3177 55.8676 43.4858 56.2785 43.5589 56.7111C43.5646 56.7803 43.5869 56.8471 43.6237 56.9058C43.6742 56.9655 43.7399 57.0104 43.8137 57.0357C44.3956 57.2883 44.961 57.5774 45.5066 57.9012L45.7009 56.1702L46.1026 57.6458C46.1195 57.7681 46.1684 57.8837 46.2442 57.9809C46.32 58.0782 46.4202 58.1537 46.5344 58.1997L47.8991 58.9268C47.9407 58.9534 47.9881 58.9697 48.0373 58.9744C48.0829 58.9663 48.1268 58.9502 48.1669 58.9268C48.3834 58.7928 48.5677 58.6125 48.7067 58.3988C48.8751 58.8662 48.7499 60.0779 47.9811 59.9134C47.7436 59.8658 47.5493 59.5542 47.3852 59.4114C47.0627 59.1686 46.7169 58.9584 46.3531 58.784Z" fill="#A3ABAD"/>
<path d="M53.3448 63.5831C52.5809 63.3763 51.7774 63.3658 51.0084 63.5528C50.3391 63.6913 49.6524 63.9163 48.983 63.7692C48.3137 63.6221 47.6875 63.0422 47.1736 62.4926C46.5258 61.7916 45.8938 61.0703 45.2777 60.3289C45.4461 59.6625 46.7115 60.0866 47.0051 59.4634C47.0392 59.347 47.087 59.2352 47.1476 59.1302C47.342 58.8835 47.7868 59.035 48.0114 58.8143C48.2359 58.5936 48.1452 58.269 48.3612 58.1219C48.5771 57.9748 48.793 58.1219 49.0349 58.1219C49.5272 58.0916 49.7042 57.4771 49.9461 57.0444C50.3261 56.365 51.0819 56.0058 51.7901 55.6855C51.923 55.5984 52.0783 55.552 52.2371 55.552C52.3959 55.552 52.5512 55.5984 52.684 55.6855C54.0848 56.3731 55.4291 57.1704 56.7046 58.07C56.7248 57.9963 56.7607 57.9279 56.8096 57.8693C56.8586 57.8108 56.9196 57.7635 56.9884 57.7306C57.0572 57.6978 57.1323 57.6802 57.2085 57.679C57.2847 57.6778 57.3603 57.6931 57.4301 57.7238C57.5663 57.8155 57.686 57.9296 57.7843 58.0613C58.0699 58.3635 58.4582 58.5472 58.8725 58.5763C59.1296 58.5645 59.3871 58.579 59.6412 58.6196C60.2242 58.7753 60.5049 59.485 60.4661 60.0649C60.3728 60.6584 60.2474 61.2464 60.0904 61.8262C59.9608 62.6354 60.1249 63.462 60.0904 64.2842C60.0387 64.8003 60.0257 65.3196 60.0515 65.8377C60.1811 66.9239 60.967 67.863 61.0059 68.9578C59.7103 68.3996 57.849 67.7591 56.8126 66.7725C55.6595 65.656 55.0204 64.1068 53.3448 63.5831Z" fill="#A3ABAD"/>
<path d="M53.9839 63.2889C53.2208 63.0783 52.4166 63.0664 51.6476 63.2543C50.9782 63.3927 50.2916 63.6178 49.6222 63.475C48.9008 63.2377 48.2693 62.7847 47.8127 62.1767C47.1649 61.4757 46.5172 60.7617 45.9169 60.013C46.0853 59.3466 47.3506 59.7664 47.6443 59.1475C47.6784 59.0312 47.7262 58.9193 47.7868 58.8143C47.9811 58.5677 48.426 58.7191 48.6505 58.4984C48.8751 58.2777 48.7801 57.9488 49.0003 57.806C49.2206 57.6632 49.4322 57.806 49.674 57.806C50.1663 57.7757 50.3434 57.1612 50.5852 56.7285C50.9653 56.0491 51.7167 55.6856 52.4293 55.3697C52.5829 55.2843 52.7546 55.2368 52.9302 55.2312C53.0686 55.2502 53.202 55.2958 53.3232 55.3654C54.7248 56.0512 56.0693 56.8486 57.3438 57.7498C57.3634 57.6757 57.3988 57.6068 57.4476 57.5478C57.4965 57.4889 57.5575 57.4413 57.6266 57.4083C57.6956 57.3754 57.7709 57.3579 57.8474 57.3571C57.9239 57.3563 57.9996 57.3721 58.0693 57.4036C58.2053 57.4937 58.3251 57.6064 58.4234 57.7368C58.7086 58.0402 59.0969 58.2255 59.5117 58.2561C59.7687 58.2445 60.0263 58.2589 60.2804 58.2994C60.8591 58.4508 61.1441 59.1648 61.1053 59.7447C61.0084 60.3379 60.8816 60.9257 60.7252 61.506C60.6 62.3152 60.7641 63.1418 60.7252 63.9596C60.6721 64.4771 60.6576 64.9979 60.682 65.5175C60.8159 66.6037 61.6019 67.5428 61.6364 68.6333C60.3409 68.075 58.4839 67.4346 57.4431 66.4696C56.2987 65.3661 55.6595 63.8125 53.9839 63.2889Z" fill="url(#paint14_linear_203:243)"/>
<path d="M59.8614 72.0217C59.6683 72.4883 59.5856 72.9934 59.6196 73.4974L59.5893 76.5266C59.6114 76.7031 59.5958 76.8823 59.5437 77.0524C59.4916 77.2224 59.4041 77.3795 59.287 77.5132C59.0969 77.6326 58.8859 77.7148 58.6652 77.7556C58.3236 77.9308 57.9508 78.0367 57.5682 78.0671C57.0759 78.0239 56.7305 77.5738 56.4713 77.1541C56.0476 76.4611 55.6752 75.7379 55.3571 74.9903C55.1016 74.5185 55.0177 73.9724 55.1196 73.4454C55.2535 73.0127 55.6206 72.6708 55.7804 72.2381C55.9402 71.8053 55.8797 71.3509 56.0006 70.9398C56.1914 70.5513 56.3364 70.1417 56.4325 69.7195C56.4325 69.6719 56.4325 69.6156 56.4713 69.5897C56.5006 69.5791 56.5327 69.5791 56.562 69.5897L58.1729 69.5637C57.917 70.2468 57.8238 70.9803 57.9008 71.7058C57.2868 72.072 56.8195 72.6413 56.5793 73.3156C56.9436 72.9902 57.3486 72.7138 57.7842 72.4934C57.7948 73.0429 57.695 73.5889 57.4905 74.0989C57.2228 74.748 56.7823 75.3668 56.8125 76.0679C56.9158 75.552 57.156 75.0736 57.5078 74.6831C57.5933 75.5561 57.8057 76.4119 58.1383 77.2233L57.8015 74.7004L59.0279 75.3495C58.8305 74.9598 58.6023 74.5864 58.3456 74.233C58.2185 74.0547 58.1301 73.8516 58.0863 73.637C58.0424 73.4223 58.0439 73.2008 58.0908 72.9867L58.6609 73.4195C58.4298 73.0418 58.2818 72.6191 58.2267 72.1796C58.1716 71.74 58.2107 71.2938 58.3413 70.8706C58.383 70.4546 58.5519 70.0616 58.825 69.7455C59.1317 69.5063 59.5073 69.3727 59.896 69.3646C60.4358 69.3084 61.6579 69.3646 61.4161 70.2301C61.1872 70.9312 60.2112 71.3207 59.8614 72.0217Z" fill="url(#paint15_linear_203:243)"/>
<path d="M70.9213 71.273C70.9385 70.6874 70.8612 70.1029 70.6924 69.542C70.52 68.9779 70.52 68.3751 70.6924 67.811C70.9429 67.2008 71.5561 66.6729 71.4525 66.0194C71.405 65.7511 71.2236 65.4958 71.2884 65.2319C71.3441 65.0596 71.4511 64.9086 71.595 64.7991L72.6746 63.7908C72.8442 63.656 72.9789 63.4824 73.0676 63.2845C73.1243 63.033 73.1093 62.7706 73.0244 62.5272L71.6727 57.2737L74.0177 58.481C74.255 58.5959 74.4832 58.729 74.7 58.8792C74.9775 59.0967 75.2296 59.3449 75.4515 59.6192C75.8955 60.1802 76.3995 60.691 76.9543 61.1424C77.3761 61.387 77.7614 61.6901 78.0987 62.0425C78.3066 62.3386 78.4628 62.6678 78.5608 63.0162L79.0791 64.4962C79.1864 64.7749 79.2603 65.0655 79.2993 65.3617C79.3108 65.7488 79.2568 66.1351 79.1395 66.5041C78.67 68.3311 78.0931 70.1287 77.4121 71.8875C77.3573 72.0719 77.2579 72.2398 77.1227 72.3765C76.6347 72.8092 75.7926 72.251 75.2658 72.6275L77.1573 70.7017L75.7062 71.5369C75.7185 71.0403 75.7588 70.5447 75.8272 70.0526C76.5896 69.6281 77.1874 68.959 77.5244 68.1529C77.0205 68.6376 76.4994 69.1078 75.961 69.5636C75.771 68.9924 76.0301 68.3822 76.2461 67.8326C76.6737 66.7436 76.9638 65.6054 77.1098 64.4443C76.688 65.2511 76.3313 66.0904 76.0431 66.9542C75.7883 66.0887 75.8919 65.1237 75.8488 64.2019C75.7807 62.7361 75.3472 61.3108 74.5877 60.0562C75.3089 61.7872 75.4212 63.7129 75.5249 65.591C75.5249 65.8161 75.5465 66.0238 75.5551 66.2748L74.4884 64.9765C74.866 65.4977 75.1302 66.0924 75.2641 66.7223C75.398 67.3521 75.3986 68.0031 75.2658 68.6332C74.2984 67.6898 73.2965 66.7768 72.2428 65.9069C72.2447 66.2074 72.3149 66.5034 72.4481 66.7726C72.5813 67.0418 72.774 67.2771 73.0115 67.4605C73.3556 67.6781 73.7133 67.8732 74.0825 68.0447C74.2658 68.1333 74.4276 68.2609 74.5566 68.4186C74.6857 68.5763 74.7788 68.7603 74.8296 68.9578C74.6619 68.9971 74.5054 69.074 74.3718 69.1828C74.8187 69.6712 75.0986 70.2897 75.1707 70.9484C74.7389 70.9484 74.5273 71.459 74.4193 71.8745L74.2207 72.6404C74.2091 72.7352 74.1666 72.8234 74.0997 72.8914C74.0284 72.9411 73.9446 72.9696 73.8579 72.9737C72.8769 73.1511 71.8721 73.1511 70.891 72.9737C70.6536 72.9445 70.4236 72.8711 70.213 72.7573C69.9496 72.5539 70.1137 72.5582 70.334 72.3678C70.6633 72.0924 70.8738 71.7002 70.9213 71.273Z" fill="url(#paint16_linear_203:243)"/>
<path d="M84.1103 65.4525C84.5547 65.0853 84.9483 64.6603 85.2806 64.1888C85.6088 63.6955 85.7988 63.1156 86.1702 62.6483C86.8482 61.7828 88.0099 61.4755 89.1025 61.4193C89.8376 61.4371 90.5726 61.3806 91.2963 61.2505C92.6912 60.8827 93.6802 59.671 94.5612 58.5242C93.8529 58.4939 93.3649 57.8059 92.7085 57.5289C92.4451 57.4164 92.1601 57.3731 91.8923 57.2823C90.7306 56.8841 89.9576 55.6248 88.7441 55.4258C88.5172 55.375 88.2798 55.4024 88.0704 55.5037C87.9376 55.5933 87.812 55.6931 87.6947 55.8023C87.293 56.1225 86.7532 56.235 86.3041 56.4817C85.6649 56.8582 85.2763 57.5506 84.7062 58.0309C84.6726 58.0632 84.6308 58.0857 84.5853 58.0958C84.5506 58.0952 84.5165 58.0872 84.4852 58.0723C84.4539 58.0574 84.4262 58.0359 84.4039 58.0093L83.8296 57.5073C83.779 57.4532 83.7123 57.4168 83.6395 57.4034C83.6008 57.4058 83.563 57.4158 83.5281 57.4328C83.4933 57.4499 83.4622 57.4737 83.4366 57.5029C83.0695 57.8405 82.927 58.3684 82.5944 58.7363C82.4671 58.8975 82.3084 59.0313 82.1281 59.1295C81.9477 59.2276 81.7494 59.2882 81.545 59.3075L81.3809 59.5109C81.3301 60.6084 81.4099 61.7081 81.6184 62.7867C82.1729 62.5464 82.6367 62.1354 82.9426 61.6134C83.2484 61.0914 83.3806 60.4854 83.32 59.883L83.5488 61.2938C84.0239 61.2159 84.2787 60.6879 84.3607 60.2119C84.3772 59.7304 84.5012 59.2587 84.7235 58.8315C84.7019 59.3198 84.7454 59.8088 84.8531 60.2855C85.309 59.8159 85.8386 59.4241 86.4207 59.1257C86.5789 59.0617 86.7249 58.9709 86.8526 58.8574C86.9713 58.7173 87.0622 58.5558 87.1203 58.3814L87.8631 56.5293C87.6169 57.3004 87.4874 58.1041 87.4787 58.9137C88.0843 58.7358 88.7042 58.6113 89.3314 58.5415C90.2372 58.4578 91.1473 58.4303 92.0564 58.4593C90.925 59.0565 89.4394 58.4204 88.2906 58.9916C87.9993 59.1806 87.6948 59.3484 87.3794 59.4936C87.0167 59.6104 86.5762 59.5758 86.3127 59.8484L89.1025 61.0125C88.1881 61.0392 87.2776 60.8818 86.425 60.5495C86.2917 60.4807 86.1429 60.4479 85.9932 60.4543C85.8747 60.4797 85.7628 60.5298 85.6649 60.6014L84.3694 61.415C84.2656 61.4747 84.1699 61.5474 84.0844 61.6313C83.8425 61.8996 83.8209 62.3497 83.5057 62.4968C83.8608 62.618 84.1903 62.8044 84.4773 63.0464L83.985 62.9382C83.4107 62.817 82.7586 62.7045 82.2576 63.0377C82.0808 63.1773 81.9355 63.3528 81.8313 63.5527C81.7271 63.7526 81.6663 63.9724 81.653 64.1975C81.6322 64.6464 81.6437 65.0961 81.6875 65.5433C81.7043 65.9894 81.6753 66.436 81.6012 66.8762C81.5364 67.244 81.368 67.6335 81.8862 67.4258C82.2533 67.2786 82.6376 66.7593 82.9313 66.4954L84.1103 65.4525Z" fill="url(#paint17_linear_203:243)"/>
<path d="M61.7832 69.6631C62.8327 69.6631 63.6834 68.8106 63.6834 67.7591C63.6834 66.7075 62.8327 65.855 61.7832 65.855C60.7338 65.855 59.8831 66.7075 59.8831 67.7591C59.8831 68.8106 60.7338 69.6631 61.7832 69.6631Z" fill="#A3ABAD"/>
<path d="M61.7832 69.6631C62.8327 69.6631 63.6834 68.8106 63.6834 67.7591C63.6834 66.7075 62.8327 65.855 61.7832 65.855C60.7338 65.855 59.8831 66.7075 59.8831 67.7591C59.8831 68.8106 60.7338 69.6631 61.7832 69.6631Z" fill="url(#paint18_linear_203:243)"/>
<path d="M66.9612 50.2201C66.123 50.8515 65.2297 51.4062 64.2924 51.8775C65.0265 52.2188 65.7974 52.4744 66.5898 52.6391C67.3875 52.8021 68.2167 52.6908 68.9435 52.3232C69.5791 51.9006 70.1178 51.3474 70.524 50.7004L72.096 48.5367L72.9597 47.351C73.2404 46.9702 73.5298 46.4855 73.3441 46.0527C72.0874 46.36 70.8609 46.4033 69.954 47.351C69.0158 48.3677 68.0164 49.3259 66.9612 50.2201Z" fill="#A3ABAD"/>
<path d="M66.9612 50.2201C66.123 50.8515 65.2297 51.4062 64.2924 51.8775C65.0265 52.2188 65.7974 52.4744 66.5898 52.6391C67.3875 52.8021 68.2167 52.6908 68.9435 52.3232C69.5791 51.9006 70.1178 51.3474 70.524 50.7004L72.096 48.5367L72.9597 47.351C73.2404 46.9702 73.5298 46.4855 73.3441 46.0527C72.0874 46.36 70.8609 46.4033 69.954 47.351C69.0158 48.3677 68.0164 49.3259 66.9612 50.2201Z" fill="url(#paint19_linear_203:243)"/>
<path d="M59.0237 42.9758C59.3046 43.4775 59.6732 43.9246 60.112 44.2957C60.4402 44.6419 60.7252 45.027 61.0836 45.3386C61.7107 45.8223 62.4204 46.1875 63.1781 46.4161C63.6532 46.5892 64.7415 46.758 64.7112 45.9401C64.7112 45.5593 63.597 44.8063 63.3336 44.5683C62.764 44.0189 62.0869 43.5938 61.3451 43.3197C60.6033 43.0456 59.8129 42.9285 59.0237 42.9758Z" fill="#A3ABAD"/>
<path d="M67.6608 42.4307C67.423 43.0364 67.4001 43.7055 67.596 44.3261C67.5992 44.3801 67.6139 44.4328 67.6393 44.4806C67.6646 44.5284 67.6999 44.5702 67.7428 44.6031C67.8069 44.6269 67.8774 44.6269 67.9415 44.6031C68.3085 44.4726 68.6327 44.2436 68.8786 43.941C69.5912 43.3178 70.606 43.1231 71.3229 42.5129C71.9102 42.0109 71.6339 39.6957 70.6406 39.8688C69.7207 40.029 68.0667 41.6344 67.6608 42.4307Z" fill="#A3ABAD"/>
<path d="M80.5302 47.4677C80.6187 46.884 80.6187 46.2902 80.5302 45.7064C80.3877 45.053 80.0292 44.4688 79.8435 43.824C79.692 43.2893 79.6625 42.7273 79.7572 42.1796C79.8867 41.4482 78.8934 41.3141 78.4141 41.6603C77.9347 42.0065 78.0168 42.8633 78.1075 43.4518C78.3562 45.0578 79.2267 46.5007 80.5302 47.4677Z" fill="#A3ABAD"/>
<path d="M55.5429 34.2301C54.4503 35.576 53.1158 36.7054 52.0017 38.0383C50.8875 39.3711 49.9935 40.9853 49.9935 42.7206C51.4187 42.8028 52.6883 41.8075 53.5866 40.6953C54.4848 39.5832 55.1758 38.2849 56.2554 37.3545C56.7953 36.8872 57.4215 36.5237 57.9267 36.0217C59.0495 34.9095 60.3538 30.396 58.4579 29.5305C57.3999 31.0365 56.7305 32.7718 55.5429 34.2301Z" fill="#A3ABAD"/>
<path d="M55.5429 34.2301C54.4503 35.576 53.1158 36.7054 52.0017 38.0383C50.8875 39.3711 49.9935 40.9853 49.9935 42.7206C51.4187 42.8028 52.6883 41.8075 53.5866 40.6953C54.4848 39.5832 55.1758 38.2849 56.2554 37.3545C56.7953 36.8872 57.4215 36.5237 57.9267 36.0217C59.0495 34.9095 60.3538 30.396 58.4579 29.5305C57.3999 31.0365 56.7305 32.7718 55.5429 34.2301Z" fill="url(#paint20_linear_203:243)"/>
<path d="M54.9902 33.7411C53.8933 35.0869 52.5588 36.2164 51.449 37.5493C50.3391 38.8821 49.4236 40.4962 49.4279 42.2315C50.853 42.3138 52.1183 41.3185 53.0166 40.2063C53.9149 39.0942 54.6058 37.7959 55.6898 36.8612C56.2296 36.3982 56.8558 36.0347 57.3611 35.5327C58.4796 34.4205 59.7838 29.907 57.8923 29.0415C56.8472 30.5475 56.1735 32.2828 54.9902 33.7411Z" fill="#A3ABAD"/>
<path d="M65.5404 20.2092C65.1992 20.7631 64.8753 21.3906 64.2837 21.6633L67.0389 20.6593C67.3362 20.5656 67.6141 20.4191 67.8595 20.2265C68.0977 19.9637 68.3036 19.6731 68.4727 19.3611C68.9113 18.7378 69.5245 18.2589 70.2347 17.9849C70.679 17.8681 71.076 17.6155 71.3705 17.2622C71.6037 16.8728 71.31 16.1977 70.8695 16.3232C68.6559 16.8738 66.744 18.268 65.5404 20.2092Z" fill="#A3ABAD"/>
<path d="M53.6644 22.5244C54.083 23.4877 54.7221 24.3386 55.53 25.0084C56.9912 26.3166 58.6806 27.3435 60.5136 28.0376C60.3266 26.3102 59.746 24.6489 58.8164 23.1822C58.2377 22.2691 57.4949 21.3473 57.5209 20.2655C57.5969 19.8683 57.5761 19.4586 57.4604 19.0711C57.3315 18.8926 57.1671 18.7428 56.9775 18.6311C56.788 18.5194 56.5775 18.4482 56.3592 18.422C55.3011 18.158 53.8587 17.405 53.3059 18.5691C52.8914 19.4562 53.3405 21.6849 53.6644 22.5244Z" fill="#A3ABAD"/>
<path d="M53.6644 22.5244C54.083 23.4877 54.7221 24.3386 55.53 25.0084C56.9912 26.3166 58.6806 27.3435 60.5136 28.0376C60.3266 26.3102 59.746 24.6489 58.8164 23.1822C58.2377 22.2691 57.4949 21.3473 57.5209 20.2655C57.5969 19.8683 57.5761 19.4586 57.4604 19.0711C57.3315 18.8926 57.1671 18.7428 56.9775 18.6311C56.788 18.5194 56.5775 18.4482 56.3592 18.422C55.3011 18.158 53.8587 17.405 53.3059 18.5691C52.8914 19.4562 53.3405 21.6849 53.6644 22.5244Z" fill="url(#paint21_linear_203:243)"/>
<path d="M53.9407 22.018C54.361 22.9815 55.0015 23.8324 55.8107 24.502C57.2696 25.8132 58.9597 26.8405 60.7943 27.5312C60.6073 25.8052 60.0266 24.1454 59.0971 22.6801C58.5184 21.7627 57.7756 20.841 57.8015 19.7591C57.8775 19.3634 57.8568 18.9551 57.7411 18.5691C57.6126 18.3891 57.4478 18.2384 57.2573 18.1265C57.0668 18.0147 56.8549 17.9443 56.6355 17.92C55.5775 17.656 54.1394 16.903 53.5866 18.0628C53.172 18.9369 53.6168 21.1699 53.9407 22.018Z" fill="#A3ABAD"/>
<path d="M77.5503 43.5947C78.2542 43.5471 78.6947 42.8504 79.1179 42.2964C80.1501 40.9376 81.6659 40.0418 83.1947 39.2932C85.7858 37.995 85.328 34.6888 82.5339 36.5366C80.1846 38.1032 78.4097 40.9679 77.5503 43.5947Z" fill="#A3ABAD"/>
<path d="M72.3335 28.6392C72.3335 26.708 70.7713 25.1426 68.8441 25.1426C66.917 25.1426 65.3547 26.708 65.3547 28.6392C65.3547 30.5703 66.917 32.1357 68.8441 32.1357C70.7713 32.1357 72.3335 30.5703 72.3335 28.6392Z" fill="#A3ABAD"/>
<path d="M72.3335 28.6392C72.3335 26.708 70.7713 25.1426 68.8441 25.1426C66.917 25.1426 65.3547 26.708 65.3547 28.6392C65.3547 30.5703 66.917 32.1357 68.8441 32.1357C70.7713 32.1357 72.3335 30.5703 72.3335 28.6392Z" fill="url(#paint22_linear_203:243)"/>
<path d="M66.9008 25.7958C67.0433 25.9083 67.2549 25.8434 67.4233 25.7698C67.7558 25.6227 68.084 25.4712 68.4079 25.3024C68.4829 25.6416 68.6302 25.9605 68.8398 26.2372C68.9234 26.1112 68.981 25.9697 69.0092 25.821C69.0374 25.6724 69.0356 25.5196 69.0039 25.3717C69.456 25.6654 69.9346 25.916 70.4333 26.1203C70.4548 25.997 70.446 25.8703 70.4076 25.7512C70.3693 25.632 70.3025 25.524 70.2131 25.4366C70.0306 25.2631 69.8124 25.1317 69.574 25.0514C69.8531 25.0334 70.1253 24.9567 70.3729 24.8264C70.0922 24.6823 69.7728 24.6322 69.4617 24.6836C69.4339 24.6992 69.403 24.7082 69.3713 24.7099C69.3395 24.7116 69.3078 24.7059 69.2786 24.6934C69.2494 24.6808 69.2234 24.6617 69.2027 24.6375C69.1821 24.6133 69.1672 24.5847 69.1594 24.5538C69.114 24.4325 69.0835 24.306 69.0687 24.1773C69.0679 23.9917 69.0312 23.808 68.9607 23.6364C68.87 23.4763 68.6282 23.3811 68.4986 23.5152C68.3691 23.6494 68.4468 23.8354 68.4986 23.9999C68.5501 24.1756 68.5762 24.3577 68.5764 24.5408C68.5829 24.5924 68.5706 24.6447 68.5418 24.6879C68.4598 24.7918 68.2222 24.8524 68.11 24.9216C67.9977 24.9909 67.8336 25.0644 67.6781 25.1423C67.5247 25.2241 67.38 25.3212 67.2462 25.4323C67.1944 25.4885 66.9526 25.7958 66.9008 25.7958Z" fill="#A3ABAD"/>
<path d="M60.2113 35.8009C60.0588 35.9798 59.9323 36.1794 59.8355 36.3938C59.7288 36.6723 59.7288 36.9807 59.8355 37.2592C59.8701 37.3631 59.9392 37.4713 60.0472 37.4799C60.098 37.4792 60.1481 37.4674 60.194 37.4453C60.6863 37.221 61.1184 36.8828 61.455 36.4587C61.6164 36.2796 61.7359 36.0667 61.8048 35.8355C61.8502 35.6263 61.8283 35.4081 61.7422 35.2121C61.656 35.0162 61.5101 34.8526 61.3255 34.745C61.062 34.6152 60.9627 34.8792 60.8029 35.0739L60.2113 35.8009Z" fill="#A3ABAD"/>
<path d="M60.2113 35.8009C60.0588 35.9798 59.9323 36.1794 59.8355 36.3938C59.7288 36.6723 59.7288 36.9807 59.8355 37.2592C59.8701 37.3631 59.9392 37.4713 60.0472 37.4799C60.098 37.4792 60.1481 37.4674 60.194 37.4453C60.6863 37.221 61.1184 36.8828 61.455 36.4587C61.6164 36.2796 61.7359 36.0667 61.8048 35.8355C61.8502 35.6263 61.8283 35.4081 61.7422 35.2121C61.656 35.0162 61.5101 34.8526 61.3255 34.745C61.062 34.6152 60.9627 34.8792 60.8029 35.0739L60.2113 35.8009Z" fill="url(#paint23_linear_203:243)"/>
<path d="M61.3383 38.9341C61.4365 39.0466 61.5516 39.143 61.6795 39.2197C61.8457 39.3105 62.0394 39.3367 62.2236 39.2933C62.2884 39.2933 62.3618 39.2413 62.3791 39.1764C62.3855 39.1435 62.3855 39.1097 62.3791 39.0769C62.2736 38.752 62.0948 38.4558 61.8566 38.2114C61.7554 38.0938 61.6302 37.9994 61.4895 37.9344C61.3606 37.8887 61.2206 37.885 61.0895 37.9239C60.9584 37.9628 60.843 38.0422 60.7597 38.1508C60.656 38.3109 60.8115 38.3931 60.9238 38.51C61.036 38.6268 61.1958 38.7869 61.3383 38.9341Z" fill="#A3ABAD"/>
<path d="M61.3383 38.9341C61.4365 39.0466 61.5516 39.143 61.6795 39.2197C61.8457 39.3105 62.0394 39.3367 62.2236 39.2933C62.2884 39.2933 62.3618 39.2413 62.3791 39.1764C62.3855 39.1435 62.3855 39.1097 62.3791 39.0769C62.2736 38.752 62.0948 38.4558 61.8566 38.2114C61.7554 38.0938 61.6302 37.9994 61.4895 37.9344C61.3606 37.8887 61.2206 37.885 61.0895 37.9239C60.9584 37.9628 60.843 38.0422 60.7597 38.1508C60.656 38.3109 60.8115 38.3931 60.9238 38.51C61.036 38.6268 61.1958 38.7869 61.3383 38.9341Z" fill="url(#paint24_linear_203:243)"/>
<path d="M63.2947 36.4716C63.2979 36.653 63.33 36.8327 63.3897 37.0039C63.4709 37.2122 63.6242 37.3842 63.8216 37.4885C63.8572 37.5108 63.8984 37.5226 63.9404 37.5226C63.9823 37.5226 64.0235 37.5108 64.0591 37.4885C64.0869 37.4615 64.109 37.4292 64.1239 37.3933C64.2845 37.0077 64.3525 36.5898 64.3225 36.173C64.321 35.9875 64.2797 35.8046 64.2016 35.6364C64.1178 35.4942 63.9911 35.3823 63.8398 35.317C63.6884 35.2516 63.5202 35.2362 63.3595 35.2729C63.1436 35.3378 63.2213 35.5369 63.2343 35.7273L63.2947 36.4716Z" fill="#A3ABAD"/>
<path d="M63.2947 36.4716C63.2979 36.653 63.33 36.8327 63.3897 37.0039C63.4709 37.2122 63.6242 37.3842 63.8216 37.4885C63.8572 37.5108 63.8984 37.5226 63.9404 37.5226C63.9823 37.5226 64.0235 37.5108 64.0591 37.4885C64.0869 37.4615 64.109 37.4292 64.1239 37.3933C64.2845 37.0077 64.3525 36.5898 64.3225 36.173C64.321 35.9875 64.2797 35.8046 64.2016 35.6364C64.1178 35.4942 63.9911 35.3823 63.8398 35.317C63.6884 35.2516 63.5202 35.2362 63.3595 35.2729C63.1436 35.3378 63.2213 35.5369 63.2343 35.7273L63.2947 36.4716Z" fill="url(#paint25_linear_203:243)"/>
<path d="M57.4561 41.4569C57.4614 41.6381 57.4934 41.8175 57.5511 41.9892C57.6316 42.1979 57.7851 42.3702 57.983 42.4739C58.0179 42.4958 58.0583 42.5074 58.0996 42.5074C58.1408 42.5074 58.1812 42.4958 58.2162 42.4739C58.2463 42.4489 58.2687 42.4159 58.2809 42.3787C58.4451 41.9956 58.5147 41.5785 58.4839 41.1627C58.4816 40.9754 58.4389 40.7909 58.3587 40.6217C58.2732 40.4758 58.1429 40.3615 57.9872 40.296C57.8315 40.2304 57.6588 40.2172 57.495 40.2582C57.279 40.3231 57.3611 40.5222 57.374 40.7126C57.387 40.903 57.4388 41.2146 57.4561 41.4569Z" fill="#A3ABAD"/>
<path d="M57.4561 41.4569C57.4614 41.6381 57.4934 41.8175 57.5511 41.9892C57.6316 42.1979 57.7851 42.3702 57.983 42.4739C58.0179 42.4958 58.0583 42.5074 58.0996 42.5074C58.1408 42.5074 58.1812 42.4958 58.2162 42.4739C58.2463 42.4489 58.2687 42.4159 58.2809 42.3787C58.4451 41.9956 58.5147 41.5785 58.4839 41.1627C58.4816 40.9754 58.4389 40.7909 58.3587 40.6217C58.2732 40.4758 58.1429 40.3615 57.9872 40.296C57.8315 40.2304 57.6588 40.2172 57.495 40.2582C57.279 40.3231 57.3611 40.5222 57.374 40.7126C57.387 40.903 57.4388 41.2146 57.4561 41.4569Z" fill="url(#paint26_linear_203:243)"/>
<path d="M63.2948 43.2051C63.2965 43.383 63.3256 43.5597 63.3811 43.7287C63.4623 43.937 63.6156 44.1091 63.813 44.2134C63.8491 44.2343 63.89 44.2453 63.9317 44.2453C63.9734 44.2453 64.0144 44.2343 64.0505 44.2134C64.0783 44.1864 64.1004 44.154 64.1153 44.1182C64.2759 43.7326 64.3439 43.3146 64.3139 42.8979C64.3134 42.7123 64.2722 42.529 64.193 42.3612C64.1101 42.2256 63.9882 42.1183 63.8433 42.0534C63.6984 41.9885 63.5373 41.9691 63.3811 41.9977C63.1652 42.0627 63.2429 42.266 63.2559 42.4564L63.2948 43.2051Z" fill="#A3ABAD"/>
<path d="M63.2948 43.2051C63.2965 43.383 63.3256 43.5597 63.3811 43.7287C63.4623 43.937 63.6156 44.1091 63.813 44.2134C63.8491 44.2343 63.89 44.2453 63.9317 44.2453C63.9734 44.2453 64.0144 44.2343 64.0505 44.2134C64.0783 44.1864 64.1004 44.154 64.1153 44.1182C64.2759 43.7326 64.3439 43.3146 64.3139 42.8979C64.3134 42.7123 64.2722 42.529 64.193 42.3612C64.1101 42.2256 63.9882 42.1183 63.8433 42.0534C63.6984 41.9885 63.5373 41.9691 63.3811 41.9977C63.1652 42.0627 63.2429 42.266 63.2559 42.4564L63.2948 43.2051Z" fill="url(#paint27_linear_203:243)"/>
<path d="M84.4384 40.7601C84.313 40.9041 84.2097 41.066 84.1318 41.2404C84.0456 41.4646 84.0456 41.7129 84.1318 41.9371C84.162 42.0194 84.2181 42.1059 84.3045 42.1146C84.3468 42.1154 84.3885 42.105 84.4254 42.0843C84.8262 41.9042 85.1774 41.6295 85.4489 41.2837C85.5809 41.138 85.6797 40.9652 85.7383 40.7774C85.7741 40.6063 85.7555 40.4282 85.685 40.2683C85.6145 40.1083 85.4957 39.9746 85.3453 39.8859C85.1294 39.7821 85.0473 39.9941 84.9134 40.1542C84.7796 40.3144 84.5982 40.5567 84.4384 40.7601Z" fill="#A3ABAD"/>
<path d="M84.4384 40.7601C84.313 40.9041 84.2097 41.066 84.1318 41.2404C84.0456 41.4646 84.0456 41.7129 84.1318 41.9371C84.162 42.0194 84.2181 42.1059 84.3045 42.1146C84.3468 42.1154 84.3885 42.105 84.4254 42.0843C84.8262 41.9042 85.1774 41.6295 85.4489 41.2837C85.5809 41.138 85.6797 40.9652 85.7383 40.7774C85.7741 40.6063 85.7555 40.4282 85.685 40.2683C85.6145 40.1083 85.4957 39.9746 85.3453 39.8859C85.1294 39.7821 85.0473 39.9941 84.9134 40.1542C84.7796 40.3144 84.5982 40.5567 84.4384 40.7601Z" fill="url(#paint28_linear_203:243)"/>
<path d="M76.665 51.5399C76.7461 51.6329 76.8407 51.7132 76.9458 51.7779C77.0789 51.846 77.2315 51.8659 77.3776 51.8341C77.4294 51.8341 77.4899 51.7952 77.5028 51.7389C77.5092 51.7133 77.5092 51.6866 77.5028 51.661C77.4198 51.3897 77.2715 51.143 77.071 50.9427C76.991 50.8449 76.8888 50.7677 76.773 50.7176C76.6677 50.68 76.5533 50.677 76.4461 50.7089C76.339 50.7408 76.2448 50.806 76.1771 50.8951C76.095 51.0206 76.2202 51.0898 76.3109 51.185L76.665 51.5399Z" fill="#A3ABAD"/>
<path d="M76.665 51.5399C76.7461 51.6329 76.8407 51.7132 76.9458 51.7779C77.0789 51.846 77.2315 51.8659 77.3776 51.8341C77.4294 51.8341 77.4899 51.7952 77.5028 51.7389C77.5092 51.7133 77.5092 51.6866 77.5028 51.661C77.4198 51.3897 77.2715 51.143 77.071 50.9427C76.991 50.8449 76.8888 50.7677 76.773 50.7176C76.6677 50.68 76.5533 50.677 76.4461 50.7089C76.339 50.7408 76.2448 50.806 76.1771 50.8951C76.095 51.0206 76.2202 51.0898 76.3109 51.185L76.665 51.5399Z" fill="url(#paint29_linear_203:243)"/>
<path d="M92.2032 46.347C92.2072 46.4943 92.2334 46.6402 92.2809 46.7797C92.3492 46.95 92.4764 47.0898 92.6393 47.1735C92.6686 47.1915 92.7022 47.201 92.7365 47.201C92.7708 47.201 92.8044 47.1915 92.8337 47.1735C92.8581 47.1531 92.8761 47.1261 92.8855 47.0956C93.017 46.7828 93.0732 46.4433 93.0496 46.1046C93.0468 45.955 93.013 45.8077 92.9503 45.6719C92.8817 45.5561 92.7784 45.4649 92.6551 45.4113C92.5319 45.3577 92.3949 45.3444 92.2636 45.3733C92.0866 45.4252 92.1513 45.5897 92.1643 45.7455C92.1773 45.9012 92.1902 46.1479 92.2032 46.347Z" fill="#A3ABAD"/>
<path d="M92.2032 46.347C92.2072 46.4943 92.2334 46.6402 92.2809 46.7797C92.3492 46.95 92.4764 47.0898 92.6393 47.1735C92.6686 47.1915 92.7022 47.201 92.7365 47.201C92.7708 47.201 92.8044 47.1915 92.8337 47.1735C92.8581 47.1531 92.8761 47.1261 92.8855 47.0956C93.017 46.7828 93.0732 46.4433 93.0496 46.1046C93.0468 45.955 93.013 45.8077 92.9503 45.6719C92.8817 45.5561 92.7784 45.4649 92.6551 45.4113C92.5319 45.3577 92.3949 45.3444 92.2636 45.3733C92.0866 45.4252 92.1513 45.5897 92.1643 45.7455C92.1773 45.9012 92.1902 46.1479 92.2032 46.347Z" fill="url(#paint30_linear_203:243)"/>
<path d="M87.4484 50.4061C87.4542 50.5532 87.4804 50.6989 87.5261 50.8388C87.5928 51.0111 87.7204 51.1528 87.8846 51.2369C87.9138 51.2549 87.9474 51.2645 87.9817 51.2645C88.016 51.2645 88.0497 51.2549 88.0789 51.2369C88.1034 51.2166 88.1214 51.1895 88.1307 51.1591C88.2623 50.8462 88.3185 50.5067 88.2948 50.1681C88.2926 50.0184 88.2587 49.8709 88.1955 49.7353C88.1279 49.6186 88.0248 49.5266 87.9012 49.4729C87.7776 49.4191 87.6401 49.4065 87.5089 49.4367C87.3318 49.4887 87.3966 49.6531 87.4095 49.8089L87.4484 50.4061Z" fill="#A3ABAD"/>
<path d="M87.4484 50.4061C87.4542 50.5532 87.4804 50.6989 87.5261 50.8388C87.5928 51.0111 87.7204 51.1528 87.8846 51.2369C87.9138 51.2549 87.9474 51.2645 87.9817 51.2645C88.016 51.2645 88.0497 51.2549 88.0789 51.2369C88.1034 51.2166 88.1214 51.1895 88.1307 51.1591C88.2623 50.8462 88.3185 50.5067 88.2948 50.1681C88.2926 50.0184 88.2587 49.8709 88.1955 49.7353C88.1279 49.6186 88.0248 49.5266 87.9012 49.4729C87.7776 49.4191 87.6401 49.4065 87.5089 49.4367C87.3318 49.4887 87.3966 49.6531 87.4095 49.8089L87.4484 50.4061Z" fill="url(#paint31_linear_203:243)"/>
<path d="M92.2032 51.8298C92.2072 51.9772 92.2334 52.1231 92.2809 52.2626C92.3489 52.434 92.4761 52.5753 92.6393 52.6607C92.6689 52.6778 92.7024 52.6868 92.7365 52.6868C92.7706 52.6868 92.8041 52.6778 92.8337 52.6607C92.8562 52.6387 92.8739 52.6121 92.8855 52.5828C93.0177 52.2686 93.0739 51.9276 93.0496 51.5875C93.0463 51.438 93.0125 51.2907 92.9503 51.1547C92.8816 51.0393 92.7781 50.9486 92.6547 50.8957C92.5313 50.8429 92.3944 50.8305 92.2636 50.8605C92.0866 50.9124 92.1513 51.0725 92.1643 51.2326C92.1773 51.3928 92.1902 51.6308 92.2032 51.8298Z" fill="#A3ABAD"/>
<path d="M92.2032 51.8298C92.2072 51.9772 92.2334 52.1231 92.2809 52.2626C92.3489 52.434 92.4761 52.5753 92.6393 52.6607C92.6689 52.6778 92.7024 52.6868 92.7365 52.6868C92.7706 52.6868 92.8041 52.6778 92.8337 52.6607C92.8562 52.6387 92.8739 52.6121 92.8855 52.5828C93.0177 52.2686 93.0739 51.9276 93.0496 51.5875C93.0463 51.438 93.0125 51.2907 92.9503 51.1547C92.8816 51.0393 92.7781 50.9486 92.6547 50.8957C92.5313 50.8429 92.3944 50.8305 92.2636 50.8605C92.0866 50.9124 92.1513 51.0725 92.1643 51.2326C92.1773 51.3928 92.1902 51.6308 92.2032 51.8298Z" fill="url(#paint32_linear_203:243)"/>
<path d="M49.6696 28.6261C49.7946 29.2652 50.0775 29.8627 50.4924 30.3639C50.9074 30.8651 51.4411 31.2541 52.0448 31.4952C52.1156 31.3725 52.1465 31.2308 52.1333 31.0897C52.1202 30.9486 52.0636 30.8151 51.9714 30.7076C51.7815 30.4973 51.5652 30.3126 51.328 30.158C50.7665 29.6944 50.3694 29.0615 50.1959 28.3535C50.0223 27.6455 50.0816 26.9002 50.3649 26.2287C50.6586 25.5753 50.542 24.7271 49.9028 25.558C49.3803 26.233 49.5055 27.8602 49.6696 28.6261Z" fill="#A3ABAD"/>
<path d="M49.6696 28.6261C49.7946 29.2652 50.0775 29.8627 50.4924 30.3639C50.9074 30.8651 51.4411 31.2541 52.0448 31.4952C52.1156 31.3725 52.1465 31.2308 52.1333 31.0897C52.1202 30.9486 52.0636 30.8151 51.9714 30.7076C51.7815 30.4973 51.5652 30.3126 51.328 30.158C50.7665 29.6944 50.3694 29.0615 50.1959 28.3535C50.0223 27.6455 50.0816 26.9002 50.3649 26.2287C50.6586 25.5753 50.542 24.7271 49.9028 25.558C49.3803 26.233 49.5055 27.8602 49.6696 28.6261Z" fill="url(#paint33_linear_203:243)"/>
<path d="M92.5832 35.2774C92.1961 35.0645 91.7617 34.9529 91.3201 34.9529C90.8785 34.9529 90.444 35.0645 90.0569 35.2774C90.0884 35.3667 90.1469 35.4439 90.2244 35.4982C90.3018 35.5525 90.3942 35.5812 90.4887 35.5803C90.6805 35.5753 90.8708 35.5447 91.0545 35.4894C91.5403 35.3993 92.0421 35.4686 92.4855 35.6868C92.9289 35.9051 93.2903 36.2608 93.5161 36.7011C93.7233 37.1338 94.2157 37.4497 94.0645 36.7487C93.9479 36.1731 93.0496 35.5284 92.5832 35.2774Z" fill="#A3ABAD"/>
<path d="M92.5832 35.2774C92.1961 35.0645 91.7617 34.9529 91.3201 34.9529C90.8785 34.9529 90.444 35.0645 90.0569 35.2774C90.0884 35.3667 90.1469 35.4439 90.2244 35.4982C90.3018 35.5525 90.3942 35.5812 90.4887 35.5803C90.6805 35.5753 90.8708 35.5447 91.0545 35.4894C91.5403 35.3993 92.0421 35.4686 92.4855 35.6868C92.9289 35.9051 93.2903 36.2608 93.5161 36.7011C93.7233 37.1338 94.2157 37.4497 94.0645 36.7487C93.9479 36.1731 93.0496 35.5284 92.5832 35.2774Z" fill="url(#paint34_linear_203:243)"/>
<path d="M81.0484 30.3137C80.891 30.1006 80.6829 29.9303 80.443 29.8185C80.2032 29.7066 79.9391 29.6567 79.6751 29.6733C79.6695 29.7309 79.6825 29.7888 79.712 29.8386C79.7415 29.8884 79.786 29.9275 79.8392 29.9502C79.9454 29.9956 80.0573 30.0262 80.1717 30.0411C80.4625 30.114 80.7213 30.2805 80.9086 30.515C81.0958 30.7495 81.201 31.0391 81.2082 31.3393C81.2082 31.6293 81.4068 31.9192 81.4975 31.4995C81.4881 31.0643 81.3295 30.6456 81.0484 30.3137Z" fill="#A3ABAD"/>
<path d="M81.0484 30.3137C80.891 30.1006 80.6829 29.9303 80.443 29.8185C80.2032 29.7066 79.9391 29.6567 79.6751 29.6733C79.6695 29.7309 79.6825 29.7888 79.712 29.8386C79.7415 29.8884 79.786 29.9275 79.8392 29.9502C79.9454 29.9956 80.0573 30.0262 80.1717 30.0411C80.4625 30.114 80.7213 30.2805 80.9086 30.515C81.0958 30.7495 81.201 31.0391 81.2082 31.3393C81.2082 31.6293 81.4068 31.9192 81.4975 31.4995C81.4881 31.0643 81.3295 30.6456 81.0484 30.3137Z" fill="url(#paint35_linear_203:243)"/>
<path d="M72.7092 36.3115C72.9249 36.1591 73.099 35.9548 73.2152 35.7173C73.3314 35.4799 73.3861 35.2169 73.3742 34.9527C73.3176 34.9457 73.2602 34.9571 73.2105 34.9851C73.1608 35.0132 73.1213 35.0564 73.0978 35.1084C73.0499 35.2146 73.0165 35.3266 72.9985 35.4417C72.9202 35.7274 72.7517 35.98 72.5181 36.1618C72.2846 36.3435 71.9986 36.4446 71.7029 36.4499C71.4136 36.4499 71.1199 36.636 71.5345 36.7356C71.9627 36.7315 72.3768 36.582 72.7092 36.3115Z" fill="#A3ABAD"/>
<path d="M72.7092 36.3115C72.9249 36.1591 73.099 35.9548 73.2152 35.7173C73.3314 35.4799 73.3861 35.2169 73.3742 34.9527C73.3176 34.9457 73.2602 34.9571 73.2105 34.9851C73.1608 35.0132 73.1213 35.0564 73.0978 35.1084C73.0499 35.2146 73.0165 35.3266 72.9985 35.4417C72.9202 35.7274 72.7517 35.98 72.5181 36.1618C72.2846 36.3435 71.9986 36.4446 71.7029 36.4499C71.4136 36.4499 71.1199 36.636 71.5345 36.7356C71.9627 36.7315 72.3768 36.582 72.7092 36.3115Z" fill="url(#paint36_linear_203:243)"/>
<path d="M76.2763 24.9867C76.0456 24.5313 75.7037 24.1417 75.2823 23.8542C74.861 23.5667 74.374 23.3906 73.8666 23.3423C73.8389 23.4497 73.8457 23.5631 73.886 23.6664C73.9263 23.7697 73.9981 23.8577 74.0911 23.9178C74.2793 24.0369 74.4827 24.1301 74.6957 24.1948C75.2194 24.422 75.6558 24.8127 75.9398 25.3087C76.2239 25.8047 76.3404 26.3793 76.272 26.947C76.19 27.501 76.462 28.1111 76.7643 27.3495C77.0105 26.7263 76.5657 25.5276 76.2763 24.9867Z" fill="#A3ABAD"/>
<path d="M76.2763 24.9867C76.0456 24.5313 75.7037 24.1417 75.2823 23.8542C74.861 23.5667 74.374 23.3906 73.8666 23.3423C73.8389 23.4497 73.8457 23.5631 73.886 23.6664C73.9263 23.7697 73.9981 23.8577 74.0911 23.9178C74.2793 24.0369 74.4827 24.1301 74.6957 24.1948C75.2194 24.422 75.6558 24.8127 75.9398 25.3087C76.2239 25.8047 76.3404 26.3793 76.272 26.947C76.19 27.501 76.462 28.1111 76.7643 27.3495C77.0105 26.7263 76.5657 25.5276 76.2763 24.9867Z" fill="url(#paint37_linear_203:243)"/>
<path d="M41.5551 46.6756C41.1537 46.9906 40.8383 47.4021 40.6382 47.8719C40.4381 48.3418 40.3599 48.8547 40.4107 49.363C40.5214 49.3679 40.6309 49.3381 40.7239 49.2775C40.8168 49.217 40.8885 49.1289 40.9289 49.0255C41.0095 48.8185 41.0618 48.6016 41.0844 48.3807C41.2062 47.8225 41.5044 47.3186 41.9346 46.9437C42.3647 46.5687 42.9041 46.3427 43.4726 46.2992C44.034 46.2732 44.5781 45.8881 43.7705 45.7366C43.1141 45.6154 42.0302 46.2862 41.5551 46.6756Z" fill="#A3ABAD"/>
<path d="M41.5551 46.6756C41.1537 46.9906 40.8383 47.4021 40.6382 47.8719C40.4381 48.3418 40.3599 48.8547 40.4107 49.363C40.5214 49.3679 40.6309 49.3381 40.7239 49.2775C40.8168 49.217 40.8885 49.1289 40.9289 49.0255C41.0095 48.8185 41.0618 48.6016 41.0844 48.3807C41.2062 47.8225 41.5044 47.3186 41.9346 46.9437C42.3647 46.5687 42.9041 46.3427 43.4726 46.2992C44.034 46.2732 44.5781 45.8881 43.7705 45.7366C43.1141 45.6154 42.0302 46.2862 41.5551 46.6756Z" fill="url(#paint38_linear_203:243)"/>
<path d="M56.7004 44.7111C57.2488 45.3819 57.3222 46.507 56.6485 47.0479C56.3506 47.286 55.9576 47.3855 55.6855 47.6495C55.4768 47.9164 55.3 48.2069 55.1586 48.515C54.8506 48.9612 54.3907 49.2795 53.8651 49.4101C53.3396 49.5408 52.7845 49.4748 52.3041 49.2247C51.837 48.9497 51.466 48.537 51.2418 48.0428C51.0177 47.5486 50.9513 46.9972 51.0517 46.4637C51.0782 46.2314 51.1614 46.0092 51.294 45.8167C51.4265 45.6243 51.6044 45.4675 51.8118 45.3602C52.0076 45.308 52.2008 45.2459 52.3904 45.1742C53.1851 44.7414 52.9346 43.5687 53.9926 43.4432C54.8563 43.322 56.1821 44.0707 56.7004 44.7111Z" fill="#A3ABAD"/>
<path d="M54.0142 43.9148C54.1279 43.8697 54.2507 43.8525 54.3723 43.8646C54.494 43.8766 54.6111 43.9176 54.7138 43.984C55.1523 44.1679 55.5612 44.4158 55.9273 44.7197C56.2946 45.0267 56.5334 45.4606 56.5967 45.9357C56.6196 46.0632 56.5934 46.1947 56.5232 46.3035C56.4485 46.3823 56.3548 46.4404 56.2512 46.4723C56.0681 46.5504 55.8746 46.6015 55.6768 46.6238C55.5781 46.6336 55.4785 46.6237 55.3836 46.5948C55.2887 46.5658 55.2005 46.5183 55.124 46.455C55.0829 46.4193 55.0494 46.3755 55.0257 46.3264C55.0019 46.2773 54.9883 46.2239 54.9858 46.1694C54.9877 46.1148 55.0079 46.0625 55.0432 46.0208C55.0785 45.9792 55.1267 45.9507 55.1802 45.94C55.3054 45.94 55.4177 46.0439 55.5473 46.0439C55.6217 46.0373 55.6907 46.002 55.7398 45.9456C55.7889 45.8891 55.8143 45.8158 55.8107 45.741C55.7982 45.589 55.7324 45.4464 55.625 45.3385C55.3655 45.0342 55.0161 44.8205 54.6274 44.7283C54.6097 44.7207 54.5906 44.7168 54.5713 44.7168C54.552 44.7168 54.5329 44.7207 54.5151 44.7283C54.4201 44.7716 54.4719 44.9144 54.5151 45.001C54.636 45.1914 54.7095 45.4856 54.5151 45.6111C54.3208 45.7366 54.1394 45.6111 53.9926 45.4813C53.6557 45.1784 53.5391 44.2134 54.0142 43.9148Z" fill="url(#paint39_linear_203:243)"/>
<path d="M52.3947 45.7929C52.2354 45.819 52.0862 45.8878 51.9628 45.992C51.859 46.0892 51.7766 46.2071 51.721 46.3382C51.5727 46.6138 51.5039 46.9253 51.5222 47.2379C51.5405 47.5504 51.6452 47.8517 51.8246 48.1081C52.1125 48.4234 52.4839 48.65 52.8956 48.7615C53.1925 48.8794 53.5056 48.9509 53.8241 48.9736C53.9666 48.9875 54.1104 48.9678 54.2439 48.9159C54.3774 48.864 54.4969 48.7815 54.5928 48.675C54.7199 48.4955 54.7739 48.2742 54.744 48.0562C54.7464 47.8801 54.6952 47.7075 54.5972 47.5614C54.4992 47.4152 54.3591 47.3025 54.1955 47.2383C54.1216 47.2155 54.0417 47.2215 53.9721 47.2552C53.9024 47.289 53.848 47.3478 53.8198 47.42C53.8198 47.5282 53.863 47.6364 53.85 47.7489C53.85 47.9436 53.5564 48.0259 53.3793 47.935C53.2149 47.8234 53.0896 47.663 53.0209 47.4763C52.9535 47.3617 52.9081 47.2354 52.887 47.1041C52.8783 47.0402 52.8855 46.9751 52.9082 46.9146C52.9308 46.8542 52.968 46.8004 53.0165 46.7579C53.1395 46.6958 53.2762 46.666 53.4139 46.6714C53.8457 46.6281 53.7421 46.2776 53.5089 46.0828C53.3544 45.9579 53.1751 45.8673 52.983 45.8173C52.7909 45.7673 52.5903 45.759 52.3947 45.7929Z" fill="url(#paint40_linear_203:243)"/>
<path d="M54.2517 44.4948C54.254 44.5359 54.2658 44.5759 54.2863 44.6116C54.2863 44.6116 54.2863 44.6116 54.3122 44.6333C54.3223 44.6382 54.3333 44.6408 54.3446 44.6408C54.3558 44.6408 54.3669 44.6382 54.377 44.6333C54.396 44.6296 54.4141 44.6223 54.4303 44.6116C54.4465 44.6009 54.4604 44.5871 54.4712 44.571C54.4821 44.5549 54.4896 44.5369 54.4934 44.5178C54.4973 44.4988 54.4973 44.4792 54.4935 44.4602C54.4957 44.4212 54.4957 44.3822 54.4935 44.3433C54.4935 44.2611 54.4115 44.1313 54.3079 44.1919C54.2042 44.2524 54.2431 44.4169 54.2517 44.4948Z" fill="#A3ABAD"/>
<path d="M54.7915 44.7112C54.8174 44.7371 54.8606 44.7112 54.8908 44.7112L54.9815 44.6636C55.0236 44.6466 55.0577 44.614 55.0765 44.5727C55.0872 44.5448 55.0872 44.514 55.0765 44.4861C55.0031 44.2221 54.8174 44.6159 54.7915 44.7112Z" fill="#A3ABAD"/>
<path d="M55.5213 44.9361C55.503 44.9565 55.4884 44.9799 55.4781 45.0054C55.4746 45.0186 55.4757 45.0327 55.4811 45.0453C55.4866 45.0579 55.4962 45.0682 55.5084 45.0746H55.5559C55.6204 45.0619 55.6839 45.0445 55.7459 45.0227C55.767 45.018 55.7865 45.0075 55.802 44.9924C55.8409 44.9404 55.7761 44.8063 55.7156 44.7933C55.6552 44.7803 55.5602 44.8885 55.5213 44.9361Z" fill="#A3ABAD"/>
<path d="M52.2781 46.3555C52.2585 46.3489 52.2373 46.3489 52.2177 46.3555C52.2177 46.3555 52.2177 46.3555 52.1918 46.3815C52.1713 46.4065 52.1581 46.4367 52.1535 46.4688C52.1489 46.5008 52.1532 46.5335 52.1658 46.5632C52.1811 46.58 52.1985 46.5945 52.2177 46.6065C52.304 46.6628 52.6754 46.8142 52.7057 46.6325C52.7359 46.4507 52.3904 46.3858 52.2781 46.3555Z" fill="#A3ABAD"/>
<path d="M56.0396 45.4598C56.0066 45.4554 55.9732 45.4554 55.9403 45.4598C55.9233 45.4629 55.9075 45.4706 55.8946 45.482C55.8816 45.4935 55.8721 45.5082 55.8668 45.5247C55.8646 45.5405 55.8662 45.5566 55.8714 45.5717C55.8767 45.5867 55.8855 45.6003 55.8971 45.6113C55.9196 45.6321 55.946 45.6483 55.9748 45.6589C55.9987 45.6717 56.0254 45.6785 56.0525 45.6785C56.0797 45.6785 56.1064 45.6717 56.1303 45.6589C56.1529 45.6395 56.1676 45.6125 56.1716 45.5829C56.1756 45.5534 56.1685 45.5234 56.1519 45.4987C56.1194 45.4504 56.0747 45.4116 56.0223 45.3862" fill="#A3ABAD"/>
</g>
<defs>
<linearGradient id="paint0_linear_203:243" x1="51.1121" y1="47.1301" x2="57.1667" y2="47.1301" gradientUnits="userSpaceOnUse">
<stop offset="0.01"/>
<stop offset="0.13" stop-opacity="0.69"/>
<stop offset="1" stop-opacity="0"/>
</linearGradient>
<linearGradient id="paint1_linear_203:243" x1="5647.11" y1="1629.28" x2="10487.1" y2="1629.28" gradientUnits="userSpaceOnUse">
<stop offset="0.01"/>
<stop offset="0.13" stop-opacity="0.69"/>
<stop offset="1" stop-opacity="0"/>
</linearGradient>
<linearGradient id="paint2_linear_203:243" x1="76.7686" y1="75.5789" x2="98.5191" y2="88.6991" gradientUnits="userSpaceOnUse">
<stop offset="0.01" stop-color="white"/>
<stop offset="0.13" stop-color="white" stop-opacity="0.69"/>
<stop offset="1" stop-color="white" stop-opacity="0"/>
</linearGradient>
<linearGradient id="paint3_linear_203:243" x1="2257.83" y1="1650.61" x2="2455.01" y2="1650.61" gradientUnits="userSpaceOnUse">
<stop offset="0.01"/>
<stop offset="0.13" stop-opacity="0.69"/>
<stop offset="1" stop-opacity="0"/>
</linearGradient>
<linearGradient id="paint4_linear_203:243" x1="1298.8" y1="975.1" x2="1454.5" y2="975.1" gradientUnits="userSpaceOnUse">
<stop offset="0.01"/>
<stop offset="0.13" stop-opacity="0.69"/>
<stop offset="1" stop-opacity="0"/>
</linearGradient>
<linearGradient id="paint5_linear_203:243" x1="1105.54" y1="1473.3" x2="1187.65" y2="1473.3" gradientUnits="userSpaceOnUse">
<stop offset="0.01"/>
<stop offset="0.13" stop-opacity="0.69"/>
<stop offset="1" stop-opacity="0"/>
</linearGradient>
<linearGradient id="paint6_linear_203:243" x1="7618.85" y1="2853.33" x2="14800.9" y2="2853.33" gradientUnits="userSpaceOnUse">
<stop offset="0.01"/>
<stop offset="0.13" stop-opacity="0.69"/>
<stop offset="1" stop-opacity="0"/>
</linearGradient>
<linearGradient id="paint7_linear_203:243" x1="12576.6" y1="5063.37" x2="12557" y2="2997.2" gradientUnits="userSpaceOnUse">
<stop offset="0.01"/>
<stop offset="0.13" stop-opacity="0.69"/>
<stop offset="1" stop-opacity="0"/>
</linearGradient>
<linearGradient id="paint8_linear_203:243" x1="707.447" y1="818.035" x2="732.585" y2="777.476" gradientUnits="userSpaceOnUse">
<stop offset="0.01"/>
<stop offset="0.13" stop-opacity="0.69"/>
<stop offset="1" stop-opacity="0"/>
</linearGradient>
<linearGradient id="paint9_linear_203:243" x1="3014.94" y1="2256.93" x2="3380.32" y2="2256.93" gradientUnits="userSpaceOnUse">
<stop offset="0.01"/>
<stop offset="0.13" stop-opacity="0.69"/>
<stop offset="1" stop-opacity="0"/>
</linearGradient>
<linearGradient id="paint10_linear_203:243" x1="2615.35" y1="1575.01" x2="2876.91" y2="1575.01" gradientUnits="userSpaceOnUse">
<stop offset="0.01"/>
<stop offset="0.13" stop-opacity="0.69"/>
<stop offset="1" stop-opacity="0"/>
</linearGradient>
<linearGradient id="paint11_linear_203:243" x1="8805.83" y1="3437.22" x2="8796.12" y2="2422.62" gradientUnits="userSpaceOnUse">
<stop offset="0.01"/>
<stop offset="0.13" stop-opacity="0.69"/>
<stop offset="1" stop-opacity="0"/>
</linearGradient>
<linearGradient id="paint12_linear_203:243" x1="1701.18" y1="3208.52" x2="1518.66" y2="3182.75" gradientUnits="userSpaceOnUse">
<stop offset="0.01"/>
<stop offset="0.13" stop-opacity="0.69"/>
<stop offset="1" stop-opacity="0"/>
</linearGradient>
<linearGradient id="paint13_linear_203:243" x1="1618.21" y1="1944.11" x2="1897.29" y2="1944.11" gradientUnits="userSpaceOnUse">
<stop offset="0.01"/>
<stop offset="0.13" stop-opacity="0.69"/>
<stop offset="1" stop-opacity="0"/>
</linearGradient>
<linearGradient id="paint14_linear_203:243" x1="2989.56" y1="2743.29" x2="2705.97" y2="2399.69" gradientUnits="userSpaceOnUse">
<stop offset="0.01"/>
<stop offset="0.13" stop-opacity="0.69"/>
<stop offset="1" stop-opacity="0"/>
</linearGradient>
<linearGradient id="paint15_linear_203:243" x1="1195.94" y1="2093.59" x2="1148.16" y2="1857.38" gradientUnits="userSpaceOnUse">
<stop offset="0.01"/>
<stop offset="0.13" stop-opacity="0.69"/>
<stop offset="1" stop-opacity="0"/>
</linearGradient>
<linearGradient id="paint16_linear_203:243" x1="1974.25" y1="3745.42" x2="2269.9" y2="2712.06" gradientUnits="userSpaceOnUse">
<stop offset="0.01"/>
<stop offset="0.13" stop-opacity="0.69"/>
<stop offset="1" stop-opacity="0"/>
</linearGradient>
<linearGradient id="paint17_linear_203:243" x1="2861.97" y1="2554.26" x2="3388.89" y2="2013.46" gradientUnits="userSpaceOnUse">
<stop offset="0.01"/>
<stop offset="0.13" stop-opacity="0.69"/>
<stop offset="1" stop-opacity="0"/>
</linearGradient>
<linearGradient id="paint18_linear_203:243" x1="568.976" y1="691.838" x2="572.907" y2="643.932" gradientUnits="userSpaceOnUse">
<stop offset="0.01"/>
<stop offset="0.13" stop-opacity="0.69"/>
<stop offset="1" stop-opacity="0"/>
</linearGradient>
<linearGradient id="paint19_linear_203:243" x1="1852.22" y1="1138.54" x2="1887.84" y2="974.837" gradientUnits="userSpaceOnUse">
<stop offset="0.01"/>
<stop offset="0.13" stop-opacity="0.69"/>
<stop offset="1" stop-opacity="0"/>
</linearGradient>
<linearGradient id="paint20_linear_203:243" x1="1520.14" y1="1644.84" x2="1725.9" y2="1644.84" gradientUnits="userSpaceOnUse">
<stop offset="0.01"/>
<stop offset="0.13" stop-opacity="0.69"/>
<stop offset="1" stop-opacity="0"/>
</linearGradient>
<linearGradient id="paint21_linear_203:243" x1="1257.26" y1="948.491" x2="1383.22" y2="948.491" gradientUnits="userSpaceOnUse">
<stop offset="0.01"/>
<stop offset="0.13" stop-opacity="0.69"/>
<stop offset="1" stop-opacity="0"/>
</linearGradient>
<linearGradient id="paint22_linear_203:243" x1="1062.42" y1="487.949" x2="1175.19" y2="487.949" gradientUnits="userSpaceOnUse">
<stop offset="0.01"/>
<stop offset="0.13" stop-opacity="0.69"/>
<stop offset="1" stop-opacity="0"/>
</linearGradient>
<linearGradient id="paint23_linear_203:243" x1="429.908" y1="373.503" x2="439.856" y2="373.503" gradientUnits="userSpaceOnUse">
<stop offset="0.01"/>
<stop offset="0.13" stop-opacity="0.69"/>
<stop offset="1" stop-opacity="0"/>
</linearGradient>
<linearGradient id="paint24_linear_203:243" x1="3643.11" y1="-4903.12" x2="3643.77" y2="-4908.19" gradientUnits="userSpaceOnUse">
<stop offset="0.01"/>
<stop offset="0.13" stop-opacity="0.69"/>
<stop offset="1" stop-opacity="0"/>
</linearGradient>
<linearGradient id="paint25_linear_203:243" x1="2587.8" y1="-223.529" x2="2590.86" y2="-226.332" gradientUnits="userSpaceOnUse">
<stop offset="0.01"/>
<stop offset="0.13" stop-opacity="0.69"/>
<stop offset="1" stop-opacity="0"/>
</linearGradient>
<linearGradient id="paint26_linear_203:243" x1="2622.1" y1="-246.793" x2="2625.22" y2="-249.655" gradientUnits="userSpaceOnUse">
<stop offset="0.01"/>
<stop offset="0.13" stop-opacity="0.69"/>
<stop offset="1" stop-opacity="0"/>
</linearGradient>
<linearGradient id="paint27_linear_203:243" x1="2533.49" y1="-138.632" x2="2536.46" y2="-141.36" gradientUnits="userSpaceOnUse">
<stop offset="0.01"/>
<stop offset="0.13" stop-opacity="0.69"/>
<stop offset="1" stop-opacity="0"/>
</linearGradient>
<linearGradient id="paint28_linear_203:243" x1="480.798" y1="341.425" x2="487.402" y2="341.425" gradientUnits="userSpaceOnUse">
<stop offset="0.01"/>
<stop offset="0.13" stop-opacity="0.69"/>
<stop offset="1" stop-opacity="0"/>
</linearGradient>
<linearGradient id="paint29_linear_203:243" x1="2796.69" y1="-3687.38" x2="2797.13" y2="-3690.76" gradientUnits="userSpaceOnUse">
<stop offset="0.01"/>
<stop offset="0.13" stop-opacity="0.69"/>
<stop offset="1" stop-opacity="0"/>
</linearGradient>
<linearGradient id="paint30_linear_203:243" x1="2053.45" y1="-25.5345" x2="2055.47" y2="-27.3943" gradientUnits="userSpaceOnUse">
<stop offset="0.01"/>
<stop offset="0.13" stop-opacity="0.69"/>
<stop offset="1" stop-opacity="0"/>
</linearGradient>
<linearGradient id="paint31_linear_203:243" x1="2042.99" y1="-10.3528" x2="2045.01" y2="-12.2126" gradientUnits="userSpaceOnUse">
<stop offset="0.01"/>
<stop offset="0.13" stop-opacity="0.69"/>
<stop offset="1" stop-opacity="0"/>
</linearGradient>
<linearGradient id="paint32_linear_203:243" x1="2063.39" y1="-4.25052" x2="2065.42" y2="-6.11079" gradientUnits="userSpaceOnUse">
<stop offset="0.01"/>
<stop offset="0.13" stop-opacity="0.69"/>
<stop offset="1" stop-opacity="0"/>
</linearGradient>
<linearGradient id="paint33_linear_203:243" x1="453.742" y1="681.528" x2="469.527" y2="681.528" gradientUnits="userSpaceOnUse">
<stop offset="0.01"/>
<stop offset="0.13" stop-opacity="0.69"/>
<stop offset="1" stop-opacity="0"/>
</linearGradient>
<linearGradient id="paint34_linear_203:243" x1="-4665.91" y1="-12508.8" x2="-4676.6" y2="-12496.1" gradientUnits="userSpaceOnUse">
<stop offset="0.01"/>
<stop offset="0.13" stop-opacity="0.69"/>
<stop offset="1" stop-opacity="0"/>
</linearGradient>
<linearGradient id="paint35_linear_203:243" x1="-4505.95" y1="-11040.1" x2="-4510" y2="-11038.2" gradientUnits="userSpaceOnUse">
<stop offset="0.01"/>
<stop offset="0.13" stop-opacity="0.69"/>
<stop offset="1" stop-opacity="0"/>
</linearGradient>
<linearGradient id="paint36_linear_203:243" x1="3324.65" y1="-9147.7" x2="3322.58" y2="-9152.3" gradientUnits="userSpaceOnUse">
<stop offset="0.01"/>
<stop offset="0.13" stop-opacity="0.69"/>
<stop offset="1" stop-opacity="0"/>
</linearGradient>
<linearGradient id="paint37_linear_203:243" x1="-8579.05" y1="-28512.3" x2="-8592.65" y2="-28508.4" gradientUnits="userSpaceOnUse">
<stop offset="0.01"/>
<stop offset="0.13" stop-opacity="0.69"/>
<stop offset="1" stop-opacity="0"/>
</linearGradient>
<linearGradient id="paint38_linear_203:243" x1="-11401.8" y1="-4321.93" x2="-11393.6" y2="-4305.96" gradientUnits="userSpaceOnUse">
<stop offset="0.01"/>
<stop offset="0.13" stop-opacity="0.69"/>
<stop offset="1" stop-opacity="0"/>
</linearGradient>
<linearGradient id="paint39_linear_203:243" x1="524.586" y1="461.812" x2="549.001" y2="429.072" gradientUnits="userSpaceOnUse">
<stop offset="0.01"/>
<stop offset="0.13" stop-opacity="0.69"/>
<stop offset="1" stop-opacity="0"/>
</linearGradient>
<linearGradient id="paint40_linear_203:243" x1="567.339" y1="521.526" x2="591.391" y2="521.526" gradientUnits="userSpaceOnUse">
<stop offset="0.01"/>
<stop offset="0.13" stop-opacity="0.69"/>
<stop offset="1" stop-opacity="0"/>
</linearGradient>
<clipPath id="clip0_203:243">
<rect width="143" height="108" fill="white"/>
</clipPath>
</defs>
</svg>
